%TF.GenerationSoftware,KiCad,Pcbnew,8.0.8*%
%TF.CreationDate,2025-01-31T12:43:17-07:00*%
%TF.ProjectId,Uno_Shield_ThermoPro,556e6f5f-5368-4696-956c-645f54686572,rev?*%
%TF.SameCoordinates,Original*%
%TF.FileFunction,Copper,L2,Bot*%
%TF.FilePolarity,Positive*%
%FSLAX46Y46*%
G04 Gerber Fmt 4.6, Leading zero omitted, Abs format (unit mm)*
G04 Created by KiCad (PCBNEW 8.0.8) date 2025-01-31 12:43:17*
%MOMM*%
%LPD*%
G01*
G04 APERTURE LIST*
G04 Aperture macros list*
%AMRoundRect*
0 Rectangle with rounded corners*
0 $1 Rounding radius*
0 $2 $3 $4 $5 $6 $7 $8 $9 X,Y pos of 4 corners*
0 Add a 4 corners polygon primitive as box body*
4,1,4,$2,$3,$4,$5,$6,$7,$8,$9,$2,$3,0*
0 Add four circle primitives for the rounded corners*
1,1,$1+$1,$2,$3*
1,1,$1+$1,$4,$5*
1,1,$1+$1,$6,$7*
1,1,$1+$1,$8,$9*
0 Add four rect primitives between the rounded corners*
20,1,$1+$1,$2,$3,$4,$5,0*
20,1,$1+$1,$4,$5,$6,$7,0*
20,1,$1+$1,$6,$7,$8,$9,0*
20,1,$1+$1,$8,$9,$2,$3,0*%
G04 Aperture macros list end*
%TA.AperFunction,ComponentPad*%
%ADD10R,1.700000X1.700000*%
%TD*%
%TA.AperFunction,ComponentPad*%
%ADD11O,1.700000X1.700000*%
%TD*%
%TA.AperFunction,ComponentPad*%
%ADD12C,2.000000*%
%TD*%
%TA.AperFunction,ComponentPad*%
%ADD13C,1.600000*%
%TD*%
%TA.AperFunction,ComponentPad*%
%ADD14O,1.600000X1.600000*%
%TD*%
%TA.AperFunction,ComponentPad*%
%ADD15C,1.440000*%
%TD*%
%TA.AperFunction,ComponentPad*%
%ADD16RoundRect,0.250000X-0.600000X-0.725000X0.600000X-0.725000X0.600000X0.725000X-0.600000X0.725000X0*%
%TD*%
%TA.AperFunction,ComponentPad*%
%ADD17O,1.700000X1.950000*%
%TD*%
%TA.AperFunction,ComponentPad*%
%ADD18R,1.800000X1.800000*%
%TD*%
%TA.AperFunction,ComponentPad*%
%ADD19C,1.800000*%
%TD*%
G04 APERTURE END LIST*
D10*
%TO.P,J1,1,Pin_1*%
%TO.N,unconnected-(J1-Pin_1-Pad1)*%
X127940000Y-97460000D03*
D11*
%TO.P,J1,2,Pin_2*%
%TO.N,unconnected-(J1-Pin_2-Pad2)*%
X130480000Y-97460000D03*
%TO.P,J1,3,Pin_3*%
%TO.N,unconnected-(J1-Pin_3-Pad3)*%
X133020000Y-97460000D03*
%TO.P,J1,4,Pin_4*%
%TO.N,+3V3*%
X135560000Y-97460000D03*
%TO.P,J1,5,Pin_5*%
%TO.N,+5V*%
X138100000Y-97460000D03*
%TO.P,J1,6,Pin_6*%
%TO.N,GND*%
X140640000Y-97460000D03*
%TO.P,J1,7,Pin_7*%
X143180000Y-97460000D03*
%TO.P,J1,8,Pin_8*%
%TO.N,VCC*%
X145720000Y-97460000D03*
%TD*%
D10*
%TO.P,J3,1,Pin_1*%
%TO.N,/temp_sensor*%
X150800000Y-97460000D03*
D11*
%TO.P,J3,2,Pin_2*%
%TO.N,unconnected-(J3-Pin_2-Pad2)*%
X153340000Y-97460000D03*
%TO.P,J3,3,Pin_3*%
%TO.N,unconnected-(J3-Pin_3-Pad3)*%
X155880000Y-97460000D03*
%TO.P,J3,4,Pin_4*%
%TO.N,unconnected-(J3-Pin_4-Pad4)*%
X158420000Y-97460000D03*
%TO.P,J3,5,Pin_5*%
%TO.N,unconnected-(J3-Pin_5-Pad5)*%
X160960000Y-97460000D03*
%TO.P,J3,6,Pin_6*%
%TO.N,unconnected-(J3-Pin_6-Pad6)*%
X163500000Y-97460000D03*
%TD*%
D10*
%TO.P,J2,1,Pin_1*%
%TO.N,/I2C_SCL*%
X118796000Y-49200000D03*
D11*
%TO.P,J2,2,Pin_2*%
%TO.N,/I2C_SDA*%
X121336000Y-49200000D03*
%TO.P,J2,3,Pin_3*%
%TO.N,unconnected-(J2-Pin_3-Pad3)*%
X123876000Y-49200000D03*
%TO.P,J2,4,Pin_4*%
%TO.N,GND*%
X126416000Y-49200000D03*
%TO.P,J2,5,Pin_5*%
%TO.N,unconnected-(J2-Pin_5-Pad5)*%
X128956000Y-49200000D03*
%TO.P,J2,6,Pin_6*%
%TO.N,unconnected-(J2-Pin_6-Pad6)*%
X131496000Y-49200000D03*
%TO.P,J2,7,Pin_7*%
%TO.N,unconnected-(J2-Pin_7-Pad7)*%
X134036000Y-49200000D03*
%TO.P,J2,8,Pin_8*%
%TO.N,unconnected-(J2-Pin_8-Pad8)*%
X136576000Y-49200000D03*
%TO.P,J2,9,Pin_9*%
%TO.N,/led_light*%
X139116000Y-49200000D03*
%TO.P,J2,10,Pin_10*%
%TO.N,/temp_digital*%
X141656000Y-49200000D03*
%TD*%
D10*
%TO.P,J4,1,Pin_1*%
%TO.N,unconnected-(J4-Pin_1-Pad1)*%
X145720000Y-49200000D03*
D11*
%TO.P,J4,2,Pin_2*%
%TO.N,/button_units*%
X148260000Y-49200000D03*
%TO.P,J4,3,Pin_3*%
%TO.N,/button_onoff*%
X150800000Y-49200000D03*
%TO.P,J4,4,Pin_4*%
%TO.N,/button_cal*%
X153340000Y-49200000D03*
%TO.P,J4,5,Pin_5*%
%TO.N,/button_lock*%
X155880000Y-49200000D03*
%TO.P,J4,6,Pin_6*%
%TO.N,/button_light*%
X158420000Y-49200000D03*
%TO.P,J4,7,Pin_7*%
%TO.N,unconnected-(J4-Pin_7-Pad7)*%
X160960000Y-49200000D03*
%TO.P,J4,8,Pin_8*%
%TO.N,unconnected-(J4-Pin_8-Pad8)*%
X163500000Y-49200000D03*
%TD*%
D12*
%TO.P,SW1,1,A*%
%TO.N,/button_onoff*%
X145400000Y-69930000D03*
X151900000Y-69930000D03*
%TO.P,SW1,2,B*%
%TO.N,+5V*%
X145400000Y-74430000D03*
X151900000Y-74430000D03*
%TD*%
%TO.P,SW5,1,A*%
%TO.N,/button_light*%
X146260000Y-85680000D03*
X152760000Y-85680000D03*
%TO.P,SW5,2,B*%
%TO.N,+5V*%
X146260000Y-90180000D03*
X152760000Y-90180000D03*
%TD*%
D13*
%TO.P,R6,1*%
%TO.N,/led_light*%
X132570000Y-53020000D03*
D14*
%TO.P,R6,2*%
%TO.N,Net-(D1-A)*%
X132570000Y-63180000D03*
%TD*%
D15*
%TO.P,RV1,1,1*%
%TO.N,+5V*%
X157900000Y-89760000D03*
%TO.P,RV1,2,2*%
%TO.N,/temp_sensor*%
X160440000Y-92300000D03*
%TO.P,RV1,3,3*%
%TO.N,GND*%
X162980000Y-89760000D03*
%TD*%
D10*
%TO.P,J6,1,Pin_1*%
%TO.N,GND*%
X110610000Y-72590000D03*
D11*
%TO.P,J6,2,Pin_2*%
%TO.N,+5V*%
X113150000Y-72590000D03*
%TO.P,J6,3,Pin_3*%
%TO.N,/I2C_SCL*%
X115690000Y-72590000D03*
%TO.P,J6,4,Pin_4*%
%TO.N,/I2C_SDA*%
X118230000Y-72590000D03*
%TD*%
D12*
%TO.P,SW2,1,A*%
%TO.N,/button_units*%
X131660000Y-70640000D03*
X138160000Y-70640000D03*
%TO.P,SW2,2,B*%
%TO.N,+5V*%
X131660000Y-75140000D03*
X138160000Y-75140000D03*
%TD*%
D10*
%TO.P,J5,1,Pin_1*%
%TO.N,+5V*%
X106700000Y-64630000D03*
D11*
%TO.P,J5,2,Pin_2*%
%TO.N,GND*%
X109240000Y-64630000D03*
%TO.P,J5,3,Pin_3*%
%TO.N,/I2C_SCL*%
X111780000Y-64630000D03*
%TO.P,J5,4,Pin_4*%
%TO.N,/I2C_SDA*%
X114320000Y-64630000D03*
%TO.P,J5,5,Pin_5*%
%TO.N,unconnected-(J5-Pin_5-Pad5)*%
X116860000Y-64630000D03*
%TO.P,J5,6,Pin_6*%
%TO.N,unconnected-(J5-Pin_6-Pad6)*%
X119400000Y-64630000D03*
%TO.P,J5,7,Pin_7*%
%TO.N,unconnected-(J5-Pin_7-Pad7)*%
X121940000Y-64630000D03*
%TO.P,J5,8,Pin_8*%
%TO.N,unconnected-(J5-Pin_8-Pad8)*%
X124480000Y-64630000D03*
%TD*%
D12*
%TO.P,SW3,1,A*%
%TO.N,/button_cal*%
X132470000Y-85670000D03*
X138970000Y-85670000D03*
%TO.P,SW3,2,B*%
%TO.N,+5V*%
X132470000Y-90170000D03*
X138970000Y-90170000D03*
%TD*%
D16*
%TO.P,J7,1,Pin_1*%
%TO.N,GND*%
X138730000Y-56680000D03*
D17*
%TO.P,J7,2,Pin_2*%
%TO.N,/temp_digital*%
X141230000Y-56680000D03*
%TO.P,J7,3,Pin_3*%
%TO.N,+5V*%
X143730000Y-56680000D03*
%TD*%
D18*
%TO.P,D1,1,K*%
%TO.N,GND*%
X156420000Y-59165000D03*
D19*
%TO.P,D1,2,A*%
%TO.N,Net-(D1-A)*%
X156420000Y-56625000D03*
%TD*%
D13*
%TO.P,R3,1*%
%TO.N,/button_cal*%
X130820000Y-81960000D03*
D14*
%TO.P,R3,2*%
%TO.N,GND*%
X140980000Y-81960000D03*
%TD*%
D13*
%TO.P,R2,1*%
%TO.N,/button_units*%
X140260000Y-66590000D03*
D14*
%TO.P,R2,2*%
%TO.N,GND*%
X130100000Y-66590000D03*
%TD*%
D12*
%TO.P,SW4,1,A*%
%TO.N,/button_lock*%
X158030000Y-73860000D03*
X164530000Y-73860000D03*
%TO.P,SW4,2,B*%
%TO.N,+5V*%
X158030000Y-78360000D03*
X164530000Y-78360000D03*
%TD*%
D13*
%TO.P,R5,1*%
%TO.N,/button_light*%
X144470000Y-82030000D03*
D14*
%TO.P,R5,2*%
%TO.N,GND*%
X154630000Y-82030000D03*
%TD*%
D13*
%TO.P,R4,1*%
%TO.N,/button_lock*%
X156150000Y-70180000D03*
D14*
%TO.P,R4,2*%
%TO.N,GND*%
X166310000Y-70180000D03*
%TD*%
D13*
%TO.P,R1,1*%
%TO.N,/button_onoff*%
X154020000Y-65980000D03*
D14*
%TO.P,R1,2*%
%TO.N,GND*%
X143860000Y-65980000D03*
%TD*%
%TA.AperFunction,Conductor*%
%TO.N,GND*%
G36*
X142714075Y-97267007D02*
G01*
X142680000Y-97394174D01*
X142680000Y-97525826D01*
X142714075Y-97652993D01*
X142746988Y-97710000D01*
X141073012Y-97710000D01*
X141105925Y-97652993D01*
X141140000Y-97525826D01*
X141140000Y-97394174D01*
X141105925Y-97267007D01*
X141073012Y-97210000D01*
X142746988Y-97210000D01*
X142714075Y-97267007D01*
G37*
%TD.AperFunction*%
%TA.AperFunction,Conductor*%
G36*
X163484404Y-46755185D02*
G01*
X163505046Y-46771819D01*
X165928181Y-49194954D01*
X165961666Y-49256277D01*
X165964500Y-49282635D01*
X165964500Y-59344982D01*
X165964500Y-59375018D01*
X165975994Y-59402767D01*
X165975995Y-59402768D01*
X168468181Y-61894954D01*
X168501666Y-61956277D01*
X168504500Y-61982635D01*
X168504500Y-96107364D01*
X168484815Y-96174403D01*
X168468181Y-96195045D01*
X165997233Y-98665994D01*
X165975995Y-98687231D01*
X165964500Y-98714982D01*
X165964500Y-99231907D01*
X165963903Y-99244062D01*
X165952505Y-99359778D01*
X165947763Y-99383618D01*
X165917832Y-99482290D01*
X165915789Y-99489024D01*
X165906486Y-99511482D01*
X165854561Y-99608627D01*
X165841056Y-99628839D01*
X165771176Y-99713988D01*
X165753988Y-99731176D01*
X165668839Y-99801056D01*
X165648627Y-99814561D01*
X165551482Y-99866486D01*
X165529028Y-99875787D01*
X165487028Y-99888528D01*
X165423618Y-99907763D01*
X165399778Y-99912505D01*
X165291162Y-99923203D01*
X165284060Y-99923903D01*
X165271907Y-99924500D01*
X100768093Y-99924500D01*
X100755939Y-99923903D01*
X100747995Y-99923120D01*
X100640221Y-99912505D01*
X100616381Y-99907763D01*
X100599445Y-99902625D01*
X100510968Y-99875786D01*
X100488517Y-99866486D01*
X100391372Y-99814561D01*
X100371160Y-99801056D01*
X100286011Y-99731176D01*
X100268823Y-99713988D01*
X100198943Y-99628839D01*
X100185438Y-99608627D01*
X100133510Y-99511476D01*
X100124215Y-99489037D01*
X100092234Y-99383612D01*
X100087494Y-99359777D01*
X100076097Y-99244061D01*
X100075500Y-99231907D01*
X100075500Y-96561345D01*
X126581500Y-96561345D01*
X126581500Y-98358654D01*
X126588011Y-98419202D01*
X126588011Y-98419204D01*
X126639111Y-98556204D01*
X126726739Y-98673261D01*
X126843796Y-98760889D01*
X126980799Y-98811989D01*
X127008050Y-98814918D01*
X127041345Y-98818499D01*
X127041362Y-98818500D01*
X128838638Y-98818500D01*
X128838654Y-98818499D01*
X128865692Y-98815591D01*
X128899201Y-98811989D01*
X129036204Y-98760889D01*
X129153261Y-98673261D01*
X129240889Y-98556204D01*
X129286138Y-98434887D01*
X129328009Y-98378956D01*
X129393474Y-98354539D01*
X129461746Y-98369391D01*
X129493545Y-98394236D01*
X129556760Y-98462906D01*
X129734424Y-98601189D01*
X129734425Y-98601189D01*
X129734427Y-98601191D01*
X129861135Y-98669761D01*
X129932426Y-98708342D01*
X130145365Y-98781444D01*
X130367431Y-98818500D01*
X130592569Y-98818500D01*
X130814635Y-98781444D01*
X131027574Y-98708342D01*
X131225576Y-98601189D01*
X131403240Y-98462906D01*
X131524594Y-98331082D01*
X131555715Y-98297276D01*
X131555715Y-98297275D01*
X131555722Y-98297268D01*
X131646193Y-98158790D01*
X131699338Y-98113437D01*
X131768569Y-98104013D01*
X131831905Y-98133515D01*
X131853804Y-98158787D01*
X131944278Y-98297268D01*
X131944283Y-98297273D01*
X131944284Y-98297276D01*
X132070968Y-98434889D01*
X132096760Y-98462906D01*
X132274424Y-98601189D01*
X132274425Y-98601189D01*
X132274427Y-98601191D01*
X132401135Y-98669761D01*
X132472426Y-98708342D01*
X132685365Y-98781444D01*
X132907431Y-98818500D01*
X133132569Y-98818500D01*
X133354635Y-98781444D01*
X133567574Y-98708342D01*
X133765576Y-98601189D01*
X133943240Y-98462906D01*
X134064594Y-98331082D01*
X134095715Y-98297276D01*
X134095715Y-98297275D01*
X134095722Y-98297268D01*
X134186193Y-98158790D01*
X134239338Y-98113437D01*
X134308569Y-98104013D01*
X134371905Y-98133515D01*
X134393804Y-98158787D01*
X134484278Y-98297268D01*
X134484283Y-98297273D01*
X134484284Y-98297276D01*
X134610968Y-98434889D01*
X134636760Y-98462906D01*
X134814424Y-98601189D01*
X134814425Y-98601189D01*
X134814427Y-98601191D01*
X134941135Y-98669761D01*
X135012426Y-98708342D01*
X135225365Y-98781444D01*
X135447431Y-98818500D01*
X135672569Y-98818500D01*
X135894635Y-98781444D01*
X136107574Y-98708342D01*
X136305576Y-98601189D01*
X136483240Y-98462906D01*
X136604594Y-98331082D01*
X136635715Y-98297276D01*
X136635715Y-98297275D01*
X136635722Y-98297268D01*
X136726193Y-98158790D01*
X136779338Y-98113437D01*
X136848569Y-98104013D01*
X136911905Y-98133515D01*
X136933804Y-98158787D01*
X137024278Y-98297268D01*
X137024283Y-98297273D01*
X137024284Y-98297276D01*
X137150968Y-98434889D01*
X137176760Y-98462906D01*
X137354424Y-98601189D01*
X137354425Y-98601189D01*
X137354427Y-98601191D01*
X137481135Y-98669761D01*
X137552426Y-98708342D01*
X137765365Y-98781444D01*
X137987431Y-98818500D01*
X138212569Y-98818500D01*
X138434635Y-98781444D01*
X138647574Y-98708342D01*
X138845576Y-98601189D01*
X139023240Y-98462906D01*
X139144594Y-98331082D01*
X139175715Y-98297276D01*
X139175715Y-98297275D01*
X139175722Y-98297268D01*
X139269749Y-98153347D01*
X139322894Y-98107994D01*
X139392125Y-98098570D01*
X139455461Y-98128072D01*
X139475130Y-98150048D01*
X139601890Y-98331078D01*
X139768917Y-98498105D01*
X139962421Y-98633600D01*
X140176507Y-98733429D01*
X140176516Y-98733433D01*
X140390000Y-98790634D01*
X140390000Y-97893012D01*
X140447007Y-97925925D01*
X140574174Y-97960000D01*
X140705826Y-97960000D01*
X140832993Y-97925925D01*
X140890000Y-97893012D01*
X140890000Y-98790633D01*
X141103483Y-98733433D01*
X141103492Y-98733429D01*
X141317578Y-98633600D01*
X141511082Y-98498105D01*
X141678105Y-98331082D01*
X141808425Y-98144968D01*
X141863002Y-98101344D01*
X141932501Y-98094151D01*
X141994855Y-98125673D01*
X142011575Y-98144968D01*
X142141894Y-98331082D01*
X142308917Y-98498105D01*
X142502421Y-98633600D01*
X142716507Y-98733429D01*
X142716516Y-98733433D01*
X142930000Y-98790634D01*
X142930000Y-97893012D01*
X142987007Y-97925925D01*
X143114174Y-97960000D01*
X143245826Y-97960000D01*
X143372993Y-97925925D01*
X143430000Y-97893012D01*
X143430000Y-98790633D01*
X143643483Y-98733433D01*
X143643492Y-98733429D01*
X143857578Y-98633600D01*
X144051082Y-98498105D01*
X144218105Y-98331082D01*
X144344868Y-98150048D01*
X144399445Y-98106423D01*
X144468944Y-98099231D01*
X144531298Y-98130753D01*
X144550251Y-98153350D01*
X144644276Y-98297265D01*
X144644284Y-98297276D01*
X144770968Y-98434889D01*
X144796760Y-98462906D01*
X144974424Y-98601189D01*
X144974425Y-98601189D01*
X144974427Y-98601191D01*
X145101135Y-98669761D01*
X145172426Y-98708342D01*
X145385365Y-98781444D01*
X145607431Y-98818500D01*
X145832569Y-98818500D01*
X146054635Y-98781444D01*
X146267574Y-98708342D01*
X146465576Y-98601189D01*
X146643240Y-98462906D01*
X146764594Y-98331082D01*
X146795715Y-98297276D01*
X146795717Y-98297273D01*
X146795722Y-98297268D01*
X146918860Y-98108791D01*
X147009296Y-97902616D01*
X147064564Y-97684368D01*
X147067164Y-97652993D01*
X147083156Y-97460005D01*
X147083156Y-97459994D01*
X147064565Y-97235640D01*
X147064563Y-97235628D01*
X147009296Y-97017385D01*
X146999071Y-96994075D01*
X146918860Y-96811209D01*
X146902706Y-96786484D01*
X146795723Y-96622734D01*
X146795715Y-96622723D01*
X146739212Y-96561345D01*
X149441500Y-96561345D01*
X149441500Y-98358654D01*
X149448011Y-98419202D01*
X149448011Y-98419204D01*
X149499111Y-98556204D01*
X149586739Y-98673261D01*
X149703796Y-98760889D01*
X149840799Y-98811989D01*
X149868050Y-98814918D01*
X149901345Y-98818499D01*
X149901362Y-98818500D01*
X151698638Y-98818500D01*
X151698654Y-98818499D01*
X151725692Y-98815591D01*
X151759201Y-98811989D01*
X151896204Y-98760889D01*
X152013261Y-98673261D01*
X152100889Y-98556204D01*
X152146138Y-98434887D01*
X152188009Y-98378956D01*
X152253474Y-98354539D01*
X152321746Y-98369391D01*
X152353545Y-98394236D01*
X152416760Y-98462906D01*
X152594424Y-98601189D01*
X152594425Y-98601189D01*
X152594427Y-98601191D01*
X152721135Y-98669761D01*
X152792426Y-98708342D01*
X153005365Y-98781444D01*
X153227431Y-98818500D01*
X153452569Y-98818500D01*
X153674635Y-98781444D01*
X153887574Y-98708342D01*
X154085576Y-98601189D01*
X154263240Y-98462906D01*
X154384594Y-98331082D01*
X154415715Y-98297276D01*
X154415715Y-98297275D01*
X154415722Y-98297268D01*
X154506193Y-98158790D01*
X154559338Y-98113437D01*
X154628569Y-98104013D01*
X154691905Y-98133515D01*
X154713804Y-98158787D01*
X154804278Y-98297268D01*
X154804283Y-98297273D01*
X154804284Y-98297276D01*
X154930968Y-98434889D01*
X154956760Y-98462906D01*
X155134424Y-98601189D01*
X155134425Y-98601189D01*
X155134427Y-98601191D01*
X155261135Y-98669761D01*
X155332426Y-98708342D01*
X155545365Y-98781444D01*
X155767431Y-98818500D01*
X155992569Y-98818500D01*
X156214635Y-98781444D01*
X156427574Y-98708342D01*
X156625576Y-98601189D01*
X156803240Y-98462906D01*
X156924594Y-98331082D01*
X156955715Y-98297276D01*
X156955715Y-98297275D01*
X156955722Y-98297268D01*
X157046193Y-98158790D01*
X157099338Y-98113437D01*
X157168569Y-98104013D01*
X157231905Y-98133515D01*
X157253804Y-98158787D01*
X157344278Y-98297268D01*
X157344283Y-98297273D01*
X157344284Y-98297276D01*
X157470968Y-98434889D01*
X157496760Y-98462906D01*
X157674424Y-98601189D01*
X157674425Y-98601189D01*
X157674427Y-98601191D01*
X157801135Y-98669761D01*
X157872426Y-98708342D01*
X158085365Y-98781444D01*
X158307431Y-98818500D01*
X158532569Y-98818500D01*
X158754635Y-98781444D01*
X158967574Y-98708342D01*
X159165576Y-98601189D01*
X159343240Y-98462906D01*
X159464594Y-98331082D01*
X159495715Y-98297276D01*
X159495715Y-98297275D01*
X159495722Y-98297268D01*
X159586193Y-98158790D01*
X159639338Y-98113437D01*
X159708569Y-98104013D01*
X159771905Y-98133515D01*
X159793804Y-98158787D01*
X159884278Y-98297268D01*
X159884283Y-98297273D01*
X159884284Y-98297276D01*
X160010968Y-98434889D01*
X160036760Y-98462906D01*
X160214424Y-98601189D01*
X160214425Y-98601189D01*
X160214427Y-98601191D01*
X160341135Y-98669761D01*
X160412426Y-98708342D01*
X160625365Y-98781444D01*
X160847431Y-98818500D01*
X161072569Y-98818500D01*
X161294635Y-98781444D01*
X161507574Y-98708342D01*
X161705576Y-98601189D01*
X161883240Y-98462906D01*
X162004594Y-98331082D01*
X162035715Y-98297276D01*
X162035715Y-98297275D01*
X162035722Y-98297268D01*
X162126193Y-98158790D01*
X162179338Y-98113437D01*
X162248569Y-98104013D01*
X162311905Y-98133515D01*
X162333804Y-98158787D01*
X162424278Y-98297268D01*
X162424283Y-98297273D01*
X162424284Y-98297276D01*
X162550968Y-98434889D01*
X162576760Y-98462906D01*
X162754424Y-98601189D01*
X162754425Y-98601189D01*
X162754427Y-98601191D01*
X162881135Y-98669761D01*
X162952426Y-98708342D01*
X163165365Y-98781444D01*
X163387431Y-98818500D01*
X163612569Y-98818500D01*
X163834635Y-98781444D01*
X164047574Y-98708342D01*
X164245576Y-98601189D01*
X164423240Y-98462906D01*
X164544594Y-98331082D01*
X164575715Y-98297276D01*
X164575717Y-98297273D01*
X164575722Y-98297268D01*
X164698860Y-98108791D01*
X164789296Y-97902616D01*
X164844564Y-97684368D01*
X164847164Y-97652993D01*
X164863156Y-97460005D01*
X164863156Y-97459994D01*
X164844565Y-97235640D01*
X164844563Y-97235628D01*
X164789296Y-97017385D01*
X164779071Y-96994075D01*
X164698860Y-96811209D01*
X164682706Y-96786484D01*
X164575723Y-96622734D01*
X164575715Y-96622723D01*
X164423243Y-96457097D01*
X164423238Y-96457092D01*
X164245577Y-96318812D01*
X164245572Y-96318808D01*
X164047580Y-96211661D01*
X164047577Y-96211659D01*
X164047574Y-96211658D01*
X164047571Y-96211657D01*
X164047569Y-96211656D01*
X163834637Y-96138556D01*
X163612569Y-96101500D01*
X163387431Y-96101500D01*
X163165362Y-96138556D01*
X162952430Y-96211656D01*
X162952419Y-96211661D01*
X162754427Y-96318808D01*
X162754422Y-96318812D01*
X162576761Y-96457092D01*
X162576756Y-96457097D01*
X162424284Y-96622723D01*
X162424276Y-96622734D01*
X162333808Y-96761206D01*
X162280662Y-96806562D01*
X162211431Y-96815986D01*
X162148095Y-96786484D01*
X162126192Y-96761206D01*
X162035723Y-96622734D01*
X162035715Y-96622723D01*
X161883243Y-96457097D01*
X161883238Y-96457092D01*
X161705577Y-96318812D01*
X161705572Y-96318808D01*
X161507580Y-96211661D01*
X161507577Y-96211659D01*
X161507574Y-96211658D01*
X161507571Y-96211657D01*
X161507569Y-96211656D01*
X161294637Y-96138556D01*
X161072569Y-96101500D01*
X160847431Y-96101500D01*
X160625362Y-96138556D01*
X160412430Y-96211656D01*
X160412419Y-96211661D01*
X160214427Y-96318808D01*
X160214422Y-96318812D01*
X160036761Y-96457092D01*
X160036756Y-96457097D01*
X159884284Y-96622723D01*
X159884276Y-96622734D01*
X159793808Y-96761206D01*
X159740662Y-96806562D01*
X159671431Y-96815986D01*
X159608095Y-96786484D01*
X159586192Y-96761206D01*
X159495723Y-96622734D01*
X159495715Y-96622723D01*
X159343243Y-96457097D01*
X159343238Y-96457092D01*
X159165577Y-96318812D01*
X159165572Y-96318808D01*
X158967580Y-96211661D01*
X158967577Y-96211659D01*
X158967574Y-96211658D01*
X158967571Y-96211657D01*
X158967569Y-96211656D01*
X158754637Y-96138556D01*
X158532569Y-96101500D01*
X158307431Y-96101500D01*
X158085362Y-96138556D01*
X157872430Y-96211656D01*
X157872419Y-96211661D01*
X157674427Y-96318808D01*
X157674422Y-96318812D01*
X157496761Y-96457092D01*
X157496756Y-96457097D01*
X157344284Y-96622723D01*
X157344276Y-96622734D01*
X157253808Y-96761206D01*
X157200662Y-96806562D01*
X157131431Y-96815986D01*
X157068095Y-96786484D01*
X157046192Y-96761206D01*
X156955723Y-96622734D01*
X156955715Y-96622723D01*
X156803243Y-96457097D01*
X156803238Y-96457092D01*
X156625577Y-96318812D01*
X156625572Y-96318808D01*
X156427580Y-96211661D01*
X156427577Y-96211659D01*
X156427574Y-96211658D01*
X156427571Y-96211657D01*
X156427569Y-96211656D01*
X156214637Y-96138556D01*
X155992569Y-96101500D01*
X155767431Y-96101500D01*
X155545362Y-96138556D01*
X155332430Y-96211656D01*
X155332419Y-96211661D01*
X155134427Y-96318808D01*
X155134422Y-96318812D01*
X154956761Y-96457092D01*
X154956756Y-96457097D01*
X154804284Y-96622723D01*
X154804276Y-96622734D01*
X154713808Y-96761206D01*
X154660662Y-96806562D01*
X154591431Y-96815986D01*
X154528095Y-96786484D01*
X154506192Y-96761206D01*
X154415723Y-96622734D01*
X154415715Y-96622723D01*
X154263243Y-96457097D01*
X154263238Y-96457092D01*
X154085577Y-96318812D01*
X154085572Y-96318808D01*
X153887580Y-96211661D01*
X153887577Y-96211659D01*
X153887574Y-96211658D01*
X153887571Y-96211657D01*
X153887569Y-96211656D01*
X153674637Y-96138556D01*
X153452569Y-96101500D01*
X153227431Y-96101500D01*
X153005362Y-96138556D01*
X152792430Y-96211656D01*
X152792419Y-96211661D01*
X152594427Y-96318808D01*
X152594422Y-96318812D01*
X152416761Y-96457092D01*
X152353548Y-96525760D01*
X152293661Y-96561750D01*
X152223823Y-96559649D01*
X152166207Y-96520124D01*
X152146138Y-96485110D01*
X152100889Y-96363796D01*
X152067214Y-96318812D01*
X152013261Y-96246739D01*
X151896204Y-96159111D01*
X151895172Y-96158726D01*
X151759203Y-96108011D01*
X151698654Y-96101500D01*
X151698638Y-96101500D01*
X149901362Y-96101500D01*
X149901345Y-96101500D01*
X149840797Y-96108011D01*
X149840795Y-96108011D01*
X149703795Y-96159111D01*
X149586739Y-96246739D01*
X149499111Y-96363795D01*
X149448011Y-96500795D01*
X149448011Y-96500797D01*
X149441500Y-96561345D01*
X146739212Y-96561345D01*
X146643243Y-96457097D01*
X146643238Y-96457092D01*
X146465577Y-96318812D01*
X146465572Y-96318808D01*
X146267580Y-96211661D01*
X146267577Y-96211659D01*
X146267574Y-96211658D01*
X146267571Y-96211657D01*
X146267569Y-96211656D01*
X146054637Y-96138556D01*
X145832569Y-96101500D01*
X145607431Y-96101500D01*
X145385362Y-96138556D01*
X145172430Y-96211656D01*
X145172419Y-96211661D01*
X144974427Y-96318808D01*
X144974422Y-96318812D01*
X144796761Y-96457092D01*
X144796756Y-96457097D01*
X144644284Y-96622723D01*
X144644276Y-96622734D01*
X144550251Y-96766650D01*
X144497105Y-96812007D01*
X144427873Y-96821430D01*
X144364538Y-96791928D01*
X144344868Y-96769951D01*
X144218113Y-96588926D01*
X144218108Y-96588920D01*
X144051082Y-96421894D01*
X143857578Y-96286399D01*
X143643492Y-96186570D01*
X143643486Y-96186567D01*
X143430000Y-96129364D01*
X143430000Y-97026988D01*
X143372993Y-96994075D01*
X143245826Y-96960000D01*
X143114174Y-96960000D01*
X142987007Y-96994075D01*
X142930000Y-97026988D01*
X142930000Y-96129364D01*
X142929999Y-96129364D01*
X142716513Y-96186567D01*
X142716507Y-96186570D01*
X142502422Y-96286399D01*
X142502420Y-96286400D01*
X142308926Y-96421886D01*
X142308920Y-96421891D01*
X142141891Y-96588920D01*
X142141890Y-96588922D01*
X142011575Y-96775031D01*
X141956998Y-96818655D01*
X141887499Y-96825848D01*
X141825145Y-96794326D01*
X141808425Y-96775031D01*
X141678109Y-96588922D01*
X141678108Y-96588920D01*
X141511082Y-96421894D01*
X141317578Y-96286399D01*
X141103492Y-96186570D01*
X141103486Y-96186567D01*
X140890000Y-96129364D01*
X140890000Y-97026988D01*
X140832993Y-96994075D01*
X140705826Y-96960000D01*
X140574174Y-96960000D01*
X140447007Y-96994075D01*
X140390000Y-97026988D01*
X140390000Y-96129364D01*
X140389999Y-96129364D01*
X140176513Y-96186567D01*
X140176507Y-96186570D01*
X139962422Y-96286399D01*
X139962420Y-96286400D01*
X139768926Y-96421886D01*
X139768920Y-96421891D01*
X139601891Y-96588920D01*
X139601890Y-96588922D01*
X139475131Y-96769952D01*
X139420554Y-96813577D01*
X139351055Y-96820769D01*
X139288701Y-96789247D01*
X139269752Y-96766656D01*
X139175722Y-96622732D01*
X139175715Y-96622725D01*
X139175715Y-96622723D01*
X139023243Y-96457097D01*
X139023238Y-96457092D01*
X138845577Y-96318812D01*
X138845572Y-96318808D01*
X138647580Y-96211661D01*
X138647577Y-96211659D01*
X138647574Y-96211658D01*
X138647571Y-96211657D01*
X138647569Y-96211656D01*
X138434637Y-96138556D01*
X138212569Y-96101500D01*
X137987431Y-96101500D01*
X137765362Y-96138556D01*
X137552430Y-96211656D01*
X137552419Y-96211661D01*
X137354427Y-96318808D01*
X137354422Y-96318812D01*
X137176761Y-96457092D01*
X137176756Y-96457097D01*
X137024284Y-96622723D01*
X137024276Y-96622734D01*
X136933808Y-96761206D01*
X136880662Y-96806562D01*
X136811431Y-96815986D01*
X136748095Y-96786484D01*
X136726192Y-96761206D01*
X136635723Y-96622734D01*
X136635715Y-96622723D01*
X136483243Y-96457097D01*
X136483238Y-96457092D01*
X136305577Y-96318812D01*
X136305572Y-96318808D01*
X136107580Y-96211661D01*
X136107577Y-96211659D01*
X136107574Y-96211658D01*
X136107571Y-96211657D01*
X136107569Y-96211656D01*
X135894637Y-96138556D01*
X135672569Y-96101500D01*
X135447431Y-96101500D01*
X135225362Y-96138556D01*
X135012430Y-96211656D01*
X135012419Y-96211661D01*
X134814427Y-96318808D01*
X134814422Y-96318812D01*
X134636761Y-96457092D01*
X134636756Y-96457097D01*
X134484284Y-96622723D01*
X134484276Y-96622734D01*
X134393808Y-96761206D01*
X134340662Y-96806562D01*
X134271431Y-96815986D01*
X134208095Y-96786484D01*
X134186192Y-96761206D01*
X134095723Y-96622734D01*
X134095715Y-96622723D01*
X133943243Y-96457097D01*
X133943238Y-96457092D01*
X133765577Y-96318812D01*
X133765572Y-96318808D01*
X133567580Y-96211661D01*
X133567577Y-96211659D01*
X133567574Y-96211658D01*
X133567571Y-96211657D01*
X133567569Y-96211656D01*
X133354637Y-96138556D01*
X133132569Y-96101500D01*
X132907431Y-96101500D01*
X132685362Y-96138556D01*
X132472430Y-96211656D01*
X132472419Y-96211661D01*
X132274427Y-96318808D01*
X132274422Y-96318812D01*
X132096761Y-96457092D01*
X132096756Y-96457097D01*
X131944284Y-96622723D01*
X131944276Y-96622734D01*
X131853808Y-96761206D01*
X131800662Y-96806562D01*
X131731431Y-96815986D01*
X131668095Y-96786484D01*
X131646192Y-96761206D01*
X131555723Y-96622734D01*
X131555715Y-96622723D01*
X131403243Y-96457097D01*
X131403238Y-96457092D01*
X131225577Y-96318812D01*
X131225572Y-96318808D01*
X131027580Y-96211661D01*
X131027577Y-96211659D01*
X131027574Y-96211658D01*
X131027571Y-96211657D01*
X131027569Y-96211656D01*
X130814637Y-96138556D01*
X130592569Y-96101500D01*
X130367431Y-96101500D01*
X130145362Y-96138556D01*
X129932430Y-96211656D01*
X129932419Y-96211661D01*
X129734427Y-96318808D01*
X129734422Y-96318812D01*
X129556761Y-96457092D01*
X129493548Y-96525760D01*
X129433661Y-96561750D01*
X129363823Y-96559649D01*
X129306207Y-96520124D01*
X129286138Y-96485110D01*
X129240889Y-96363796D01*
X129207214Y-96318812D01*
X129153261Y-96246739D01*
X129036204Y-96159111D01*
X129035172Y-96158726D01*
X128899203Y-96108011D01*
X128838654Y-96101500D01*
X128838638Y-96101500D01*
X127041362Y-96101500D01*
X127041345Y-96101500D01*
X126980797Y-96108011D01*
X126980795Y-96108011D01*
X126843795Y-96159111D01*
X126726739Y-96246739D01*
X126639111Y-96363795D01*
X126588011Y-96500795D01*
X126588011Y-96500797D01*
X126581500Y-96561345D01*
X100075500Y-96561345D01*
X100075500Y-92299998D01*
X159206807Y-92299998D01*
X159206807Y-92300001D01*
X159225541Y-92514136D01*
X159225542Y-92514144D01*
X159281176Y-92721772D01*
X159281177Y-92721774D01*
X159281178Y-92721777D01*
X159372024Y-92916597D01*
X159372026Y-92916601D01*
X159495319Y-93092682D01*
X159647317Y-93244680D01*
X159823398Y-93367973D01*
X159823400Y-93367974D01*
X159823403Y-93367976D01*
X160018223Y-93458822D01*
X160225858Y-93514458D01*
X160378816Y-93527840D01*
X160439998Y-93533193D01*
X160440000Y-93533193D01*
X160440002Y-93533193D01*
X160493535Y-93528509D01*
X160654142Y-93514458D01*
X160861777Y-93458822D01*
X161056597Y-93367976D01*
X161232681Y-93244681D01*
X161384681Y-93092681D01*
X161507976Y-92916597D01*
X161598822Y-92721777D01*
X161654458Y-92514142D01*
X161673193Y-92300000D01*
X161654458Y-92085858D01*
X161598822Y-91878223D01*
X161507976Y-91683404D01*
X161384681Y-91507319D01*
X161384679Y-91507316D01*
X161232682Y-91355319D01*
X161056601Y-91232026D01*
X161056597Y-91232024D01*
X161056595Y-91232023D01*
X160861777Y-91141178D01*
X160861774Y-91141177D01*
X160861772Y-91141176D01*
X160654144Y-91085542D01*
X160654136Y-91085541D01*
X160440002Y-91066807D01*
X160439998Y-91066807D01*
X160225863Y-91085541D01*
X160225855Y-91085542D01*
X160018227Y-91141176D01*
X160018221Y-91141179D01*
X159823405Y-91232023D01*
X159823403Y-91232024D01*
X159647316Y-91355320D01*
X159495320Y-91507316D01*
X159372024Y-91683403D01*
X159372023Y-91683405D01*
X159281179Y-91878221D01*
X159281176Y-91878227D01*
X159225542Y-92085855D01*
X159225541Y-92085863D01*
X159206807Y-92299998D01*
X100075500Y-92299998D01*
X100075500Y-90170000D01*
X130956835Y-90170000D01*
X130975465Y-90406714D01*
X131030895Y-90637595D01*
X131030895Y-90637597D01*
X131121757Y-90856959D01*
X131121759Y-90856962D01*
X131245820Y-91059410D01*
X131245821Y-91059413D01*
X131298076Y-91120596D01*
X131400031Y-91239969D01*
X131535088Y-91355319D01*
X131580586Y-91394178D01*
X131580588Y-91394178D01*
X131596906Y-91404178D01*
X131783037Y-91518240D01*
X131783040Y-91518242D01*
X132002403Y-91609104D01*
X132002404Y-91609104D01*
X132002406Y-91609105D01*
X132233289Y-91664535D01*
X132470000Y-91683165D01*
X132706711Y-91664535D01*
X132937594Y-91609105D01*
X132937596Y-91609104D01*
X132937597Y-91609104D01*
X133156959Y-91518242D01*
X133156960Y-91518241D01*
X133156963Y-91518240D01*
X133359416Y-91394176D01*
X133539969Y-91239969D01*
X133694176Y-91059416D01*
X133818240Y-90856963D01*
X133833310Y-90820582D01*
X133909104Y-90637597D01*
X133909104Y-90637596D01*
X133909105Y-90637594D01*
X133964535Y-90406711D01*
X133983165Y-90170000D01*
X137456835Y-90170000D01*
X137475465Y-90406714D01*
X137530895Y-90637595D01*
X137530895Y-90637597D01*
X137621757Y-90856959D01*
X137621759Y-90856962D01*
X137745820Y-91059410D01*
X137745821Y-91059413D01*
X137798076Y-91120596D01*
X137900031Y-91239969D01*
X138035088Y-91355319D01*
X138080586Y-91394178D01*
X138080588Y-91394178D01*
X138096906Y-91404178D01*
X138283037Y-91518240D01*
X138283040Y-91518242D01*
X138502403Y-91609104D01*
X138502404Y-91609104D01*
X138502406Y-91609105D01*
X138733289Y-91664535D01*
X138970000Y-91683165D01*
X139206711Y-91664535D01*
X139437594Y-91609105D01*
X139437596Y-91609104D01*
X139437597Y-91609104D01*
X139656959Y-91518242D01*
X139656960Y-91518241D01*
X139656963Y-91518240D01*
X139859416Y-91394176D01*
X140039969Y-91239969D01*
X140194176Y-91059416D01*
X140318240Y-90856963D01*
X140333310Y-90820582D01*
X140409104Y-90637597D01*
X140409104Y-90637596D01*
X140409105Y-90637594D01*
X140464535Y-90406711D01*
X140482378Y-90180000D01*
X144746835Y-90180000D01*
X144765465Y-90416714D01*
X144820895Y-90647595D01*
X144820895Y-90647597D01*
X144911757Y-90866959D01*
X144911759Y-90866962D01*
X145035820Y-91069410D01*
X145035821Y-91069413D01*
X145035824Y-91069416D01*
X145190031Y-91249969D01*
X145313380Y-91355319D01*
X145370586Y-91404178D01*
X145370589Y-91404179D01*
X145573037Y-91528240D01*
X145573040Y-91528242D01*
X145792403Y-91619104D01*
X145792404Y-91619104D01*
X145792406Y-91619105D01*
X146023289Y-91674535D01*
X146260000Y-91693165D01*
X146496711Y-91674535D01*
X146727594Y-91619105D01*
X146727596Y-91619104D01*
X146727597Y-91619104D01*
X146946959Y-91528242D01*
X146946960Y-91528241D01*
X146946963Y-91528240D01*
X147149416Y-91404176D01*
X147329969Y-91249969D01*
X147484176Y-91069416D01*
X147608240Y-90866963D01*
X147624390Y-90827975D01*
X147699104Y-90647597D01*
X147699104Y-90647596D01*
X147699105Y-90647594D01*
X147754535Y-90416711D01*
X147773165Y-90180000D01*
X151246835Y-90180000D01*
X151265465Y-90416714D01*
X151320895Y-90647595D01*
X151320895Y-90647597D01*
X151411757Y-90866959D01*
X151411759Y-90866962D01*
X151535820Y-91069410D01*
X151535821Y-91069413D01*
X151535824Y-91069416D01*
X151690031Y-91249969D01*
X151813380Y-91355319D01*
X151870586Y-91404178D01*
X151870589Y-91404179D01*
X152073037Y-91528240D01*
X152073040Y-91528242D01*
X152292403Y-91619104D01*
X152292404Y-91619104D01*
X152292406Y-91619105D01*
X152523289Y-91674535D01*
X152760000Y-91693165D01*
X152996711Y-91674535D01*
X153227594Y-91619105D01*
X153227596Y-91619104D01*
X153227597Y-91619104D01*
X153446959Y-91528242D01*
X153446960Y-91528241D01*
X153446963Y-91528240D01*
X153649416Y-91404176D01*
X153829969Y-91249969D01*
X153984176Y-91069416D01*
X154108240Y-90866963D01*
X154124390Y-90827975D01*
X154199104Y-90647597D01*
X154199104Y-90647596D01*
X154199105Y-90647594D01*
X154254535Y-90416711D01*
X154273165Y-90180000D01*
X154254535Y-89943289D01*
X154210531Y-89759998D01*
X156666807Y-89759998D01*
X156666807Y-89760001D01*
X156685541Y-89974136D01*
X156685542Y-89974144D01*
X156741176Y-90181772D01*
X156741177Y-90181774D01*
X156741178Y-90181777D01*
X156830032Y-90372325D01*
X156832024Y-90376597D01*
X156832026Y-90376601D01*
X156955319Y-90552682D01*
X157107317Y-90704680D01*
X157283398Y-90827973D01*
X157283400Y-90827974D01*
X157283403Y-90827976D01*
X157478223Y-90918822D01*
X157685858Y-90974458D01*
X157838816Y-90987840D01*
X157899998Y-90993193D01*
X157900000Y-90993193D01*
X157900002Y-90993193D01*
X157953535Y-90988509D01*
X158114142Y-90974458D01*
X158321777Y-90918822D01*
X158516597Y-90827976D01*
X158692681Y-90704681D01*
X158844681Y-90552681D01*
X158967976Y-90376597D01*
X159058822Y-90181777D01*
X159114458Y-89974142D01*
X159133193Y-89760000D01*
X159133193Y-89759997D01*
X161755340Y-89759997D01*
X161755340Y-89760002D01*
X161773944Y-89972654D01*
X161773945Y-89972662D01*
X161829194Y-90178853D01*
X161829197Y-90178859D01*
X161919413Y-90372329D01*
X161958415Y-90428030D01*
X162580000Y-89806445D01*
X162580000Y-89812661D01*
X162607259Y-89914394D01*
X162659920Y-90005606D01*
X162734394Y-90080080D01*
X162825606Y-90132741D01*
X162927339Y-90160000D01*
X162933554Y-90160000D01*
X162311968Y-90781584D01*
X162367663Y-90820582D01*
X162367669Y-90820586D01*
X162561140Y-90910802D01*
X162561146Y-90910805D01*
X162767337Y-90966054D01*
X162767345Y-90966055D01*
X162979998Y-90984660D01*
X162980002Y-90984660D01*
X163192654Y-90966055D01*
X163192662Y-90966054D01*
X163398853Y-90910805D01*
X163398864Y-90910801D01*
X163592325Y-90820589D01*
X163648030Y-90781583D01*
X163026447Y-90160000D01*
X163032661Y-90160000D01*
X163134394Y-90132741D01*
X163225606Y-90080080D01*
X163300080Y-90005606D01*
X163352741Y-89914394D01*
X163380000Y-89812661D01*
X163380000Y-89806446D01*
X164001583Y-90428029D01*
X164040589Y-90372325D01*
X164130801Y-90178864D01*
X164130805Y-90178853D01*
X164186054Y-89972662D01*
X164186055Y-89972654D01*
X164204660Y-89760002D01*
X164204660Y-89759997D01*
X164186055Y-89547345D01*
X164186054Y-89547337D01*
X164130805Y-89341146D01*
X164130802Y-89341140D01*
X164040586Y-89147669D01*
X164040582Y-89147663D01*
X164001584Y-89091968D01*
X163380000Y-89713552D01*
X163380000Y-89707339D01*
X163352741Y-89605606D01*
X163300080Y-89514394D01*
X163225606Y-89439920D01*
X163134394Y-89387259D01*
X163032661Y-89360000D01*
X163026447Y-89360000D01*
X163648030Y-88738415D01*
X163592329Y-88699413D01*
X163398859Y-88609197D01*
X163398853Y-88609194D01*
X163192662Y-88553945D01*
X163192654Y-88553944D01*
X162980002Y-88535340D01*
X162979998Y-88535340D01*
X162767345Y-88553944D01*
X162767337Y-88553945D01*
X162561146Y-88609194D01*
X162561140Y-88609197D01*
X162367671Y-88699412D01*
X162367669Y-88699413D01*
X162311969Y-88738415D01*
X162311968Y-88738415D01*
X162933554Y-89360000D01*
X162927339Y-89360000D01*
X162825606Y-89387259D01*
X162734394Y-89439920D01*
X162659920Y-89514394D01*
X162607259Y-89605606D01*
X162580000Y-89707339D01*
X162580000Y-89713553D01*
X161958415Y-89091968D01*
X161958415Y-89091969D01*
X161919413Y-89147669D01*
X161919412Y-89147671D01*
X161829197Y-89341140D01*
X161829194Y-89341146D01*
X161773945Y-89547337D01*
X161773944Y-89547345D01*
X161755340Y-89759997D01*
X159133193Y-89759997D01*
X159114458Y-89545858D01*
X159058822Y-89338223D01*
X158967976Y-89143404D01*
X158844681Y-88967319D01*
X158844679Y-88967316D01*
X158692682Y-88815319D01*
X158516601Y-88692026D01*
X158516597Y-88692024D01*
X158462579Y-88666835D01*
X158321777Y-88601178D01*
X158321774Y-88601177D01*
X158321772Y-88601176D01*
X158114144Y-88545542D01*
X158114136Y-88545541D01*
X157900002Y-88526807D01*
X157899998Y-88526807D01*
X157685863Y-88545541D01*
X157685855Y-88545542D01*
X157478227Y-88601176D01*
X157478221Y-88601179D01*
X157283405Y-88692023D01*
X157283403Y-88692024D01*
X157107316Y-88815320D01*
X156955320Y-88967316D01*
X156832024Y-89143403D01*
X156832023Y-89143405D01*
X156741179Y-89338221D01*
X156741176Y-89338227D01*
X156685542Y-89545855D01*
X156685541Y-89545863D01*
X156666807Y-89759998D01*
X154210531Y-89759998D01*
X154199105Y-89712406D01*
X154199104Y-89712403D01*
X154199104Y-89712402D01*
X154108242Y-89493040D01*
X154108240Y-89493037D01*
X153984179Y-89290589D01*
X153984178Y-89290586D01*
X153949340Y-89249797D01*
X153829969Y-89110031D01*
X153662875Y-88967319D01*
X153649413Y-88955821D01*
X153649410Y-88955820D01*
X153446962Y-88831759D01*
X153446959Y-88831757D01*
X153227596Y-88740895D01*
X152996714Y-88685465D01*
X152760000Y-88666835D01*
X152523285Y-88685465D01*
X152292404Y-88740895D01*
X152292402Y-88740895D01*
X152073040Y-88831757D01*
X152073037Y-88831759D01*
X151870589Y-88955820D01*
X151870586Y-88955821D01*
X151690031Y-89110031D01*
X151535821Y-89290586D01*
X151535820Y-89290589D01*
X151411759Y-89493037D01*
X151411757Y-89493040D01*
X151320895Y-89712402D01*
X151320895Y-89712404D01*
X151265465Y-89943285D01*
X151246835Y-90180000D01*
X147773165Y-90180000D01*
X147754535Y-89943289D01*
X147699105Y-89712406D01*
X147699104Y-89712403D01*
X147699104Y-89712402D01*
X147608242Y-89493040D01*
X147608240Y-89493037D01*
X147484179Y-89290589D01*
X147484178Y-89290586D01*
X147449340Y-89249797D01*
X147329969Y-89110031D01*
X147162875Y-88967319D01*
X147149413Y-88955821D01*
X147149410Y-88955820D01*
X146946962Y-88831759D01*
X146946959Y-88831757D01*
X146727596Y-88740895D01*
X146496714Y-88685465D01*
X146260000Y-88666835D01*
X146023285Y-88685465D01*
X145792404Y-88740895D01*
X145792402Y-88740895D01*
X145573040Y-88831757D01*
X145573037Y-88831759D01*
X145370589Y-88955820D01*
X145370586Y-88955821D01*
X145190031Y-89110031D01*
X145035821Y-89290586D01*
X145035820Y-89290589D01*
X144911759Y-89493037D01*
X144911757Y-89493040D01*
X144820895Y-89712402D01*
X144820895Y-89712404D01*
X144765465Y-89943285D01*
X144746835Y-90180000D01*
X140482378Y-90180000D01*
X140483165Y-90170000D01*
X140464535Y-89933289D01*
X140409105Y-89702406D01*
X140409104Y-89702403D01*
X140409104Y-89702402D01*
X140318242Y-89483040D01*
X140318240Y-89483037D01*
X140194179Y-89280589D01*
X140194178Y-89280586D01*
X140080657Y-89147671D01*
X140039969Y-89100031D01*
X139920596Y-88998076D01*
X139859413Y-88945821D01*
X139859410Y-88945820D01*
X139656962Y-88821759D01*
X139656959Y-88821757D01*
X139437596Y-88730895D01*
X139206714Y-88675465D01*
X138970000Y-88656835D01*
X138733285Y-88675465D01*
X138502404Y-88730895D01*
X138502402Y-88730895D01*
X138283040Y-88821757D01*
X138283037Y-88821759D01*
X138080589Y-88945820D01*
X138080586Y-88945821D01*
X137900031Y-89100031D01*
X137745821Y-89280586D01*
X137745820Y-89280589D01*
X137621759Y-89483037D01*
X137621757Y-89483040D01*
X137530895Y-89702402D01*
X137530895Y-89702404D01*
X137475465Y-89933285D01*
X137456835Y-90170000D01*
X133983165Y-90170000D01*
X133964535Y-89933289D01*
X133909105Y-89702406D01*
X133909104Y-89702403D01*
X133909104Y-89702402D01*
X133818242Y-89483040D01*
X133818240Y-89483037D01*
X133694179Y-89280589D01*
X133694178Y-89280586D01*
X133580657Y-89147671D01*
X133539969Y-89100031D01*
X133420596Y-88998076D01*
X133359413Y-88945821D01*
X133359410Y-88945820D01*
X133156962Y-88821759D01*
X133156959Y-88821757D01*
X132937596Y-88730895D01*
X132706714Y-88675465D01*
X132470000Y-88656835D01*
X132233285Y-88675465D01*
X132002404Y-88730895D01*
X132002402Y-88730895D01*
X131783040Y-88821757D01*
X131783037Y-88821759D01*
X131580589Y-88945820D01*
X131580586Y-88945821D01*
X131400031Y-89100031D01*
X131245821Y-89280586D01*
X131245820Y-89280589D01*
X131121759Y-89483037D01*
X131121757Y-89483040D01*
X131030895Y-89702402D01*
X131030895Y-89702404D01*
X130975465Y-89933285D01*
X130956835Y-90170000D01*
X100075500Y-90170000D01*
X100075500Y-85670000D01*
X130956835Y-85670000D01*
X130975465Y-85906714D01*
X131030895Y-86137595D01*
X131030895Y-86137597D01*
X131121757Y-86356959D01*
X131121759Y-86356962D01*
X131245820Y-86559410D01*
X131245821Y-86559413D01*
X131298076Y-86620596D01*
X131400031Y-86739969D01*
X131539797Y-86859340D01*
X131580586Y-86894178D01*
X131580588Y-86894178D01*
X131596906Y-86904178D01*
X131783037Y-87018240D01*
X131783040Y-87018242D01*
X132002403Y-87109104D01*
X132002404Y-87109104D01*
X132002406Y-87109105D01*
X132233289Y-87164535D01*
X132470000Y-87183165D01*
X132706711Y-87164535D01*
X132937594Y-87109105D01*
X132937596Y-87109104D01*
X132937597Y-87109104D01*
X133156959Y-87018242D01*
X133156960Y-87018241D01*
X133156963Y-87018240D01*
X133359416Y-86894176D01*
X133539969Y-86739969D01*
X133694176Y-86559416D01*
X133818240Y-86356963D01*
X133904963Y-86147595D01*
X133909104Y-86137597D01*
X133909104Y-86137596D01*
X133909105Y-86137594D01*
X133964535Y-85906711D01*
X133983165Y-85670000D01*
X137456835Y-85670000D01*
X137475465Y-85906714D01*
X137530895Y-86137595D01*
X137530895Y-86137597D01*
X137621757Y-86356959D01*
X137621759Y-86356962D01*
X137745820Y-86559410D01*
X137745821Y-86559413D01*
X137798076Y-86620596D01*
X137900031Y-86739969D01*
X138039797Y-86859340D01*
X138080586Y-86894178D01*
X138080588Y-86894178D01*
X138096906Y-86904178D01*
X138283037Y-87018240D01*
X138283040Y-87018242D01*
X138502403Y-87109104D01*
X138502404Y-87109104D01*
X138502406Y-87109105D01*
X138733289Y-87164535D01*
X138970000Y-87183165D01*
X139206711Y-87164535D01*
X139437594Y-87109105D01*
X139437596Y-87109104D01*
X139437597Y-87109104D01*
X139656959Y-87018242D01*
X139656960Y-87018241D01*
X139656963Y-87018240D01*
X139859416Y-86894176D01*
X140039969Y-86739969D01*
X140194176Y-86559416D01*
X140318240Y-86356963D01*
X140404963Y-86147595D01*
X140409104Y-86137597D01*
X140409104Y-86137596D01*
X140409105Y-86137594D01*
X140464535Y-85906711D01*
X140482378Y-85680000D01*
X144746835Y-85680000D01*
X144765465Y-85916714D01*
X144820895Y-86147595D01*
X144820895Y-86147597D01*
X144911757Y-86366959D01*
X144911759Y-86366962D01*
X145035820Y-86569410D01*
X145035821Y-86569413D01*
X145035824Y-86569416D01*
X145190031Y-86749969D01*
X145329797Y-86869340D01*
X145370586Y-86904178D01*
X145370589Y-86904179D01*
X145573037Y-87028240D01*
X145573040Y-87028242D01*
X145792403Y-87119104D01*
X145792404Y-87119104D01*
X145792406Y-87119105D01*
X146023289Y-87174535D01*
X146260000Y-87193165D01*
X146496711Y-87174535D01*
X146727594Y-87119105D01*
X146727596Y-87119104D01*
X146727597Y-87119104D01*
X146946959Y-87028242D01*
X146946960Y-87028241D01*
X146946963Y-87028240D01*
X147149416Y-86904176D01*
X147329969Y-86749969D01*
X147484176Y-86569416D01*
X147608240Y-86366963D01*
X147699105Y-86147594D01*
X147754535Y-85916711D01*
X147773165Y-85680000D01*
X151246835Y-85680000D01*
X151265465Y-85916714D01*
X151320895Y-86147595D01*
X151320895Y-86147597D01*
X151411757Y-86366959D01*
X151411759Y-86366962D01*
X151535820Y-86569410D01*
X151535821Y-86569413D01*
X151535824Y-86569416D01*
X151690031Y-86749969D01*
X151829797Y-86869340D01*
X151870586Y-86904178D01*
X151870589Y-86904179D01*
X152073037Y-87028240D01*
X152073040Y-87028242D01*
X152292403Y-87119104D01*
X152292404Y-87119104D01*
X152292406Y-87119105D01*
X152523289Y-87174535D01*
X152760000Y-87193165D01*
X152996711Y-87174535D01*
X153227594Y-87119105D01*
X153227596Y-87119104D01*
X153227597Y-87119104D01*
X153446959Y-87028242D01*
X153446960Y-87028241D01*
X153446963Y-87028240D01*
X153649416Y-86904176D01*
X153829969Y-86749969D01*
X153984176Y-86569416D01*
X154108240Y-86366963D01*
X154199105Y-86147594D01*
X154254535Y-85916711D01*
X154273165Y-85680000D01*
X154254535Y-85443289D01*
X154199105Y-85212406D01*
X154199104Y-85212403D01*
X154199104Y-85212402D01*
X154108242Y-84993040D01*
X154108240Y-84993037D01*
X153984179Y-84790589D01*
X153984178Y-84790586D01*
X153949340Y-84749797D01*
X153829969Y-84610031D01*
X153710596Y-84508076D01*
X153649413Y-84455821D01*
X153649410Y-84455820D01*
X153446962Y-84331759D01*
X153446959Y-84331757D01*
X153227596Y-84240895D01*
X152996714Y-84185465D01*
X152760000Y-84166835D01*
X152523285Y-84185465D01*
X152292404Y-84240895D01*
X152292402Y-84240895D01*
X152073040Y-84331757D01*
X152073037Y-84331759D01*
X151870589Y-84455820D01*
X151870586Y-84455821D01*
X151690031Y-84610031D01*
X151535821Y-84790586D01*
X151535820Y-84790589D01*
X151411759Y-84993037D01*
X151411757Y-84993040D01*
X151320895Y-85212402D01*
X151320895Y-85212404D01*
X151265465Y-85443285D01*
X151246835Y-85680000D01*
X147773165Y-85680000D01*
X147754535Y-85443289D01*
X147699105Y-85212406D01*
X147699104Y-85212403D01*
X147699104Y-85212402D01*
X147608242Y-84993040D01*
X147608240Y-84993037D01*
X147484179Y-84790589D01*
X147484178Y-84790586D01*
X147449340Y-84749797D01*
X147329969Y-84610031D01*
X147210596Y-84508076D01*
X147149413Y-84455821D01*
X147149410Y-84455820D01*
X146946962Y-84331759D01*
X146946959Y-84331757D01*
X146727596Y-84240895D01*
X146496714Y-84185465D01*
X146260000Y-84166835D01*
X146023285Y-84185465D01*
X145792404Y-84240895D01*
X145792402Y-84240895D01*
X145573040Y-84331757D01*
X145573037Y-84331759D01*
X145370589Y-84455820D01*
X145370586Y-84455821D01*
X145190031Y-84610031D01*
X145035821Y-84790586D01*
X145035820Y-84790589D01*
X144911759Y-84993037D01*
X144911757Y-84993040D01*
X144820895Y-85212402D01*
X144820895Y-85212404D01*
X144765465Y-85443285D01*
X144746835Y-85680000D01*
X140482378Y-85680000D01*
X140483165Y-85670000D01*
X140464535Y-85433289D01*
X140409105Y-85202406D01*
X140409104Y-85202403D01*
X140409104Y-85202402D01*
X140318242Y-84983040D01*
X140318240Y-84983037D01*
X140194179Y-84780589D01*
X140194178Y-84780586D01*
X140159340Y-84739797D01*
X140039969Y-84600031D01*
X139920596Y-84498076D01*
X139859413Y-84445821D01*
X139859410Y-84445820D01*
X139656962Y-84321759D01*
X139656959Y-84321757D01*
X139437596Y-84230895D01*
X139206714Y-84175465D01*
X138970000Y-84156835D01*
X138733285Y-84175465D01*
X138502404Y-84230895D01*
X138502402Y-84230895D01*
X138283040Y-84321757D01*
X138283037Y-84321759D01*
X138080589Y-84445820D01*
X138080586Y-84445821D01*
X137900031Y-84600031D01*
X137745821Y-84780586D01*
X137745820Y-84780589D01*
X137621759Y-84983037D01*
X137621757Y-84983040D01*
X137530895Y-85202402D01*
X137530895Y-85202404D01*
X137475465Y-85433285D01*
X137456835Y-85670000D01*
X133983165Y-85670000D01*
X133964535Y-85433289D01*
X133909105Y-85202406D01*
X133909104Y-85202403D01*
X133909104Y-85202402D01*
X133818242Y-84983040D01*
X133818240Y-84983037D01*
X133694179Y-84780589D01*
X133694178Y-84780586D01*
X133659340Y-84739797D01*
X133539969Y-84600031D01*
X133420596Y-84498076D01*
X133359413Y-84445821D01*
X133359410Y-84445820D01*
X133156962Y-84321759D01*
X133156959Y-84321757D01*
X132937596Y-84230895D01*
X132706714Y-84175465D01*
X132470000Y-84156835D01*
X132233285Y-84175465D01*
X132002404Y-84230895D01*
X132002402Y-84230895D01*
X131783040Y-84321757D01*
X131783037Y-84321759D01*
X131580589Y-84445820D01*
X131580586Y-84445821D01*
X131400031Y-84600031D01*
X131245821Y-84780586D01*
X131245820Y-84780589D01*
X131121759Y-84983037D01*
X131121757Y-84983040D01*
X131030895Y-85202402D01*
X131030895Y-85202404D01*
X130975465Y-85433285D01*
X130956835Y-85670000D01*
X100075500Y-85670000D01*
X100075500Y-81959998D01*
X129506502Y-81959998D01*
X129506502Y-81960001D01*
X129526456Y-82188081D01*
X129526457Y-82188089D01*
X129585714Y-82409238D01*
X129585718Y-82409249D01*
X129618357Y-82479243D01*
X129682477Y-82616749D01*
X129813802Y-82804300D01*
X129975700Y-82966198D01*
X130163251Y-83097523D01*
X130288091Y-83155736D01*
X130370750Y-83194281D01*
X130370752Y-83194281D01*
X130370757Y-83194284D01*
X130591913Y-83253543D01*
X130754832Y-83267796D01*
X130819998Y-83273498D01*
X130820000Y-83273498D01*
X130820002Y-83273498D01*
X130877021Y-83268509D01*
X131048087Y-83253543D01*
X131269243Y-83194284D01*
X131476749Y-83097523D01*
X131664300Y-82966198D01*
X131826198Y-82804300D01*
X131957523Y-82616749D01*
X132054284Y-82409243D01*
X132113543Y-82188087D01*
X132133498Y-81960000D01*
X132113543Y-81731913D01*
X132107671Y-81709999D01*
X139701127Y-81709999D01*
X139701128Y-81710000D01*
X140664314Y-81710000D01*
X140659920Y-81714394D01*
X140607259Y-81805606D01*
X140580000Y-81907339D01*
X140580000Y-82012661D01*
X140607259Y-82114394D01*
X140659920Y-82205606D01*
X140664314Y-82210000D01*
X139701128Y-82210000D01*
X139753730Y-82406317D01*
X139753734Y-82406326D01*
X139849865Y-82612482D01*
X139980342Y-82798820D01*
X140141179Y-82959657D01*
X140327517Y-83090134D01*
X140533673Y-83186265D01*
X140533682Y-83186269D01*
X140729999Y-83238872D01*
X140730000Y-83238871D01*
X140730000Y-82275686D01*
X140734394Y-82280080D01*
X140825606Y-82332741D01*
X140927339Y-82360000D01*
X141032661Y-82360000D01*
X141134394Y-82332741D01*
X141225606Y-82280080D01*
X141230000Y-82275686D01*
X141230000Y-83238872D01*
X141426317Y-83186269D01*
X141426326Y-83186265D01*
X141632482Y-83090134D01*
X141818820Y-82959657D01*
X141979657Y-82798820D01*
X142110134Y-82612482D01*
X142206265Y-82406326D01*
X142206269Y-82406317D01*
X142258872Y-82210000D01*
X141295686Y-82210000D01*
X141300080Y-82205606D01*
X141352741Y-82114394D01*
X141375355Y-82029998D01*
X143156502Y-82029998D01*
X143156502Y-82030001D01*
X143176456Y-82258081D01*
X143176457Y-82258089D01*
X143235714Y-82479238D01*
X143235718Y-82479249D01*
X143330487Y-82682482D01*
X143332477Y-82686749D01*
X143463802Y-82874300D01*
X143625700Y-83036198D01*
X143813251Y-83167523D01*
X143870641Y-83194284D01*
X144020750Y-83264281D01*
X144020752Y-83264281D01*
X144020757Y-83264284D01*
X144241913Y-83323543D01*
X144404832Y-83337796D01*
X144469998Y-83343498D01*
X144470000Y-83343498D01*
X144470002Y-83343498D01*
X144527021Y-83338509D01*
X144698087Y-83323543D01*
X144919243Y-83264284D01*
X145126749Y-83167523D01*
X145314300Y-83036198D01*
X145476198Y-82874300D01*
X145607523Y-82686749D01*
X145704284Y-82479243D01*
X145763543Y-82258087D01*
X145783498Y-82030000D01*
X145763543Y-81801913D01*
X145757671Y-81779999D01*
X153351127Y-81779999D01*
X153351128Y-81780000D01*
X154314314Y-81780000D01*
X154309920Y-81784394D01*
X154257259Y-81875606D01*
X154230000Y-81977339D01*
X154230000Y-82082661D01*
X154257259Y-82184394D01*
X154309920Y-82275606D01*
X154314314Y-82280000D01*
X153351128Y-82280000D01*
X153403730Y-82476317D01*
X153403734Y-82476326D01*
X153499865Y-82682482D01*
X153630342Y-82868820D01*
X153791179Y-83029657D01*
X153977517Y-83160134D01*
X154183673Y-83256265D01*
X154183682Y-83256269D01*
X154379999Y-83308872D01*
X154380000Y-83308871D01*
X154380000Y-82345686D01*
X154384394Y-82350080D01*
X154475606Y-82402741D01*
X154577339Y-82430000D01*
X154682661Y-82430000D01*
X154784394Y-82402741D01*
X154875606Y-82350080D01*
X154880000Y-82345686D01*
X154880000Y-83308872D01*
X155076317Y-83256269D01*
X155076326Y-83256265D01*
X155282482Y-83160134D01*
X155468820Y-83029657D01*
X155629657Y-82868820D01*
X155760134Y-82682482D01*
X155856265Y-82476326D01*
X155856269Y-82476317D01*
X155908872Y-82280000D01*
X154945686Y-82280000D01*
X154950080Y-82275606D01*
X155002741Y-82184394D01*
X155030000Y-82082661D01*
X155030000Y-81977339D01*
X155002741Y-81875606D01*
X154950080Y-81784394D01*
X154945686Y-81780000D01*
X155908872Y-81780000D01*
X155908872Y-81779999D01*
X155856269Y-81583682D01*
X155856265Y-81583673D01*
X155760134Y-81377517D01*
X155629657Y-81191179D01*
X155468820Y-81030342D01*
X155282482Y-80899865D01*
X155076328Y-80803734D01*
X154880000Y-80751127D01*
X154880000Y-81714314D01*
X154875606Y-81709920D01*
X154784394Y-81657259D01*
X154682661Y-81630000D01*
X154577339Y-81630000D01*
X154475606Y-81657259D01*
X154384394Y-81709920D01*
X154380000Y-81714314D01*
X154380000Y-80751127D01*
X154183671Y-80803734D01*
X153977517Y-80899865D01*
X153791179Y-81030342D01*
X153630342Y-81191179D01*
X153499865Y-81377517D01*
X153403734Y-81583673D01*
X153403730Y-81583682D01*
X153351127Y-81779999D01*
X145757671Y-81779999D01*
X145704284Y-81580757D01*
X145607523Y-81373251D01*
X145476198Y-81185700D01*
X145314300Y-81023802D01*
X145126749Y-80892477D01*
X145126745Y-80892475D01*
X144919249Y-80795718D01*
X144919238Y-80795714D01*
X144698089Y-80736457D01*
X144698081Y-80736456D01*
X144470002Y-80716502D01*
X144469998Y-80716502D01*
X144241918Y-80736456D01*
X144241910Y-80736457D01*
X144020761Y-80795714D01*
X144020750Y-80795718D01*
X143813254Y-80892475D01*
X143813252Y-80892476D01*
X143813251Y-80892477D01*
X143625700Y-81023802D01*
X143625698Y-81023803D01*
X143625695Y-81023806D01*
X143463806Y-81185695D01*
X143332476Y-81373252D01*
X143332475Y-81373254D01*
X143235718Y-81580750D01*
X143235714Y-81580761D01*
X143176457Y-81801910D01*
X143176456Y-81801918D01*
X143156502Y-82029998D01*
X141375355Y-82029998D01*
X141380000Y-82012661D01*
X141380000Y-81907339D01*
X141352741Y-81805606D01*
X141300080Y-81714394D01*
X141295686Y-81710000D01*
X142258872Y-81710000D01*
X142258872Y-81709999D01*
X142206269Y-81513682D01*
X142206265Y-81513673D01*
X142110134Y-81307517D01*
X141979657Y-81121179D01*
X141818820Y-80960342D01*
X141632482Y-80829865D01*
X141426328Y-80733734D01*
X141230000Y-80681127D01*
X141230000Y-81644314D01*
X141225606Y-81639920D01*
X141134394Y-81587259D01*
X141032661Y-81560000D01*
X140927339Y-81560000D01*
X140825606Y-81587259D01*
X140734394Y-81639920D01*
X140730000Y-81644314D01*
X140730000Y-80681127D01*
X140533671Y-80733734D01*
X140327517Y-80829865D01*
X140141179Y-80960342D01*
X139980342Y-81121179D01*
X139849865Y-81307517D01*
X139753734Y-81513673D01*
X139753730Y-81513682D01*
X139701127Y-81709999D01*
X132107671Y-81709999D01*
X132054284Y-81510757D01*
X131957523Y-81303251D01*
X131826198Y-81115700D01*
X131664300Y-80953802D01*
X131476749Y-80822477D01*
X131476745Y-80822475D01*
X131269249Y-80725718D01*
X131269238Y-80725714D01*
X131048089Y-80666457D01*
X131048081Y-80666456D01*
X130820002Y-80646502D01*
X130819998Y-80646502D01*
X130591918Y-80666456D01*
X130591910Y-80666457D01*
X130370761Y-80725714D01*
X130370750Y-80725718D01*
X130163254Y-80822475D01*
X130163252Y-80822476D01*
X130163251Y-80822477D01*
X129975700Y-80953802D01*
X129975698Y-80953803D01*
X129975695Y-80953806D01*
X129813806Y-81115695D01*
X129813803Y-81115698D01*
X129813802Y-81115700D01*
X129760951Y-81191179D01*
X129682476Y-81303252D01*
X129682475Y-81303254D01*
X129585718Y-81510750D01*
X129585714Y-81510761D01*
X129526457Y-81731910D01*
X129526456Y-81731918D01*
X129506502Y-81959998D01*
X100075500Y-81959998D01*
X100075500Y-78360000D01*
X156516835Y-78360000D01*
X156535465Y-78596714D01*
X156590895Y-78827595D01*
X156590895Y-78827597D01*
X156681757Y-79046959D01*
X156681759Y-79046962D01*
X156805820Y-79249410D01*
X156805821Y-79249413D01*
X156805824Y-79249416D01*
X156960031Y-79429969D01*
X157099797Y-79549340D01*
X157140586Y-79584178D01*
X157140589Y-79584179D01*
X157343037Y-79708240D01*
X157343040Y-79708242D01*
X157562403Y-79799104D01*
X157562404Y-79799104D01*
X157562406Y-79799105D01*
X157793289Y-79854535D01*
X158030000Y-79873165D01*
X158266711Y-79854535D01*
X158497594Y-79799105D01*
X158497596Y-79799104D01*
X158497597Y-79799104D01*
X158716959Y-79708242D01*
X158716960Y-79708241D01*
X158716963Y-79708240D01*
X158919416Y-79584176D01*
X159099969Y-79429969D01*
X159254176Y-79249416D01*
X159378240Y-79046963D01*
X159469105Y-78827594D01*
X159524535Y-78596711D01*
X159543165Y-78360000D01*
X163016835Y-78360000D01*
X163035465Y-78596714D01*
X163090895Y-78827595D01*
X163090895Y-78827597D01*
X163181757Y-79046959D01*
X163181759Y-79046962D01*
X163305820Y-79249410D01*
X163305821Y-79249413D01*
X163305824Y-79249416D01*
X163460031Y-79429969D01*
X163599797Y-79549340D01*
X163640586Y-79584178D01*
X163640589Y-79584179D01*
X163843037Y-79708240D01*
X163843040Y-79708242D01*
X164062403Y-79799104D01*
X164062404Y-79799104D01*
X164062406Y-79799105D01*
X164293289Y-79854535D01*
X164530000Y-79873165D01*
X164766711Y-79854535D01*
X164997594Y-79799105D01*
X164997596Y-79799104D01*
X164997597Y-79799104D01*
X165216959Y-79708242D01*
X165216960Y-79708241D01*
X165216963Y-79708240D01*
X165419416Y-79584176D01*
X165599969Y-79429969D01*
X165754176Y-79249416D01*
X165878240Y-79046963D01*
X165969105Y-78827594D01*
X166024535Y-78596711D01*
X166043165Y-78360000D01*
X166024535Y-78123289D01*
X165969105Y-77892406D01*
X165969104Y-77892403D01*
X165969104Y-77892402D01*
X165878242Y-77673040D01*
X165878240Y-77673037D01*
X165754179Y-77470589D01*
X165754178Y-77470586D01*
X165719340Y-77429797D01*
X165599969Y-77290031D01*
X165480596Y-77188076D01*
X165419413Y-77135821D01*
X165419410Y-77135820D01*
X165216962Y-77011759D01*
X165216959Y-77011757D01*
X164997596Y-76920895D01*
X164766714Y-76865465D01*
X164530000Y-76846835D01*
X164293285Y-76865465D01*
X164062404Y-76920895D01*
X164062402Y-76920895D01*
X163843040Y-77011757D01*
X163843037Y-77011759D01*
X163640589Y-77135820D01*
X163640586Y-77135821D01*
X163460031Y-77290031D01*
X163305821Y-77470586D01*
X163305820Y-77470589D01*
X163181759Y-77673037D01*
X163181757Y-77673040D01*
X163090895Y-77892402D01*
X163090895Y-77892404D01*
X163035465Y-78123285D01*
X163016835Y-78360000D01*
X159543165Y-78360000D01*
X159524535Y-78123289D01*
X159469105Y-77892406D01*
X159469104Y-77892403D01*
X159469104Y-77892402D01*
X159378242Y-77673040D01*
X159378240Y-77673037D01*
X159254179Y-77470589D01*
X159254178Y-77470586D01*
X159219340Y-77429797D01*
X159099969Y-77290031D01*
X158980596Y-77188076D01*
X158919413Y-77135821D01*
X158919410Y-77135820D01*
X158716962Y-77011759D01*
X158716959Y-77011757D01*
X158497596Y-76920895D01*
X158266714Y-76865465D01*
X158030000Y-76846835D01*
X157793285Y-76865465D01*
X157562404Y-76920895D01*
X157562402Y-76920895D01*
X157343040Y-77011757D01*
X157343037Y-77011759D01*
X157140589Y-77135820D01*
X157140586Y-77135821D01*
X156960031Y-77290031D01*
X156805821Y-77470586D01*
X156805820Y-77470589D01*
X156681759Y-77673037D01*
X156681757Y-77673040D01*
X156590895Y-77892402D01*
X156590895Y-77892404D01*
X156535465Y-78123285D01*
X156516835Y-78360000D01*
X100075500Y-78360000D01*
X100075500Y-75140000D01*
X130146835Y-75140000D01*
X130165465Y-75376714D01*
X130220895Y-75607595D01*
X130220895Y-75607597D01*
X130311757Y-75826959D01*
X130311759Y-75826962D01*
X130435820Y-76029410D01*
X130435821Y-76029413D01*
X130435824Y-76029416D01*
X130590031Y-76209969D01*
X130729797Y-76329340D01*
X130770586Y-76364178D01*
X130770589Y-76364179D01*
X130973037Y-76488240D01*
X130973040Y-76488242D01*
X131192403Y-76579104D01*
X131192404Y-76579104D01*
X131192406Y-76579105D01*
X131423289Y-76634535D01*
X131660000Y-76653165D01*
X131896711Y-76634535D01*
X132127594Y-76579105D01*
X132127596Y-76579104D01*
X132127597Y-76579104D01*
X132346959Y-76488242D01*
X132346960Y-76488241D01*
X132346963Y-76488240D01*
X132549416Y-76364176D01*
X132729969Y-76209969D01*
X132884176Y-76029416D01*
X133008240Y-75826963D01*
X133079810Y-75654178D01*
X133099104Y-75607597D01*
X133099104Y-75607596D01*
X133099105Y-75607594D01*
X133154535Y-75376711D01*
X133173165Y-75140000D01*
X136646835Y-75140000D01*
X136665465Y-75376714D01*
X136720895Y-75607595D01*
X136720895Y-75607597D01*
X136811757Y-75826959D01*
X136811759Y-75826962D01*
X136935820Y-76029410D01*
X136935821Y-76029413D01*
X136935824Y-76029416D01*
X137090031Y-76209969D01*
X137229797Y-76329340D01*
X137270586Y-76364178D01*
X137270589Y-76364179D01*
X137473037Y-76488240D01*
X137473040Y-76488242D01*
X137692403Y-76579104D01*
X137692404Y-76579104D01*
X137692406Y-76579105D01*
X137923289Y-76634535D01*
X138160000Y-76653165D01*
X138396711Y-76634535D01*
X138627594Y-76579105D01*
X138627596Y-76579104D01*
X138627597Y-76579104D01*
X138846959Y-76488242D01*
X138846960Y-76488241D01*
X138846963Y-76488240D01*
X139049416Y-76364176D01*
X139229969Y-76209969D01*
X139384176Y-76029416D01*
X139508240Y-75826963D01*
X139579810Y-75654178D01*
X139599104Y-75607597D01*
X139599104Y-75607596D01*
X139599105Y-75607594D01*
X139654535Y-75376711D01*
X139673165Y-75140000D01*
X139654535Y-74903289D01*
X139599105Y-74672406D01*
X139599104Y-74672403D01*
X139599104Y-74672402D01*
X139508242Y-74453040D01*
X139508240Y-74453037D01*
X139494123Y-74430000D01*
X143886835Y-74430000D01*
X143905465Y-74666714D01*
X143960895Y-74897595D01*
X143960895Y-74897597D01*
X144051757Y-75116959D01*
X144051759Y-75116962D01*
X144175820Y-75319410D01*
X144175821Y-75319413D01*
X144205818Y-75354535D01*
X144330031Y-75499969D01*
X144456044Y-75607594D01*
X144510586Y-75654178D01*
X144510589Y-75654179D01*
X144713037Y-75778240D01*
X144713040Y-75778242D01*
X144932403Y-75869104D01*
X144932404Y-75869104D01*
X144932406Y-75869105D01*
X145163289Y-75924535D01*
X145400000Y-75943165D01*
X145636711Y-75924535D01*
X145867594Y-75869105D01*
X145867596Y-75869104D01*
X145867597Y-75869104D01*
X146086959Y-75778242D01*
X146086960Y-75778241D01*
X146086963Y-75778240D01*
X146289416Y-75654176D01*
X146469969Y-75499969D01*
X146624176Y-75319416D01*
X146748240Y-75116963D01*
X146761820Y-75084179D01*
X146839104Y-74897597D01*
X146839104Y-74897596D01*
X146839105Y-74897594D01*
X146894535Y-74666711D01*
X146913165Y-74430000D01*
X150386835Y-74430000D01*
X150405465Y-74666714D01*
X150460895Y-74897595D01*
X150460895Y-74897597D01*
X150551757Y-75116959D01*
X150551759Y-75116962D01*
X150675820Y-75319410D01*
X150675821Y-75319413D01*
X150705818Y-75354535D01*
X150830031Y-75499969D01*
X150956044Y-75607594D01*
X151010586Y-75654178D01*
X151010589Y-75654179D01*
X151213037Y-75778240D01*
X151213040Y-75778242D01*
X151432403Y-75869104D01*
X151432404Y-75869104D01*
X151432406Y-75869105D01*
X151663289Y-75924535D01*
X151900000Y-75943165D01*
X152136711Y-75924535D01*
X152367594Y-75869105D01*
X152367596Y-75869104D01*
X152367597Y-75869104D01*
X152586959Y-75778242D01*
X152586960Y-75778241D01*
X152586963Y-75778240D01*
X152789416Y-75654176D01*
X152969969Y-75499969D01*
X153124176Y-75319416D01*
X153248240Y-75116963D01*
X153261820Y-75084179D01*
X153339104Y-74897597D01*
X153339104Y-74897596D01*
X153339105Y-74897594D01*
X153394535Y-74666711D01*
X153413165Y-74430000D01*
X153394535Y-74193289D01*
X153339105Y-73962406D01*
X153339104Y-73962403D01*
X153339104Y-73962402D01*
X153296688Y-73860000D01*
X156516835Y-73860000D01*
X156535465Y-74096714D01*
X156590895Y-74327595D01*
X156590895Y-74327597D01*
X156681757Y-74546959D01*
X156681759Y-74546962D01*
X156805820Y-74749410D01*
X156805821Y-74749413D01*
X156805824Y-74749416D01*
X156960031Y-74929969D01*
X157099797Y-75049340D01*
X157140586Y-75084178D01*
X157140589Y-75084179D01*
X157343037Y-75208240D01*
X157343040Y-75208242D01*
X157562403Y-75299104D01*
X157562404Y-75299104D01*
X157562406Y-75299105D01*
X157793289Y-75354535D01*
X158030000Y-75373165D01*
X158266711Y-75354535D01*
X158497594Y-75299105D01*
X158497596Y-75299104D01*
X158497597Y-75299104D01*
X158716959Y-75208242D01*
X158716960Y-75208241D01*
X158716963Y-75208240D01*
X158919416Y-75084176D01*
X159099969Y-74929969D01*
X159254176Y-74749416D01*
X159378240Y-74546963D01*
X159426688Y-74430000D01*
X159469104Y-74327597D01*
X159469104Y-74327596D01*
X159469105Y-74327594D01*
X159524535Y-74096711D01*
X159543165Y-73860000D01*
X163016835Y-73860000D01*
X163035465Y-74096714D01*
X163090895Y-74327595D01*
X163090895Y-74327597D01*
X163181757Y-74546959D01*
X163181759Y-74546962D01*
X163305820Y-74749410D01*
X163305821Y-74749413D01*
X163305824Y-74749416D01*
X163460031Y-74929969D01*
X163599797Y-75049340D01*
X163640586Y-75084178D01*
X163640589Y-75084179D01*
X163843037Y-75208240D01*
X163843040Y-75208242D01*
X164062403Y-75299104D01*
X164062404Y-75299104D01*
X164062406Y-75299105D01*
X164293289Y-75354535D01*
X164530000Y-75373165D01*
X164766711Y-75354535D01*
X164997594Y-75299105D01*
X164997596Y-75299104D01*
X164997597Y-75299104D01*
X165216959Y-75208242D01*
X165216960Y-75208241D01*
X165216963Y-75208240D01*
X165419416Y-75084176D01*
X165599969Y-74929969D01*
X165754176Y-74749416D01*
X165878240Y-74546963D01*
X165926688Y-74430000D01*
X165969104Y-74327597D01*
X165969104Y-74327596D01*
X165969105Y-74327594D01*
X166024535Y-74096711D01*
X166043165Y-73860000D01*
X166024535Y-73623289D01*
X165969105Y-73392406D01*
X165969104Y-73392403D01*
X165969104Y-73392402D01*
X165878242Y-73173040D01*
X165878240Y-73173037D01*
X165754179Y-72970589D01*
X165754178Y-72970586D01*
X165691335Y-72897007D01*
X165599969Y-72790031D01*
X165480596Y-72688076D01*
X165419413Y-72635821D01*
X165419410Y-72635820D01*
X165216962Y-72511759D01*
X165216959Y-72511757D01*
X164997596Y-72420895D01*
X164766714Y-72365465D01*
X164530000Y-72346835D01*
X164293285Y-72365465D01*
X164062404Y-72420895D01*
X164062402Y-72420895D01*
X163843040Y-72511757D01*
X163843037Y-72511759D01*
X163640589Y-72635820D01*
X163640586Y-72635821D01*
X163460031Y-72790031D01*
X163305821Y-72970586D01*
X163305820Y-72970589D01*
X163181759Y-73173037D01*
X163181757Y-73173040D01*
X163090895Y-73392402D01*
X163090895Y-73392404D01*
X163035465Y-73623285D01*
X163016835Y-73860000D01*
X159543165Y-73860000D01*
X159524535Y-73623289D01*
X159469105Y-73392406D01*
X159469104Y-73392403D01*
X159469104Y-73392402D01*
X159378242Y-73173040D01*
X159378240Y-73173037D01*
X159254179Y-72970589D01*
X159254178Y-72970586D01*
X159191335Y-72897007D01*
X159099969Y-72790031D01*
X158980596Y-72688076D01*
X158919413Y-72635821D01*
X158919410Y-72635820D01*
X158716962Y-72511759D01*
X158716959Y-72511757D01*
X158497596Y-72420895D01*
X158266714Y-72365465D01*
X158030000Y-72346835D01*
X157793285Y-72365465D01*
X157562404Y-72420895D01*
X157562402Y-72420895D01*
X157343040Y-72511757D01*
X157343037Y-72511759D01*
X157140589Y-72635820D01*
X157140586Y-72635821D01*
X156960031Y-72790031D01*
X156805821Y-72970586D01*
X156805820Y-72970589D01*
X156681759Y-73173037D01*
X156681757Y-73173040D01*
X156590895Y-73392402D01*
X156590895Y-73392404D01*
X156535465Y-73623285D01*
X156516835Y-73860000D01*
X153296688Y-73860000D01*
X153248242Y-73743040D01*
X153248240Y-73743037D01*
X153174858Y-73623289D01*
X153124178Y-73540588D01*
X153124178Y-73540586D01*
X153070319Y-73477526D01*
X152969969Y-73360031D01*
X152828017Y-73238792D01*
X152789413Y-73205821D01*
X152789410Y-73205820D01*
X152586962Y-73081759D01*
X152586959Y-73081757D01*
X152367596Y-72990895D01*
X152136714Y-72935465D01*
X151900000Y-72916835D01*
X151663285Y-72935465D01*
X151432404Y-72990895D01*
X151432402Y-72990895D01*
X151213040Y-73081757D01*
X151213037Y-73081759D01*
X151010589Y-73205820D01*
X151010586Y-73205821D01*
X150830031Y-73360031D01*
X150675821Y-73540586D01*
X150675820Y-73540589D01*
X150551759Y-73743037D01*
X150551757Y-73743040D01*
X150460895Y-73962402D01*
X150460895Y-73962404D01*
X150405465Y-74193285D01*
X150386835Y-74430000D01*
X146913165Y-74430000D01*
X146894535Y-74193289D01*
X146839105Y-73962406D01*
X146839104Y-73962403D01*
X146839104Y-73962402D01*
X146748242Y-73743040D01*
X146748240Y-73743037D01*
X146674858Y-73623289D01*
X146624178Y-73540588D01*
X146624178Y-73540586D01*
X146570319Y-73477526D01*
X146469969Y-73360031D01*
X146328017Y-73238792D01*
X146289413Y-73205821D01*
X146289410Y-73205820D01*
X146086962Y-73081759D01*
X146086959Y-73081757D01*
X145867596Y-72990895D01*
X145636714Y-72935465D01*
X145400000Y-72916835D01*
X145163285Y-72935465D01*
X144932404Y-72990895D01*
X144932402Y-72990895D01*
X144713040Y-73081757D01*
X144713037Y-73081759D01*
X144510589Y-73205820D01*
X144510586Y-73205821D01*
X144330031Y-73360031D01*
X144175821Y-73540586D01*
X144175820Y-73540589D01*
X144051759Y-73743037D01*
X144051757Y-73743040D01*
X143960895Y-73962402D01*
X143960895Y-73962404D01*
X143905465Y-74193285D01*
X143886835Y-74430000D01*
X139494123Y-74430000D01*
X139384179Y-74250589D01*
X139384178Y-74250586D01*
X139252758Y-74096714D01*
X139229969Y-74070031D01*
X139110596Y-73968076D01*
X139049413Y-73915821D01*
X139049410Y-73915820D01*
X138846962Y-73791759D01*
X138846959Y-73791757D01*
X138627596Y-73700895D01*
X138396714Y-73645465D01*
X138160000Y-73626835D01*
X137923285Y-73645465D01*
X137692404Y-73700895D01*
X137692402Y-73700895D01*
X137473040Y-73791757D01*
X137473037Y-73791759D01*
X137270589Y-73915820D01*
X137270586Y-73915821D01*
X137090031Y-74070031D01*
X136935821Y-74250586D01*
X136935820Y-74250589D01*
X136811759Y-74453037D01*
X136811757Y-74453040D01*
X136720895Y-74672402D01*
X136720895Y-74672404D01*
X136665465Y-74903285D01*
X136646835Y-75140000D01*
X133173165Y-75140000D01*
X133154535Y-74903289D01*
X133099105Y-74672406D01*
X133099104Y-74672403D01*
X133099104Y-74672402D01*
X133008242Y-74453040D01*
X133008240Y-74453037D01*
X132884179Y-74250589D01*
X132884178Y-74250586D01*
X132752758Y-74096714D01*
X132729969Y-74070031D01*
X132610596Y-73968076D01*
X132549413Y-73915821D01*
X132549410Y-73915820D01*
X132346962Y-73791759D01*
X132346959Y-73791757D01*
X132127596Y-73700895D01*
X131896714Y-73645465D01*
X131660000Y-73626835D01*
X131423285Y-73645465D01*
X131192404Y-73700895D01*
X131192402Y-73700895D01*
X130973040Y-73791757D01*
X130973037Y-73791759D01*
X130770589Y-73915820D01*
X130770586Y-73915821D01*
X130590031Y-74070031D01*
X130435821Y-74250586D01*
X130435820Y-74250589D01*
X130311759Y-74453037D01*
X130311757Y-74453040D01*
X130220895Y-74672402D01*
X130220895Y-74672404D01*
X130165465Y-74903285D01*
X130146835Y-75140000D01*
X100075500Y-75140000D01*
X100075500Y-71692155D01*
X109260000Y-71692155D01*
X109260000Y-72340000D01*
X110176988Y-72340000D01*
X110144075Y-72397007D01*
X110110000Y-72524174D01*
X110110000Y-72655826D01*
X110144075Y-72782993D01*
X110176988Y-72840000D01*
X109260000Y-72840000D01*
X109260000Y-73487844D01*
X109266401Y-73547372D01*
X109266403Y-73547379D01*
X109316645Y-73682086D01*
X109316649Y-73682093D01*
X109402809Y-73797187D01*
X109402812Y-73797190D01*
X109517906Y-73883350D01*
X109517913Y-73883354D01*
X109652620Y-73933596D01*
X109652627Y-73933598D01*
X109712155Y-73939999D01*
X109712172Y-73940000D01*
X110360000Y-73940000D01*
X110360000Y-73023012D01*
X110417007Y-73055925D01*
X110544174Y-73090000D01*
X110675826Y-73090000D01*
X110802993Y-73055925D01*
X110860000Y-73023012D01*
X110860000Y-73940000D01*
X111507828Y-73940000D01*
X111507844Y-73939999D01*
X111567372Y-73933598D01*
X111567379Y-73933596D01*
X111702086Y-73883354D01*
X111702093Y-73883350D01*
X111817187Y-73797190D01*
X111817190Y-73797187D01*
X111903350Y-73682093D01*
X111903354Y-73682086D01*
X111949681Y-73557877D01*
X111991552Y-73501943D01*
X112057016Y-73477526D01*
X112125289Y-73492377D01*
X112157089Y-73517223D01*
X112226760Y-73592906D01*
X112404424Y-73731189D01*
X112404425Y-73731189D01*
X112404427Y-73731191D01*
X112516344Y-73791757D01*
X112602426Y-73838342D01*
X112815365Y-73911444D01*
X113037431Y-73948500D01*
X113262569Y-73948500D01*
X113484635Y-73911444D01*
X113697574Y-73838342D01*
X113895576Y-73731189D01*
X114073240Y-73592906D01*
X114225722Y-73427268D01*
X114316193Y-73288790D01*
X114369338Y-73243437D01*
X114438569Y-73234013D01*
X114501905Y-73263515D01*
X114523804Y-73288787D01*
X114614278Y-73427268D01*
X114614283Y-73427273D01*
X114614284Y-73427276D01*
X114766756Y-73592902D01*
X114766761Y-73592907D01*
X114805796Y-73623289D01*
X114944424Y-73731189D01*
X114944425Y-73731189D01*
X114944427Y-73731191D01*
X115056344Y-73791757D01*
X115142426Y-73838342D01*
X115355365Y-73911444D01*
X115577431Y-73948500D01*
X115802569Y-73948500D01*
X116024635Y-73911444D01*
X116237574Y-73838342D01*
X116435576Y-73731189D01*
X116613240Y-73592906D01*
X116765722Y-73427268D01*
X116856193Y-73288790D01*
X116909338Y-73243437D01*
X116978569Y-73234013D01*
X117041905Y-73263515D01*
X117063804Y-73288787D01*
X117154278Y-73427268D01*
X117154283Y-73427273D01*
X117154284Y-73427276D01*
X117306756Y-73592902D01*
X117306761Y-73592907D01*
X117345796Y-73623289D01*
X117484424Y-73731189D01*
X117484425Y-73731189D01*
X117484427Y-73731191D01*
X117596344Y-73791757D01*
X117682426Y-73838342D01*
X117895365Y-73911444D01*
X118117431Y-73948500D01*
X118342569Y-73948500D01*
X118564635Y-73911444D01*
X118777574Y-73838342D01*
X118975576Y-73731189D01*
X119153240Y-73592906D01*
X119305722Y-73427268D01*
X119428860Y-73238791D01*
X119519296Y-73032616D01*
X119574564Y-72814368D01*
X119577164Y-72782993D01*
X119593156Y-72590005D01*
X119593156Y-72589994D01*
X119574565Y-72365640D01*
X119574563Y-72365628D01*
X119520760Y-72153165D01*
X119519296Y-72147384D01*
X119428860Y-71941209D01*
X119412706Y-71916484D01*
X119305723Y-71752734D01*
X119305715Y-71752723D01*
X119153243Y-71587097D01*
X119153238Y-71587092D01*
X118975577Y-71448812D01*
X118975572Y-71448808D01*
X118777580Y-71341661D01*
X118777577Y-71341659D01*
X118777574Y-71341658D01*
X118777571Y-71341657D01*
X118777569Y-71341656D01*
X118564637Y-71268556D01*
X118342569Y-71231500D01*
X118117431Y-71231500D01*
X117895362Y-71268556D01*
X117682430Y-71341656D01*
X117682419Y-71341661D01*
X117484427Y-71448808D01*
X117484422Y-71448812D01*
X117306761Y-71587092D01*
X117306756Y-71587097D01*
X117154284Y-71752723D01*
X117154276Y-71752734D01*
X117063808Y-71891206D01*
X117010662Y-71936562D01*
X116941431Y-71945986D01*
X116878095Y-71916484D01*
X116856192Y-71891206D01*
X116765723Y-71752734D01*
X116765715Y-71752723D01*
X116613243Y-71587097D01*
X116613238Y-71587092D01*
X116435577Y-71448812D01*
X116435572Y-71448808D01*
X116237580Y-71341661D01*
X116237577Y-71341659D01*
X116237574Y-71341658D01*
X116237571Y-71341657D01*
X116237569Y-71341656D01*
X116024637Y-71268556D01*
X115802569Y-71231500D01*
X115577431Y-71231500D01*
X115355362Y-71268556D01*
X115142430Y-71341656D01*
X115142419Y-71341661D01*
X114944427Y-71448808D01*
X114944422Y-71448812D01*
X114766761Y-71587092D01*
X114766756Y-71587097D01*
X114614284Y-71752723D01*
X114614276Y-71752734D01*
X114523808Y-71891206D01*
X114470662Y-71936562D01*
X114401431Y-71945986D01*
X114338095Y-71916484D01*
X114316192Y-71891206D01*
X114225723Y-71752734D01*
X114225715Y-71752723D01*
X114073243Y-71587097D01*
X114073238Y-71587092D01*
X113895577Y-71448812D01*
X113895572Y-71448808D01*
X113697580Y-71341661D01*
X113697577Y-71341659D01*
X113697574Y-71341658D01*
X113697571Y-71341657D01*
X113697569Y-71341656D01*
X113484637Y-71268556D01*
X113262569Y-71231500D01*
X113037431Y-71231500D01*
X112815362Y-71268556D01*
X112602430Y-71341656D01*
X112602419Y-71341661D01*
X112404427Y-71448808D01*
X112404422Y-71448812D01*
X112226761Y-71587092D01*
X112157092Y-71662773D01*
X112097205Y-71698763D01*
X112027367Y-71696662D01*
X111969751Y-71657137D01*
X111949681Y-71622122D01*
X111903354Y-71497913D01*
X111903350Y-71497906D01*
X111817190Y-71382812D01*
X111817187Y-71382809D01*
X111702093Y-71296649D01*
X111702086Y-71296645D01*
X111567379Y-71246403D01*
X111567372Y-71246401D01*
X111507844Y-71240000D01*
X110860000Y-71240000D01*
X110860000Y-72156988D01*
X110802993Y-72124075D01*
X110675826Y-72090000D01*
X110544174Y-72090000D01*
X110417007Y-72124075D01*
X110360000Y-72156988D01*
X110360000Y-71240000D01*
X109712155Y-71240000D01*
X109652627Y-71246401D01*
X109652620Y-71246403D01*
X109517913Y-71296645D01*
X109517906Y-71296649D01*
X109402812Y-71382809D01*
X109402809Y-71382812D01*
X109316649Y-71497906D01*
X109316645Y-71497913D01*
X109266403Y-71632620D01*
X109266401Y-71632627D01*
X109260000Y-71692155D01*
X100075500Y-71692155D01*
X100075500Y-70640000D01*
X130146835Y-70640000D01*
X130165465Y-70876714D01*
X130220895Y-71107595D01*
X130220895Y-71107597D01*
X130311757Y-71326959D01*
X130311759Y-71326962D01*
X130435820Y-71529410D01*
X130435821Y-71529413D01*
X130435824Y-71529416D01*
X130590031Y-71709969D01*
X130729797Y-71829340D01*
X130770586Y-71864178D01*
X130770588Y-71864178D01*
X130888707Y-71936562D01*
X130973037Y-71988240D01*
X130973040Y-71988242D01*
X131192403Y-72079104D01*
X131192404Y-72079104D01*
X131192406Y-72079105D01*
X131423289Y-72134535D01*
X131660000Y-72153165D01*
X131896711Y-72134535D01*
X132127594Y-72079105D01*
X132127596Y-72079104D01*
X132127597Y-72079104D01*
X132346959Y-71988242D01*
X132346960Y-71988241D01*
X132346963Y-71988240D01*
X132549416Y-71864176D01*
X132729969Y-71709969D01*
X132884176Y-71529416D01*
X133008240Y-71326963D01*
X133020797Y-71296649D01*
X133099104Y-71107597D01*
X133099104Y-71107596D01*
X133099105Y-71107594D01*
X133154535Y-70876711D01*
X133173165Y-70640000D01*
X136646835Y-70640000D01*
X136665465Y-70876714D01*
X136720895Y-71107595D01*
X136720895Y-71107597D01*
X136811757Y-71326959D01*
X136811759Y-71326962D01*
X136935820Y-71529410D01*
X136935821Y-71529413D01*
X136935824Y-71529416D01*
X137090031Y-71709969D01*
X137229797Y-71829340D01*
X137270586Y-71864178D01*
X137270588Y-71864178D01*
X137388707Y-71936562D01*
X137473037Y-71988240D01*
X137473040Y-71988242D01*
X137692403Y-72079104D01*
X137692404Y-72079104D01*
X137692406Y-72079105D01*
X137923289Y-72134535D01*
X138160000Y-72153165D01*
X138396711Y-72134535D01*
X138627594Y-72079105D01*
X138627596Y-72079104D01*
X138627597Y-72079104D01*
X138846959Y-71988242D01*
X138846960Y-71988241D01*
X138846963Y-71988240D01*
X139049416Y-71864176D01*
X139229969Y-71709969D01*
X139384176Y-71529416D01*
X139508240Y-71326963D01*
X139520797Y-71296649D01*
X139599104Y-71107597D01*
X139599104Y-71107596D01*
X139599105Y-71107594D01*
X139654535Y-70876711D01*
X139673165Y-70640000D01*
X139654535Y-70403289D01*
X139599105Y-70172406D01*
X139599104Y-70172403D01*
X139599104Y-70172402D01*
X139508242Y-69953040D01*
X139508240Y-69953037D01*
X139494123Y-69930000D01*
X143886835Y-69930000D01*
X143905465Y-70166714D01*
X143960895Y-70397595D01*
X143960895Y-70397597D01*
X144051757Y-70616959D01*
X144051759Y-70616962D01*
X144175820Y-70819410D01*
X144175821Y-70819413D01*
X144224759Y-70876711D01*
X144330031Y-70999969D01*
X144456044Y-71107594D01*
X144510586Y-71154178D01*
X144510589Y-71154179D01*
X144713037Y-71278240D01*
X144713040Y-71278242D01*
X144932403Y-71369104D01*
X144932404Y-71369104D01*
X144932406Y-71369105D01*
X145163289Y-71424535D01*
X145400000Y-71443165D01*
X145636711Y-71424535D01*
X145867594Y-71369105D01*
X145867596Y-71369104D01*
X145867597Y-71369104D01*
X146086959Y-71278242D01*
X146086960Y-71278241D01*
X146086963Y-71278240D01*
X146289416Y-71154176D01*
X146469969Y-70999969D01*
X146624176Y-70819416D01*
X146748240Y-70616963D01*
X146763551Y-70580000D01*
X146839104Y-70397597D01*
X146839104Y-70397596D01*
X146839105Y-70397594D01*
X146894535Y-70166711D01*
X146913165Y-69930000D01*
X150386835Y-69930000D01*
X150405465Y-70166714D01*
X150460895Y-70397595D01*
X150460895Y-70397597D01*
X150551757Y-70616959D01*
X150551759Y-70616962D01*
X150675820Y-70819410D01*
X150675821Y-70819413D01*
X150724759Y-70876711D01*
X150830031Y-70999969D01*
X150956044Y-71107594D01*
X151010586Y-71154178D01*
X151010589Y-71154179D01*
X151213037Y-71278240D01*
X151213040Y-71278242D01*
X151432403Y-71369104D01*
X151432404Y-71369104D01*
X151432406Y-71369105D01*
X151663289Y-71424535D01*
X151900000Y-71443165D01*
X152136711Y-71424535D01*
X152367594Y-71369105D01*
X152367596Y-71369104D01*
X152367597Y-71369104D01*
X152586959Y-71278242D01*
X152586960Y-71278241D01*
X152586963Y-71278240D01*
X152789416Y-71154176D01*
X152969969Y-70999969D01*
X153124176Y-70819416D01*
X153248240Y-70616963D01*
X153263551Y-70580000D01*
X153339104Y-70397597D01*
X153339104Y-70397596D01*
X153339105Y-70397594D01*
X153391345Y-70179998D01*
X154836502Y-70179998D01*
X154836502Y-70180001D01*
X154856456Y-70408081D01*
X154856457Y-70408089D01*
X154915714Y-70629238D01*
X154915718Y-70629249D01*
X155010487Y-70832482D01*
X155012477Y-70836749D01*
X155143802Y-71024300D01*
X155305700Y-71186198D01*
X155493251Y-71317523D01*
X155603868Y-71369104D01*
X155700750Y-71414281D01*
X155700752Y-71414281D01*
X155700757Y-71414284D01*
X155921913Y-71473543D01*
X156084832Y-71487796D01*
X156149998Y-71493498D01*
X156150000Y-71493498D01*
X156150002Y-71493498D01*
X156207021Y-71488509D01*
X156378087Y-71473543D01*
X156599243Y-71414284D01*
X156806749Y-71317523D01*
X156994300Y-71186198D01*
X157156198Y-71024300D01*
X157287523Y-70836749D01*
X157384284Y-70629243D01*
X157443543Y-70408087D01*
X157463498Y-70180000D01*
X157462833Y-70172404D01*
X157449990Y-70025606D01*
X157443543Y-69951913D01*
X157437671Y-69929999D01*
X165031127Y-69929999D01*
X165031128Y-69930000D01*
X165994314Y-69930000D01*
X165989920Y-69934394D01*
X165937259Y-70025606D01*
X165910000Y-70127339D01*
X165910000Y-70232661D01*
X165937259Y-70334394D01*
X165989920Y-70425606D01*
X165994314Y-70430000D01*
X165031128Y-70430000D01*
X165083730Y-70626317D01*
X165083734Y-70626326D01*
X165179865Y-70832482D01*
X165310342Y-71018820D01*
X165471179Y-71179657D01*
X165657517Y-71310134D01*
X165863673Y-71406265D01*
X165863682Y-71406269D01*
X166059999Y-71458872D01*
X166060000Y-71458871D01*
X166060000Y-70495686D01*
X166064394Y-70500080D01*
X166155606Y-70552741D01*
X166257339Y-70580000D01*
X166362661Y-70580000D01*
X166464394Y-70552741D01*
X166555606Y-70500080D01*
X166560000Y-70495686D01*
X166560000Y-71458872D01*
X166756317Y-71406269D01*
X166756326Y-71406265D01*
X166962482Y-71310134D01*
X167148820Y-71179657D01*
X167309657Y-71018820D01*
X167440134Y-70832482D01*
X167536265Y-70626326D01*
X167536269Y-70626317D01*
X167588872Y-70430000D01*
X166625686Y-70430000D01*
X166630080Y-70425606D01*
X166682741Y-70334394D01*
X166710000Y-70232661D01*
X166710000Y-70127339D01*
X166682741Y-70025606D01*
X166630080Y-69934394D01*
X166625686Y-69930000D01*
X167588872Y-69930000D01*
X167588872Y-69929999D01*
X167536269Y-69733682D01*
X167536265Y-69733673D01*
X167440134Y-69527517D01*
X167309657Y-69341179D01*
X167148820Y-69180342D01*
X166962482Y-69049865D01*
X166756328Y-68953734D01*
X166560000Y-68901127D01*
X166560000Y-69864314D01*
X166555606Y-69859920D01*
X166464394Y-69807259D01*
X166362661Y-69780000D01*
X166257339Y-69780000D01*
X166155606Y-69807259D01*
X166064394Y-69859920D01*
X166060000Y-69864314D01*
X166060000Y-68901127D01*
X165863671Y-68953734D01*
X165657517Y-69049865D01*
X165471179Y-69180342D01*
X165310342Y-69341179D01*
X165179865Y-69527517D01*
X165083734Y-69733673D01*
X165083730Y-69733682D01*
X165031127Y-69929999D01*
X157437671Y-69929999D01*
X157384284Y-69730757D01*
X157366812Y-69693289D01*
X157345736Y-69648091D01*
X157287523Y-69523251D01*
X157156198Y-69335700D01*
X156994300Y-69173802D01*
X156806749Y-69042477D01*
X156802694Y-69040586D01*
X156599249Y-68945718D01*
X156599238Y-68945714D01*
X156378089Y-68886457D01*
X156378081Y-68886456D01*
X156150002Y-68866502D01*
X156149998Y-68866502D01*
X155921918Y-68886456D01*
X155921910Y-68886457D01*
X155700761Y-68945714D01*
X155700750Y-68945718D01*
X155493254Y-69042475D01*
X155493252Y-69042476D01*
X155493251Y-69042477D01*
X155305700Y-69173802D01*
X155305698Y-69173803D01*
X155305695Y-69173806D01*
X155143806Y-69335695D01*
X155143803Y-69335698D01*
X155143802Y-69335700D01*
X155061767Y-69452856D01*
X155012476Y-69523252D01*
X155012475Y-69523254D01*
X154915718Y-69730750D01*
X154915714Y-69730761D01*
X154856457Y-69951910D01*
X154856456Y-69951918D01*
X154836502Y-70179998D01*
X153391345Y-70179998D01*
X153394535Y-70166711D01*
X153413165Y-69930000D01*
X153394535Y-69693289D01*
X153339105Y-69462406D01*
X153339104Y-69462403D01*
X153339104Y-69462402D01*
X153248242Y-69243040D01*
X153248240Y-69243037D01*
X153205815Y-69173806D01*
X153124178Y-69040588D01*
X153124178Y-69040586D01*
X153049999Y-68953734D01*
X152969969Y-68860031D01*
X152850596Y-68758076D01*
X152789413Y-68705821D01*
X152789410Y-68705820D01*
X152586962Y-68581759D01*
X152586959Y-68581757D01*
X152367596Y-68490895D01*
X152136714Y-68435465D01*
X151900000Y-68416835D01*
X151663285Y-68435465D01*
X151432404Y-68490895D01*
X151432402Y-68490895D01*
X151213040Y-68581757D01*
X151213037Y-68581759D01*
X151010589Y-68705820D01*
X151010586Y-68705821D01*
X150830031Y-68860031D01*
X150675821Y-69040586D01*
X150675820Y-69040589D01*
X150551759Y-69243037D01*
X150551757Y-69243040D01*
X150460895Y-69462402D01*
X150460895Y-69462404D01*
X150405465Y-69693285D01*
X150386835Y-69930000D01*
X146913165Y-69930000D01*
X146894535Y-69693289D01*
X146839105Y-69462406D01*
X146839104Y-69462403D01*
X146839104Y-69462402D01*
X146748242Y-69243040D01*
X146748240Y-69243037D01*
X146705815Y-69173806D01*
X146624178Y-69040588D01*
X146624178Y-69040586D01*
X146549999Y-68953734D01*
X146469969Y-68860031D01*
X146350596Y-68758076D01*
X146289413Y-68705821D01*
X146289410Y-68705820D01*
X146086962Y-68581759D01*
X146086959Y-68581757D01*
X145867596Y-68490895D01*
X145636714Y-68435465D01*
X145400000Y-68416835D01*
X145163285Y-68435465D01*
X144932404Y-68490895D01*
X144932402Y-68490895D01*
X144713040Y-68581757D01*
X144713037Y-68581759D01*
X144510589Y-68705820D01*
X144510586Y-68705821D01*
X144330031Y-68860031D01*
X144175821Y-69040586D01*
X144175820Y-69040589D01*
X144051759Y-69243037D01*
X144051757Y-69243040D01*
X143960895Y-69462402D01*
X143960895Y-69462404D01*
X143905465Y-69693285D01*
X143886835Y-69930000D01*
X139494123Y-69930000D01*
X139384179Y-69750589D01*
X139384178Y-69750586D01*
X139335238Y-69693285D01*
X139229969Y-69570031D01*
X139110596Y-69468076D01*
X139049413Y-69415821D01*
X139049410Y-69415820D01*
X138846962Y-69291759D01*
X138846959Y-69291757D01*
X138627596Y-69200895D01*
X138396714Y-69145465D01*
X138160000Y-69126835D01*
X137923285Y-69145465D01*
X137692404Y-69200895D01*
X137692402Y-69200895D01*
X137473040Y-69291757D01*
X137473037Y-69291759D01*
X137270589Y-69415820D01*
X137270586Y-69415821D01*
X137090031Y-69570031D01*
X136935821Y-69750586D01*
X136935820Y-69750589D01*
X136811759Y-69953037D01*
X136811757Y-69953040D01*
X136720895Y-70172402D01*
X136720895Y-70172404D01*
X136665465Y-70403285D01*
X136646835Y-70640000D01*
X133173165Y-70640000D01*
X133154535Y-70403289D01*
X133099105Y-70172406D01*
X133099104Y-70172403D01*
X133099104Y-70172402D01*
X133008242Y-69953040D01*
X133008240Y-69953037D01*
X132884179Y-69750589D01*
X132884178Y-69750586D01*
X132835238Y-69693285D01*
X132729969Y-69570031D01*
X132610596Y-69468076D01*
X132549413Y-69415821D01*
X132549410Y-69415820D01*
X132346962Y-69291759D01*
X132346959Y-69291757D01*
X132127596Y-69200895D01*
X131896714Y-69145465D01*
X131660000Y-69126835D01*
X131423285Y-69145465D01*
X131192404Y-69200895D01*
X131192402Y-69200895D01*
X130973040Y-69291757D01*
X130973037Y-69291759D01*
X130770589Y-69415820D01*
X130770586Y-69415821D01*
X130590031Y-69570031D01*
X130435821Y-69750586D01*
X130435820Y-69750589D01*
X130311759Y-69953037D01*
X130311757Y-69953040D01*
X130220895Y-70172402D01*
X130220895Y-70172404D01*
X130165465Y-70403285D01*
X130146835Y-70640000D01*
X100075500Y-70640000D01*
X100075500Y-66339999D01*
X128821127Y-66339999D01*
X128821128Y-66340000D01*
X129784314Y-66340000D01*
X129779920Y-66344394D01*
X129727259Y-66435606D01*
X129700000Y-66537339D01*
X129700000Y-66642661D01*
X129727259Y-66744394D01*
X129779920Y-66835606D01*
X129784314Y-66840000D01*
X128821128Y-66840000D01*
X128873730Y-67036317D01*
X128873734Y-67036326D01*
X128969865Y-67242482D01*
X129100342Y-67428820D01*
X129261179Y-67589657D01*
X129447517Y-67720134D01*
X129653673Y-67816265D01*
X129653682Y-67816269D01*
X129849999Y-67868872D01*
X129850000Y-67868871D01*
X129850000Y-66905686D01*
X129854394Y-66910080D01*
X129945606Y-66962741D01*
X130047339Y-66990000D01*
X130152661Y-66990000D01*
X130254394Y-66962741D01*
X130345606Y-66910080D01*
X130350000Y-66905686D01*
X130350000Y-67868872D01*
X130546317Y-67816269D01*
X130546326Y-67816265D01*
X130752482Y-67720134D01*
X130938820Y-67589657D01*
X131099657Y-67428820D01*
X131230134Y-67242482D01*
X131326265Y-67036326D01*
X131326269Y-67036317D01*
X131378872Y-66840000D01*
X130415686Y-66840000D01*
X130420080Y-66835606D01*
X130472741Y-66744394D01*
X130500000Y-66642661D01*
X130500000Y-66589998D01*
X138946502Y-66589998D01*
X138946502Y-66590001D01*
X138966456Y-66818081D01*
X138966457Y-66818089D01*
X139025714Y-67039238D01*
X139025718Y-67039249D01*
X139103599Y-67206265D01*
X139122477Y-67246749D01*
X139253802Y-67434300D01*
X139415700Y-67596198D01*
X139603251Y-67727523D01*
X139728091Y-67785736D01*
X139810750Y-67824281D01*
X139810752Y-67824281D01*
X139810757Y-67824284D01*
X140031913Y-67883543D01*
X140194832Y-67897796D01*
X140259998Y-67903498D01*
X140260000Y-67903498D01*
X140260002Y-67903498D01*
X140317021Y-67898509D01*
X140488087Y-67883543D01*
X140709243Y-67824284D01*
X140916749Y-67727523D01*
X141104300Y-67596198D01*
X141266198Y-67434300D01*
X141397523Y-67246749D01*
X141494284Y-67039243D01*
X141553543Y-66818087D01*
X141573498Y-66590000D01*
X141553543Y-66361913D01*
X141494284Y-66140757D01*
X141397523Y-65933251D01*
X141266198Y-65745700D01*
X141250497Y-65729999D01*
X142581127Y-65729999D01*
X142581128Y-65730000D01*
X143544314Y-65730000D01*
X143539920Y-65734394D01*
X143487259Y-65825606D01*
X143460000Y-65927339D01*
X143460000Y-66032661D01*
X143487259Y-66134394D01*
X143539920Y-66225606D01*
X143544314Y-66230000D01*
X142581128Y-66230000D01*
X142633730Y-66426317D01*
X142633734Y-66426326D01*
X142729865Y-66632482D01*
X142860342Y-66818820D01*
X143021179Y-66979657D01*
X143207517Y-67110134D01*
X143413673Y-67206265D01*
X143413682Y-67206269D01*
X143609999Y-67258872D01*
X143610000Y-67258871D01*
X143610000Y-66295686D01*
X143614394Y-66300080D01*
X143705606Y-66352741D01*
X143807339Y-66380000D01*
X143912661Y-66380000D01*
X144014394Y-66352741D01*
X144105606Y-66300080D01*
X144110000Y-66295686D01*
X144110000Y-67258872D01*
X144306317Y-67206269D01*
X144306326Y-67206265D01*
X144512482Y-67110134D01*
X144698820Y-66979657D01*
X144859657Y-66818820D01*
X144990134Y-66632482D01*
X145086265Y-66426326D01*
X145086269Y-66426317D01*
X145138872Y-66230000D01*
X144175686Y-66230000D01*
X144180080Y-66225606D01*
X144232741Y-66134394D01*
X144260000Y-66032661D01*
X144260000Y-65979998D01*
X152706502Y-65979998D01*
X152706502Y-65980001D01*
X152726456Y-66208081D01*
X152726457Y-66208089D01*
X152785714Y-66429238D01*
X152785718Y-66429249D01*
X152860678Y-66590001D01*
X152882477Y-66636749D01*
X153013802Y-66824300D01*
X153175700Y-66986198D01*
X153363251Y-67117523D01*
X153488091Y-67175736D01*
X153570750Y-67214281D01*
X153570752Y-67214281D01*
X153570757Y-67214284D01*
X153791913Y-67273543D01*
X153954832Y-67287796D01*
X154019998Y-67293498D01*
X154020000Y-67293498D01*
X154020002Y-67293498D01*
X154077021Y-67288509D01*
X154248087Y-67273543D01*
X154469243Y-67214284D01*
X154676749Y-67117523D01*
X154864300Y-66986198D01*
X155026198Y-66824300D01*
X155157523Y-66636749D01*
X155254284Y-66429243D01*
X155313543Y-66208087D01*
X155333498Y-65980000D01*
X155313543Y-65751913D01*
X155254284Y-65530757D01*
X155253303Y-65528654D01*
X155176400Y-65363734D01*
X155157523Y-65323251D01*
X155026198Y-65135700D01*
X154864300Y-64973802D01*
X154676749Y-64842477D01*
X154676745Y-64842475D01*
X154469249Y-64745718D01*
X154469238Y-64745714D01*
X154248089Y-64686457D01*
X154248081Y-64686456D01*
X154020002Y-64666502D01*
X154019998Y-64666502D01*
X153791918Y-64686456D01*
X153791910Y-64686457D01*
X153570761Y-64745714D01*
X153570750Y-64745718D01*
X153363254Y-64842475D01*
X153363252Y-64842476D01*
X153292856Y-64891767D01*
X153175700Y-64973802D01*
X153175698Y-64973803D01*
X153175695Y-64973806D01*
X153013806Y-65135695D01*
X152882476Y-65323252D01*
X152882475Y-65323254D01*
X152785718Y-65530750D01*
X152785714Y-65530761D01*
X152726457Y-65751910D01*
X152726456Y-65751918D01*
X152706502Y-65979998D01*
X144260000Y-65979998D01*
X144260000Y-65927339D01*
X144232741Y-65825606D01*
X144180080Y-65734394D01*
X144175686Y-65730000D01*
X145138872Y-65730000D01*
X145138872Y-65729999D01*
X145086269Y-65533682D01*
X145086265Y-65533673D01*
X144990134Y-65327517D01*
X144859657Y-65141179D01*
X144698820Y-64980342D01*
X144512482Y-64849865D01*
X144306328Y-64753734D01*
X144110000Y-64701127D01*
X144110000Y-65664314D01*
X144105606Y-65659920D01*
X144014394Y-65607259D01*
X143912661Y-65580000D01*
X143807339Y-65580000D01*
X143705606Y-65607259D01*
X143614394Y-65659920D01*
X143610000Y-65664314D01*
X143610000Y-64701127D01*
X143413671Y-64753734D01*
X143207517Y-64849865D01*
X143021179Y-64980342D01*
X142860342Y-65141179D01*
X142729865Y-65327517D01*
X142633734Y-65533673D01*
X142633730Y-65533682D01*
X142581127Y-65729999D01*
X141250497Y-65729999D01*
X141104300Y-65583802D01*
X140916749Y-65452477D01*
X140916745Y-65452475D01*
X140709249Y-65355718D01*
X140709238Y-65355714D01*
X140488089Y-65296457D01*
X140488081Y-65296456D01*
X140260002Y-65276502D01*
X140259998Y-65276502D01*
X140031918Y-65296456D01*
X140031910Y-65296457D01*
X139810761Y-65355714D01*
X139810750Y-65355718D01*
X139603254Y-65452475D01*
X139603252Y-65452476D01*
X139582127Y-65467268D01*
X139415700Y-65583802D01*
X139415698Y-65583803D01*
X139415695Y-65583806D01*
X139253806Y-65745695D01*
X139253803Y-65745698D01*
X139253802Y-65745700D01*
X139235953Y-65771191D01*
X139122476Y-65933252D01*
X139122475Y-65933254D01*
X139025718Y-66140750D01*
X139025714Y-66140761D01*
X138966457Y-66361910D01*
X138966456Y-66361918D01*
X138946502Y-66589998D01*
X130500000Y-66589998D01*
X130500000Y-66537339D01*
X130472741Y-66435606D01*
X130420080Y-66344394D01*
X130415686Y-66340000D01*
X131378872Y-66340000D01*
X131378872Y-66339999D01*
X131326269Y-66143682D01*
X131326265Y-66143673D01*
X131230134Y-65937517D01*
X131099657Y-65751179D01*
X130938820Y-65590342D01*
X130752482Y-65459865D01*
X130546328Y-65363734D01*
X130350000Y-65311127D01*
X130350000Y-66274314D01*
X130345606Y-66269920D01*
X130254394Y-66217259D01*
X130152661Y-66190000D01*
X130047339Y-66190000D01*
X129945606Y-66217259D01*
X129854394Y-66269920D01*
X129850000Y-66274314D01*
X129850000Y-65311127D01*
X129653671Y-65363734D01*
X129447517Y-65459865D01*
X129261179Y-65590342D01*
X129100342Y-65751179D01*
X128969865Y-65937517D01*
X128873734Y-66143673D01*
X128873730Y-66143682D01*
X128821127Y-66339999D01*
X100075500Y-66339999D01*
X100075500Y-63731345D01*
X105341500Y-63731345D01*
X105341500Y-65528654D01*
X105348011Y-65589202D01*
X105348011Y-65589204D01*
X105399111Y-65726204D01*
X105486739Y-65843261D01*
X105603796Y-65930889D01*
X105740799Y-65981989D01*
X105768050Y-65984918D01*
X105801345Y-65988499D01*
X105801362Y-65988500D01*
X107598638Y-65988500D01*
X107598654Y-65988499D01*
X107625692Y-65985591D01*
X107659201Y-65981989D01*
X107796204Y-65930889D01*
X107913261Y-65843261D01*
X108000889Y-65726204D01*
X108049223Y-65596615D01*
X108091093Y-65540686D01*
X108156557Y-65516269D01*
X108224830Y-65531121D01*
X108253084Y-65552272D01*
X108368917Y-65668105D01*
X108562421Y-65803600D01*
X108776507Y-65903429D01*
X108776516Y-65903433D01*
X108990000Y-65960634D01*
X108990000Y-65063012D01*
X109047007Y-65095925D01*
X109174174Y-65130000D01*
X109305826Y-65130000D01*
X109432993Y-65095925D01*
X109490000Y-65063012D01*
X109490000Y-65960633D01*
X109703483Y-65903433D01*
X109703492Y-65903429D01*
X109917578Y-65803600D01*
X110111082Y-65668105D01*
X110278105Y-65501082D01*
X110404868Y-65320048D01*
X110459445Y-65276423D01*
X110528944Y-65269231D01*
X110591298Y-65300753D01*
X110610251Y-65323350D01*
X110704276Y-65467265D01*
X110704284Y-65467276D01*
X110823355Y-65596619D01*
X110856760Y-65632906D01*
X111034424Y-65771189D01*
X111034425Y-65771189D01*
X111034427Y-65771191D01*
X111094314Y-65803600D01*
X111232426Y-65878342D01*
X111445365Y-65951444D01*
X111667431Y-65988500D01*
X111892569Y-65988500D01*
X112114635Y-65951444D01*
X112327574Y-65878342D01*
X112525576Y-65771189D01*
X112703240Y-65632906D01*
X112855722Y-65467268D01*
X112946193Y-65328790D01*
X112999338Y-65283437D01*
X113068569Y-65274013D01*
X113131905Y-65303515D01*
X113153804Y-65328787D01*
X113244278Y-65467268D01*
X113244283Y-65467273D01*
X113244284Y-65467276D01*
X113363355Y-65596619D01*
X113396760Y-65632906D01*
X113574424Y-65771189D01*
X113574425Y-65771189D01*
X113574427Y-65771191D01*
X113634314Y-65803600D01*
X113772426Y-65878342D01*
X113985365Y-65951444D01*
X114207431Y-65988500D01*
X114432569Y-65988500D01*
X114654635Y-65951444D01*
X114867574Y-65878342D01*
X115065576Y-65771189D01*
X115243240Y-65632906D01*
X115395722Y-65467268D01*
X115486193Y-65328790D01*
X115539338Y-65283437D01*
X115608569Y-65274013D01*
X115671905Y-65303515D01*
X115693804Y-65328787D01*
X115784278Y-65467268D01*
X115784283Y-65467273D01*
X115784284Y-65467276D01*
X115903355Y-65596619D01*
X115936760Y-65632906D01*
X116114424Y-65771189D01*
X116114425Y-65771189D01*
X116114427Y-65771191D01*
X116174314Y-65803600D01*
X116312426Y-65878342D01*
X116525365Y-65951444D01*
X116747431Y-65988500D01*
X116972569Y-65988500D01*
X117194635Y-65951444D01*
X117407574Y-65878342D01*
X117605576Y-65771189D01*
X117783240Y-65632906D01*
X117935722Y-65467268D01*
X118026193Y-65328790D01*
X118079338Y-65283437D01*
X118148569Y-65274013D01*
X118211905Y-65303515D01*
X118233804Y-65328787D01*
X118324278Y-65467268D01*
X118324283Y-65467273D01*
X118324284Y-65467276D01*
X118443355Y-65596619D01*
X118476760Y-65632906D01*
X118654424Y-65771189D01*
X118654425Y-65771189D01*
X118654427Y-65771191D01*
X118714314Y-65803600D01*
X118852426Y-65878342D01*
X119065365Y-65951444D01*
X119287431Y-65988500D01*
X119512569Y-65988500D01*
X119734635Y-65951444D01*
X119947574Y-65878342D01*
X120145576Y-65771189D01*
X120323240Y-65632906D01*
X120475722Y-65467268D01*
X120566193Y-65328790D01*
X120619338Y-65283437D01*
X120688569Y-65274013D01*
X120751905Y-65303515D01*
X120773804Y-65328787D01*
X120864278Y-65467268D01*
X120864283Y-65467273D01*
X120864284Y-65467276D01*
X120983355Y-65596619D01*
X121016760Y-65632906D01*
X121194424Y-65771189D01*
X121194425Y-65771189D01*
X121194427Y-65771191D01*
X121254314Y-65803600D01*
X121392426Y-65878342D01*
X121605365Y-65951444D01*
X121827431Y-65988500D01*
X122052569Y-65988500D01*
X122274635Y-65951444D01*
X122487574Y-65878342D01*
X122685576Y-65771189D01*
X122863240Y-65632906D01*
X123015722Y-65467268D01*
X123106193Y-65328790D01*
X123159338Y-65283437D01*
X123228569Y-65274013D01*
X123291905Y-65303515D01*
X123313804Y-65328787D01*
X123404278Y-65467268D01*
X123404283Y-65467273D01*
X123404284Y-65467276D01*
X123523355Y-65596619D01*
X123556760Y-65632906D01*
X123734424Y-65771189D01*
X123734425Y-65771189D01*
X123734427Y-65771191D01*
X123794314Y-65803600D01*
X123932426Y-65878342D01*
X124145365Y-65951444D01*
X124367431Y-65988500D01*
X124592569Y-65988500D01*
X124814635Y-65951444D01*
X125027574Y-65878342D01*
X125225576Y-65771189D01*
X125403240Y-65632906D01*
X125555722Y-65467268D01*
X125678860Y-65278791D01*
X125769296Y-65072616D01*
X125824564Y-64854368D01*
X125824937Y-64849865D01*
X125843156Y-64630005D01*
X125843156Y-64629994D01*
X125824565Y-64405640D01*
X125824563Y-64405628D01*
X125769296Y-64187385D01*
X125768775Y-64186198D01*
X125678860Y-63981209D01*
X125662706Y-63956484D01*
X125555723Y-63792734D01*
X125555715Y-63792723D01*
X125403243Y-63627097D01*
X125403238Y-63627092D01*
X125225577Y-63488812D01*
X125225572Y-63488808D01*
X125027580Y-63381661D01*
X125027577Y-63381659D01*
X125027574Y-63381658D01*
X125027571Y-63381657D01*
X125027569Y-63381656D01*
X124814637Y-63308556D01*
X124592569Y-63271500D01*
X124367431Y-63271500D01*
X124145362Y-63308556D01*
X123932430Y-63381656D01*
X123932419Y-63381661D01*
X123734427Y-63488808D01*
X123734422Y-63488812D01*
X123556761Y-63627092D01*
X123556756Y-63627097D01*
X123404284Y-63792723D01*
X123404276Y-63792734D01*
X123313808Y-63931206D01*
X123260662Y-63976562D01*
X123191431Y-63985986D01*
X123128095Y-63956484D01*
X123106192Y-63931206D01*
X123015723Y-63792734D01*
X123015715Y-63792723D01*
X122863243Y-63627097D01*
X122863238Y-63627092D01*
X122685577Y-63488812D01*
X122685572Y-63488808D01*
X122487580Y-63381661D01*
X122487577Y-63381659D01*
X122487574Y-63381658D01*
X122487571Y-63381657D01*
X122487569Y-63381656D01*
X122274637Y-63308556D01*
X122052569Y-63271500D01*
X121827431Y-63271500D01*
X121605362Y-63308556D01*
X121392430Y-63381656D01*
X121392419Y-63381661D01*
X121194427Y-63488808D01*
X121194422Y-63488812D01*
X121016761Y-63627092D01*
X121016756Y-63627097D01*
X120864284Y-63792723D01*
X120864276Y-63792734D01*
X120773808Y-63931206D01*
X120720662Y-63976562D01*
X120651431Y-63985986D01*
X120588095Y-63956484D01*
X120566192Y-63931206D01*
X120475723Y-63792734D01*
X120475715Y-63792723D01*
X120323243Y-63627097D01*
X120323238Y-63627092D01*
X120145577Y-63488812D01*
X120145572Y-63488808D01*
X119947580Y-63381661D01*
X119947577Y-63381659D01*
X119947574Y-63381658D01*
X119947571Y-63381657D01*
X119947569Y-63381656D01*
X119734637Y-63308556D01*
X119512569Y-63271500D01*
X119287431Y-63271500D01*
X119065362Y-63308556D01*
X118852430Y-63381656D01*
X118852419Y-63381661D01*
X118654427Y-63488808D01*
X118654422Y-63488812D01*
X118476761Y-63627092D01*
X118476756Y-63627097D01*
X118324284Y-63792723D01*
X118324276Y-63792734D01*
X118233808Y-63931206D01*
X118180662Y-63976562D01*
X118111431Y-63985986D01*
X118048095Y-63956484D01*
X118026192Y-63931206D01*
X117935723Y-63792734D01*
X117935715Y-63792723D01*
X117783243Y-63627097D01*
X117783238Y-63627092D01*
X117605577Y-63488812D01*
X117605572Y-63488808D01*
X117407580Y-63381661D01*
X117407577Y-63381659D01*
X117407574Y-63381658D01*
X117407571Y-63381657D01*
X117407569Y-63381656D01*
X117194637Y-63308556D01*
X116972569Y-63271500D01*
X116747431Y-63271500D01*
X116525362Y-63308556D01*
X116312430Y-63381656D01*
X116312419Y-63381661D01*
X116114427Y-63488808D01*
X116114422Y-63488812D01*
X115936761Y-63627092D01*
X115936756Y-63627097D01*
X115784284Y-63792723D01*
X115784276Y-63792734D01*
X115693808Y-63931206D01*
X115640662Y-63976562D01*
X115571431Y-63985986D01*
X115508095Y-63956484D01*
X115486192Y-63931206D01*
X115395723Y-63792734D01*
X115395715Y-63792723D01*
X115243243Y-63627097D01*
X115243238Y-63627092D01*
X115065577Y-63488812D01*
X115065572Y-63488808D01*
X114867580Y-63381661D01*
X114867577Y-63381659D01*
X114867574Y-63381658D01*
X114867571Y-63381657D01*
X114867569Y-63381656D01*
X114654637Y-63308556D01*
X114432569Y-63271500D01*
X114207431Y-63271500D01*
X113985362Y-63308556D01*
X113772430Y-63381656D01*
X113772419Y-63381661D01*
X113574427Y-63488808D01*
X113574422Y-63488812D01*
X113396761Y-63627092D01*
X113396756Y-63627097D01*
X113244284Y-63792723D01*
X113244276Y-63792734D01*
X113153808Y-63931206D01*
X113100662Y-63976562D01*
X113031431Y-63985986D01*
X112968095Y-63956484D01*
X112946192Y-63931206D01*
X112855723Y-63792734D01*
X112855715Y-63792723D01*
X112703243Y-63627097D01*
X112703238Y-63627092D01*
X112525577Y-63488812D01*
X112525572Y-63488808D01*
X112327580Y-63381661D01*
X112327577Y-63381659D01*
X112327574Y-63381658D01*
X112327571Y-63381657D01*
X112327569Y-63381656D01*
X112114637Y-63308556D01*
X111892569Y-63271500D01*
X111667431Y-63271500D01*
X111445362Y-63308556D01*
X111232430Y-63381656D01*
X111232419Y-63381661D01*
X111034427Y-63488808D01*
X111034422Y-63488812D01*
X110856761Y-63627092D01*
X110856756Y-63627097D01*
X110704284Y-63792723D01*
X110704276Y-63792734D01*
X110610251Y-63936650D01*
X110557105Y-63982007D01*
X110487873Y-63991430D01*
X110424538Y-63961928D01*
X110404868Y-63939951D01*
X110278113Y-63758926D01*
X110278108Y-63758920D01*
X110111082Y-63591894D01*
X109917578Y-63456399D01*
X109703492Y-63356570D01*
X109703486Y-63356567D01*
X109490000Y-63299364D01*
X109490000Y-64196988D01*
X109432993Y-64164075D01*
X109305826Y-64130000D01*
X109174174Y-64130000D01*
X109047007Y-64164075D01*
X108990000Y-64196988D01*
X108990000Y-63299364D01*
X108989999Y-63299364D01*
X108776513Y-63356567D01*
X108776507Y-63356570D01*
X108562422Y-63456399D01*
X108562420Y-63456400D01*
X108368926Y-63591886D01*
X108253084Y-63707728D01*
X108191761Y-63741212D01*
X108122069Y-63736228D01*
X108066136Y-63694356D01*
X108049223Y-63663384D01*
X108000889Y-63533796D01*
X107913261Y-63416739D01*
X107796204Y-63329111D01*
X107659203Y-63278011D01*
X107598654Y-63271500D01*
X107598638Y-63271500D01*
X105801362Y-63271500D01*
X105801345Y-63271500D01*
X105740797Y-63278011D01*
X105740795Y-63278011D01*
X105603795Y-63329111D01*
X105486739Y-63416739D01*
X105399111Y-63533795D01*
X105348011Y-63670795D01*
X105348011Y-63670797D01*
X105341500Y-63731345D01*
X100075500Y-63731345D01*
X100075500Y-63179998D01*
X131256502Y-63179998D01*
X131256502Y-63180001D01*
X131276456Y-63408081D01*
X131276457Y-63408089D01*
X131335714Y-63629238D01*
X131335718Y-63629249D01*
X131432475Y-63836745D01*
X131432477Y-63836749D01*
X131563802Y-64024300D01*
X131725700Y-64186198D01*
X131913251Y-64317523D01*
X131924982Y-64322993D01*
X132120750Y-64414281D01*
X132120752Y-64414281D01*
X132120757Y-64414284D01*
X132341913Y-64473543D01*
X132504832Y-64487796D01*
X132569998Y-64493498D01*
X132570000Y-64493498D01*
X132570002Y-64493498D01*
X132627021Y-64488509D01*
X132798087Y-64473543D01*
X133019243Y-64414284D01*
X133226749Y-64317523D01*
X133414300Y-64186198D01*
X133576198Y-64024300D01*
X133707523Y-63836749D01*
X133804284Y-63629243D01*
X133863543Y-63408087D01*
X133883498Y-63180000D01*
X133863543Y-62951913D01*
X133804284Y-62730757D01*
X133707523Y-62523251D01*
X133576198Y-62335700D01*
X133414300Y-62173802D01*
X133226749Y-62042477D01*
X133226745Y-62042475D01*
X133019249Y-61945718D01*
X133019238Y-61945714D01*
X132798089Y-61886457D01*
X132798081Y-61886456D01*
X132570002Y-61866502D01*
X132569998Y-61866502D01*
X132341918Y-61886456D01*
X132341910Y-61886457D01*
X132120761Y-61945714D01*
X132120750Y-61945718D01*
X131913254Y-62042475D01*
X131913252Y-62042476D01*
X131913251Y-62042477D01*
X131725700Y-62173802D01*
X131725698Y-62173803D01*
X131725695Y-62173806D01*
X131563806Y-62335695D01*
X131432476Y-62523252D01*
X131432475Y-62523254D01*
X131335718Y-62730750D01*
X131335714Y-62730761D01*
X131276457Y-62951910D01*
X131276456Y-62951918D01*
X131256502Y-63179998D01*
X100075500Y-63179998D01*
X100075500Y-55905013D01*
X137380000Y-55905013D01*
X137380000Y-56430000D01*
X138325854Y-56430000D01*
X138287370Y-56496657D01*
X138255000Y-56617465D01*
X138255000Y-56742535D01*
X138287370Y-56863343D01*
X138325854Y-56930000D01*
X137380001Y-56930000D01*
X137380001Y-57454986D01*
X137390494Y-57557697D01*
X137445641Y-57724119D01*
X137445643Y-57724124D01*
X137537684Y-57873345D01*
X137661654Y-57997315D01*
X137810875Y-58089356D01*
X137810880Y-58089358D01*
X137977302Y-58144505D01*
X137977309Y-58144506D01*
X138080019Y-58154999D01*
X138479999Y-58154999D01*
X138480000Y-58154998D01*
X138480000Y-57084145D01*
X138546657Y-57122630D01*
X138667465Y-57155000D01*
X138792535Y-57155000D01*
X138913343Y-57122630D01*
X138980000Y-57084145D01*
X138980000Y-58154999D01*
X139379972Y-58154999D01*
X139379986Y-58154998D01*
X139482697Y-58144505D01*
X139649119Y-58089358D01*
X139649124Y-58089356D01*
X139798345Y-57997315D01*
X139922315Y-57873345D01*
X140013499Y-57725513D01*
X140065447Y-57678789D01*
X140134410Y-57667566D01*
X140198492Y-57695410D01*
X140206719Y-57702929D01*
X140344996Y-57841206D01*
X140517991Y-57966894D01*
X140611438Y-58014507D01*
X140708516Y-58063972D01*
X140708519Y-58063973D01*
X140786642Y-58089356D01*
X140911884Y-58130049D01*
X141123084Y-58163500D01*
X141123085Y-58163500D01*
X141336915Y-58163500D01*
X141336916Y-58163500D01*
X141548116Y-58130049D01*
X141751483Y-58063972D01*
X141942009Y-57966894D01*
X142115004Y-57841206D01*
X142266206Y-57690004D01*
X142343076Y-57584200D01*
X142379682Y-57533818D01*
X142435012Y-57491152D01*
X142504625Y-57485173D01*
X142566420Y-57517779D01*
X142580318Y-57533818D01*
X142669948Y-57657183D01*
X142693794Y-57690004D01*
X142844996Y-57841206D01*
X143017991Y-57966894D01*
X143111438Y-58014507D01*
X143208516Y-58063972D01*
X143208519Y-58063973D01*
X143286642Y-58089356D01*
X143411884Y-58130049D01*
X143623084Y-58163500D01*
X143623085Y-58163500D01*
X143836915Y-58163500D01*
X143836916Y-58163500D01*
X144048116Y-58130049D01*
X144251483Y-58063972D01*
X144442009Y-57966894D01*
X144615004Y-57841206D01*
X144766206Y-57690004D01*
X144891894Y-57517009D01*
X144988972Y-57326483D01*
X145055049Y-57123116D01*
X145088500Y-56911916D01*
X145088500Y-56624994D01*
X155006673Y-56624994D01*
X155006673Y-56625005D01*
X155025948Y-56857622D01*
X155083251Y-57083907D01*
X155177015Y-57297668D01*
X155304683Y-57493080D01*
X155398073Y-57594528D01*
X155428995Y-57657183D01*
X155421135Y-57726609D01*
X155376988Y-57780764D01*
X155350177Y-57794693D01*
X155277911Y-57821646D01*
X155277906Y-57821649D01*
X155162812Y-57907809D01*
X155162809Y-57907812D01*
X155076649Y-58022906D01*
X155076645Y-58022913D01*
X155026403Y-58157620D01*
X155026401Y-58157627D01*
X155020000Y-58217155D01*
X155020000Y-58915000D01*
X156044722Y-58915000D01*
X156000667Y-58991306D01*
X155970000Y-59105756D01*
X155970000Y-59224244D01*
X156000667Y-59338694D01*
X156044722Y-59415000D01*
X155020000Y-59415000D01*
X155020000Y-60112844D01*
X155026401Y-60172372D01*
X155026403Y-60172379D01*
X155076645Y-60307086D01*
X155076649Y-60307093D01*
X155162809Y-60422187D01*
X155162812Y-60422190D01*
X155277906Y-60508350D01*
X155277913Y-60508354D01*
X155412620Y-60558596D01*
X155412627Y-60558598D01*
X155472155Y-60564999D01*
X155472172Y-60565000D01*
X156170000Y-60565000D01*
X156170000Y-59540277D01*
X156246306Y-59584333D01*
X156360756Y-59615000D01*
X156479244Y-59615000D01*
X156593694Y-59584333D01*
X156670000Y-59540277D01*
X156670000Y-60565000D01*
X157367828Y-60565000D01*
X157367844Y-60564999D01*
X157427372Y-60558598D01*
X157427379Y-60558596D01*
X157562086Y-60508354D01*
X157562093Y-60508350D01*
X157677187Y-60422190D01*
X157677190Y-60422187D01*
X157763350Y-60307093D01*
X157763354Y-60307086D01*
X157813596Y-60172379D01*
X157813598Y-60172372D01*
X157819999Y-60112844D01*
X157820000Y-60112827D01*
X157820000Y-59415000D01*
X156795278Y-59415000D01*
X156839333Y-59338694D01*
X156870000Y-59224244D01*
X156870000Y-59105756D01*
X156839333Y-58991306D01*
X156795278Y-58915000D01*
X157820000Y-58915000D01*
X157820000Y-58217172D01*
X157819999Y-58217155D01*
X157813598Y-58157627D01*
X157813596Y-58157620D01*
X157763354Y-58022913D01*
X157763350Y-58022906D01*
X157677190Y-57907812D01*
X157677187Y-57907809D01*
X157562093Y-57821649D01*
X157562086Y-57821645D01*
X157489823Y-57794693D01*
X157433889Y-57752822D01*
X157409472Y-57687357D01*
X157424324Y-57619084D01*
X157441927Y-57594528D01*
X157535313Y-57493084D01*
X157535316Y-57493080D01*
X157662984Y-57297669D01*
X157756749Y-57083907D01*
X157814051Y-56857626D01*
X157833327Y-56625000D01*
X157814051Y-56392374D01*
X157756749Y-56166093D01*
X157662984Y-55952331D01*
X157564970Y-55802309D01*
X157535313Y-55756915D01*
X157377223Y-55585185D01*
X157377222Y-55585184D01*
X157377220Y-55585182D01*
X157193017Y-55441810D01*
X157193015Y-55441809D01*
X157193014Y-55441808D01*
X157193011Y-55441806D01*
X156987733Y-55330716D01*
X156987730Y-55330715D01*
X156987727Y-55330713D01*
X156987721Y-55330711D01*
X156987719Y-55330710D01*
X156766954Y-55254920D01*
X156594271Y-55226105D01*
X156536712Y-55216500D01*
X156303288Y-55216500D01*
X156257240Y-55224184D01*
X156073045Y-55254920D01*
X155852280Y-55330710D01*
X155852266Y-55330716D01*
X155646988Y-55441806D01*
X155646985Y-55441808D01*
X155462781Y-55585181D01*
X155462776Y-55585185D01*
X155304686Y-55756915D01*
X155177015Y-55952331D01*
X155083251Y-56166092D01*
X155025948Y-56392377D01*
X155006673Y-56624994D01*
X145088500Y-56624994D01*
X145088500Y-56448084D01*
X145055049Y-56236884D01*
X144988972Y-56033517D01*
X144988972Y-56033516D01*
X144923496Y-55905013D01*
X144891894Y-55842991D01*
X144766206Y-55669996D01*
X144615004Y-55518794D01*
X144442009Y-55393106D01*
X144382303Y-55362684D01*
X144251483Y-55296027D01*
X144251480Y-55296026D01*
X144048117Y-55229951D01*
X143942516Y-55213225D01*
X143836916Y-55196500D01*
X143623084Y-55196500D01*
X143569411Y-55205001D01*
X143411882Y-55229951D01*
X143208519Y-55296026D01*
X143208516Y-55296027D01*
X143017990Y-55393106D01*
X142844993Y-55518796D01*
X142693796Y-55669993D01*
X142693796Y-55669994D01*
X142693794Y-55669996D01*
X142678857Y-55690555D01*
X142580318Y-55826182D01*
X142524988Y-55868847D01*
X142455374Y-55874826D01*
X142393579Y-55842220D01*
X142379682Y-55826182D01*
X142354930Y-55792115D01*
X142266206Y-55669996D01*
X142115004Y-55518794D01*
X141942009Y-55393106D01*
X141882303Y-55362684D01*
X141751483Y-55296027D01*
X141751480Y-55296026D01*
X141548117Y-55229951D01*
X141442516Y-55213225D01*
X141336916Y-55196500D01*
X141123084Y-55196500D01*
X141069411Y-55205001D01*
X140911882Y-55229951D01*
X140708519Y-55296026D01*
X140708516Y-55296027D01*
X140517990Y-55393106D01*
X140344997Y-55518793D01*
X140206719Y-55657071D01*
X140145396Y-55690555D01*
X140075704Y-55685571D01*
X140019771Y-55643699D01*
X140013499Y-55634486D01*
X139922315Y-55486654D01*
X139798345Y-55362684D01*
X139649124Y-55270643D01*
X139649119Y-55270641D01*
X139482697Y-55215494D01*
X139482690Y-55215493D01*
X139379986Y-55205000D01*
X138980000Y-55205000D01*
X138980000Y-56275854D01*
X138913343Y-56237370D01*
X138792535Y-56205000D01*
X138667465Y-56205000D01*
X138546657Y-56237370D01*
X138480000Y-56275854D01*
X138480000Y-55205000D01*
X138080028Y-55205000D01*
X138080012Y-55205001D01*
X137977302Y-55215494D01*
X137810880Y-55270641D01*
X137810875Y-55270643D01*
X137661654Y-55362684D01*
X137537684Y-55486654D01*
X137445643Y-55635875D01*
X137445641Y-55635880D01*
X137390494Y-55802302D01*
X137390493Y-55802309D01*
X137380000Y-55905013D01*
X100075500Y-55905013D01*
X100075500Y-53019998D01*
X131256502Y-53019998D01*
X131256502Y-53020001D01*
X131276456Y-53248081D01*
X131276457Y-53248089D01*
X131335714Y-53469238D01*
X131335718Y-53469249D01*
X131432475Y-53676745D01*
X131432477Y-53676749D01*
X131563802Y-53864300D01*
X131725700Y-54026198D01*
X131913251Y-54157523D01*
X132038091Y-54215736D01*
X132120750Y-54254281D01*
X132120752Y-54254281D01*
X132120757Y-54254284D01*
X132341913Y-54313543D01*
X132504832Y-54327796D01*
X132569998Y-54333498D01*
X132570000Y-54333498D01*
X132570002Y-54333498D01*
X132627021Y-54328509D01*
X132798087Y-54313543D01*
X133019243Y-54254284D01*
X133226749Y-54157523D01*
X133414300Y-54026198D01*
X133576198Y-53864300D01*
X133707523Y-53676749D01*
X133804284Y-53469243D01*
X133863543Y-53248087D01*
X133883498Y-53020000D01*
X133863543Y-52791913D01*
X133804284Y-52570757D01*
X133707523Y-52363251D01*
X133576198Y-52175700D01*
X133414300Y-52013802D01*
X133226749Y-51882477D01*
X133226745Y-51882475D01*
X133019249Y-51785718D01*
X133019238Y-51785714D01*
X132798089Y-51726457D01*
X132798081Y-51726456D01*
X132570002Y-51706502D01*
X132569998Y-51706502D01*
X132341918Y-51726456D01*
X132341910Y-51726457D01*
X132120761Y-51785714D01*
X132120750Y-51785718D01*
X131913254Y-51882475D01*
X131913252Y-51882476D01*
X131913251Y-51882477D01*
X131725700Y-52013802D01*
X131725698Y-52013803D01*
X131725695Y-52013806D01*
X131563806Y-52175695D01*
X131432476Y-52363252D01*
X131432475Y-52363254D01*
X131335718Y-52570750D01*
X131335714Y-52570761D01*
X131276457Y-52791910D01*
X131276456Y-52791918D01*
X131256502Y-53019998D01*
X100075500Y-53019998D01*
X100075500Y-48301345D01*
X117437500Y-48301345D01*
X117437500Y-50098654D01*
X117444011Y-50159202D01*
X117444011Y-50159204D01*
X117495111Y-50296204D01*
X117582739Y-50413261D01*
X117699796Y-50500889D01*
X117836799Y-50551989D01*
X117864050Y-50554918D01*
X117897345Y-50558499D01*
X117897362Y-50558500D01*
X119694638Y-50558500D01*
X119694654Y-50558499D01*
X119721692Y-50555591D01*
X119755201Y-50551989D01*
X119892204Y-50500889D01*
X120009261Y-50413261D01*
X120096889Y-50296204D01*
X120142138Y-50174887D01*
X120184009Y-50118956D01*
X120249474Y-50094539D01*
X120317746Y-50109391D01*
X120349545Y-50134236D01*
X120412760Y-50202906D01*
X120590424Y-50341189D01*
X120590425Y-50341189D01*
X120590427Y-50341191D01*
X120650314Y-50373600D01*
X120788426Y-50448342D01*
X121001365Y-50521444D01*
X121223431Y-50558500D01*
X121448569Y-50558500D01*
X121670635Y-50521444D01*
X121883574Y-50448342D01*
X122081576Y-50341189D01*
X122259240Y-50202906D01*
X122380594Y-50071082D01*
X122411715Y-50037276D01*
X122411715Y-50037275D01*
X122411722Y-50037268D01*
X122502193Y-49898790D01*
X122555338Y-49853437D01*
X122624569Y-49844013D01*
X122687905Y-49873515D01*
X122709804Y-49898787D01*
X122800278Y-50037268D01*
X122800283Y-50037273D01*
X122800284Y-50037276D01*
X122926968Y-50174889D01*
X122952760Y-50202906D01*
X123130424Y-50341189D01*
X123130425Y-50341189D01*
X123130427Y-50341191D01*
X123190314Y-50373600D01*
X123328426Y-50448342D01*
X123541365Y-50521444D01*
X123763431Y-50558500D01*
X123988569Y-50558500D01*
X124210635Y-50521444D01*
X124423574Y-50448342D01*
X124621576Y-50341189D01*
X124799240Y-50202906D01*
X124920594Y-50071082D01*
X124951715Y-50037276D01*
X124951715Y-50037275D01*
X124951722Y-50037268D01*
X125045749Y-49893347D01*
X125098894Y-49847994D01*
X125168125Y-49838570D01*
X125231461Y-49868072D01*
X125251130Y-49890048D01*
X125377890Y-50071078D01*
X125544917Y-50238105D01*
X125738421Y-50373600D01*
X125952507Y-50473429D01*
X125952516Y-50473433D01*
X126166000Y-50530634D01*
X126166000Y-49633012D01*
X126223007Y-49665925D01*
X126350174Y-49700000D01*
X126481826Y-49700000D01*
X126608993Y-49665925D01*
X126666000Y-49633012D01*
X126666000Y-50530633D01*
X126879483Y-50473433D01*
X126879492Y-50473429D01*
X127093578Y-50373600D01*
X127287082Y-50238105D01*
X127454105Y-50071082D01*
X127580868Y-49890048D01*
X127635445Y-49846423D01*
X127704944Y-49839231D01*
X127767298Y-49870753D01*
X127786251Y-49893350D01*
X127880276Y-50037265D01*
X127880284Y-50037276D01*
X128006968Y-50174889D01*
X128032760Y-50202906D01*
X128210424Y-50341189D01*
X128210425Y-50341189D01*
X128210427Y-50341191D01*
X128270314Y-50373600D01*
X128408426Y-50448342D01*
X128621365Y-50521444D01*
X128843431Y-50558500D01*
X129068569Y-50558500D01*
X129290635Y-50521444D01*
X129503574Y-50448342D01*
X129701576Y-50341189D01*
X129879240Y-50202906D01*
X130000594Y-50071082D01*
X130031715Y-50037276D01*
X130031715Y-50037275D01*
X130031722Y-50037268D01*
X130122193Y-49898790D01*
X130175338Y-49853437D01*
X130244569Y-49844013D01*
X130307905Y-49873515D01*
X130329804Y-49898787D01*
X130420278Y-50037268D01*
X130420283Y-50037273D01*
X130420284Y-50037276D01*
X130546968Y-50174889D01*
X130572760Y-50202906D01*
X130750424Y-50341189D01*
X130750425Y-50341189D01*
X130750427Y-50341191D01*
X130810314Y-50373600D01*
X130948426Y-50448342D01*
X131161365Y-50521444D01*
X131383431Y-50558500D01*
X131608569Y-50558500D01*
X131830635Y-50521444D01*
X132043574Y-50448342D01*
X132241576Y-50341189D01*
X132419240Y-50202906D01*
X132540594Y-50071082D01*
X132571715Y-50037276D01*
X132571715Y-50037275D01*
X132571722Y-50037268D01*
X132662193Y-49898790D01*
X132715338Y-49853437D01*
X132784569Y-49844013D01*
X132847905Y-49873515D01*
X132869804Y-49898787D01*
X132960278Y-50037268D01*
X132960283Y-50037273D01*
X132960284Y-50037276D01*
X133086968Y-50174889D01*
X133112760Y-50202906D01*
X133290424Y-50341189D01*
X133290425Y-50341189D01*
X133290427Y-50341191D01*
X133350314Y-50373600D01*
X133488426Y-50448342D01*
X133701365Y-50521444D01*
X133923431Y-50558500D01*
X134148569Y-50558500D01*
X134370635Y-50521444D01*
X134583574Y-50448342D01*
X134781576Y-50341189D01*
X134959240Y-50202906D01*
X135080594Y-50071082D01*
X135111715Y-50037276D01*
X135111715Y-50037275D01*
X135111722Y-50037268D01*
X135202193Y-49898790D01*
X135255338Y-49853437D01*
X135324569Y-49844013D01*
X135387905Y-49873515D01*
X135409804Y-49898787D01*
X135500278Y-50037268D01*
X135500283Y-50037273D01*
X135500284Y-50037276D01*
X135626968Y-50174889D01*
X135652760Y-50202906D01*
X135830424Y-50341189D01*
X135830425Y-50341189D01*
X135830427Y-50341191D01*
X135890314Y-50373600D01*
X136028426Y-50448342D01*
X136241365Y-50521444D01*
X136463431Y-50558500D01*
X136688569Y-50558500D01*
X136910635Y-50521444D01*
X137123574Y-50448342D01*
X137321576Y-50341189D01*
X137499240Y-50202906D01*
X137620594Y-50071082D01*
X137651715Y-50037276D01*
X137651715Y-50037275D01*
X137651722Y-50037268D01*
X137742193Y-49898790D01*
X137795338Y-49853437D01*
X137864569Y-49844013D01*
X137927905Y-49873515D01*
X137949804Y-49898787D01*
X138040278Y-50037268D01*
X138040283Y-50037273D01*
X138040284Y-50037276D01*
X138166968Y-50174889D01*
X138192760Y-50202906D01*
X138370424Y-50341189D01*
X138370425Y-50341189D01*
X138370427Y-50341191D01*
X138430314Y-50373600D01*
X138568426Y-50448342D01*
X138781365Y-50521444D01*
X139003431Y-50558500D01*
X139228569Y-50558500D01*
X139450635Y-50521444D01*
X139663574Y-50448342D01*
X139861576Y-50341189D01*
X140039240Y-50202906D01*
X140160594Y-50071082D01*
X140191715Y-50037276D01*
X140191715Y-50037275D01*
X140191722Y-50037268D01*
X140282193Y-49898790D01*
X140335338Y-49853437D01*
X140404569Y-49844013D01*
X140467905Y-49873515D01*
X140489804Y-49898787D01*
X140580278Y-50037268D01*
X140580283Y-50037273D01*
X140580284Y-50037276D01*
X140706968Y-50174889D01*
X140732760Y-50202906D01*
X140910424Y-50341189D01*
X140910425Y-50341189D01*
X140910427Y-50341191D01*
X140970314Y-50373600D01*
X141108426Y-50448342D01*
X141321365Y-50521444D01*
X141543431Y-50558500D01*
X141768569Y-50558500D01*
X141990635Y-50521444D01*
X142203574Y-50448342D01*
X142401576Y-50341189D01*
X142579240Y-50202906D01*
X142700594Y-50071082D01*
X142731715Y-50037276D01*
X142731717Y-50037273D01*
X142731722Y-50037268D01*
X142854860Y-49848791D01*
X142945296Y-49642616D01*
X143000564Y-49424368D01*
X143012309Y-49282635D01*
X143019156Y-49200005D01*
X143019156Y-49199994D01*
X143000565Y-48975640D01*
X143000563Y-48975628D01*
X142945296Y-48757385D01*
X142935071Y-48734075D01*
X142854860Y-48551209D01*
X142838706Y-48526484D01*
X142731723Y-48362734D01*
X142731715Y-48362723D01*
X142675212Y-48301345D01*
X144361500Y-48301345D01*
X144361500Y-50098654D01*
X144368011Y-50159202D01*
X144368011Y-50159204D01*
X144419111Y-50296204D01*
X144506739Y-50413261D01*
X144623796Y-50500889D01*
X144760799Y-50551989D01*
X144788050Y-50554918D01*
X144821345Y-50558499D01*
X144821362Y-50558500D01*
X146618638Y-50558500D01*
X146618654Y-50558499D01*
X146645692Y-50555591D01*
X146679201Y-50551989D01*
X146816204Y-50500889D01*
X146933261Y-50413261D01*
X147020889Y-50296204D01*
X147066138Y-50174887D01*
X147108009Y-50118956D01*
X147173474Y-50094539D01*
X147241746Y-50109391D01*
X147273545Y-50134236D01*
X147336760Y-50202906D01*
X147514424Y-50341189D01*
X147514425Y-50341189D01*
X147514427Y-50341191D01*
X147574314Y-50373600D01*
X147712426Y-50448342D01*
X147925365Y-50521444D01*
X148147431Y-50558500D01*
X148372569Y-50558500D01*
X148594635Y-50521444D01*
X148807574Y-50448342D01*
X149005576Y-50341189D01*
X149183240Y-50202906D01*
X149304594Y-50071082D01*
X149335715Y-50037276D01*
X149335715Y-50037275D01*
X149335722Y-50037268D01*
X149426193Y-49898790D01*
X149479338Y-49853437D01*
X149548569Y-49844013D01*
X149611905Y-49873515D01*
X149633804Y-49898787D01*
X149724278Y-50037268D01*
X149724283Y-50037273D01*
X149724284Y-50037276D01*
X149850968Y-50174889D01*
X149876760Y-50202906D01*
X150054424Y-50341189D01*
X150054425Y-50341189D01*
X150054427Y-50341191D01*
X150114314Y-50373600D01*
X150252426Y-50448342D01*
X150465365Y-50521444D01*
X150687431Y-50558500D01*
X150912569Y-50558500D01*
X151134635Y-50521444D01*
X151347574Y-50448342D01*
X151545576Y-50341189D01*
X151723240Y-50202906D01*
X151844594Y-50071082D01*
X151875715Y-50037276D01*
X151875715Y-50037275D01*
X151875722Y-50037268D01*
X151966193Y-49898790D01*
X152019338Y-49853437D01*
X152088569Y-49844013D01*
X152151905Y-49873515D01*
X152173804Y-49898787D01*
X152264278Y-50037268D01*
X152264283Y-50037273D01*
X152264284Y-50037276D01*
X152390968Y-50174889D01*
X152416760Y-50202906D01*
X152594424Y-50341189D01*
X152594425Y-50341189D01*
X152594427Y-50341191D01*
X152654314Y-50373600D01*
X152792426Y-50448342D01*
X153005365Y-50521444D01*
X153227431Y-50558500D01*
X153452569Y-50558500D01*
X153674635Y-50521444D01*
X153887574Y-50448342D01*
X154085576Y-50341189D01*
X154263240Y-50202906D01*
X154384594Y-50071082D01*
X154415715Y-50037276D01*
X154415715Y-50037275D01*
X154415722Y-50037268D01*
X154506193Y-49898790D01*
X154559338Y-49853437D01*
X154628569Y-49844013D01*
X154691905Y-49873515D01*
X154713804Y-49898787D01*
X154804278Y-50037268D01*
X154804283Y-50037273D01*
X154804284Y-50037276D01*
X154930968Y-50174889D01*
X154956760Y-50202906D01*
X155134424Y-50341189D01*
X155134425Y-50341189D01*
X155134427Y-50341191D01*
X155194314Y-50373600D01*
X155332426Y-50448342D01*
X155545365Y-50521444D01*
X155767431Y-50558500D01*
X155992569Y-50558500D01*
X156214635Y-50521444D01*
X156427574Y-50448342D01*
X156625576Y-50341189D01*
X156803240Y-50202906D01*
X156924594Y-50071082D01*
X156955715Y-50037276D01*
X156955715Y-50037275D01*
X156955722Y-50037268D01*
X157046193Y-49898790D01*
X157099338Y-49853437D01*
X157168569Y-49844013D01*
X157231905Y-49873515D01*
X157253804Y-49898787D01*
X157344278Y-50037268D01*
X157344283Y-50037273D01*
X157344284Y-50037276D01*
X157470968Y-50174889D01*
X157496760Y-50202906D01*
X157674424Y-50341189D01*
X157674425Y-50341189D01*
X157674427Y-50341191D01*
X157734314Y-50373600D01*
X157872426Y-50448342D01*
X158085365Y-50521444D01*
X158307431Y-50558500D01*
X158532569Y-50558500D01*
X158754635Y-50521444D01*
X158967574Y-50448342D01*
X159165576Y-50341189D01*
X159343240Y-50202906D01*
X159464594Y-50071082D01*
X159495715Y-50037276D01*
X159495715Y-50037275D01*
X159495722Y-50037268D01*
X159586193Y-49898790D01*
X159639338Y-49853437D01*
X159708569Y-49844013D01*
X159771905Y-49873515D01*
X159793804Y-49898787D01*
X159884278Y-50037268D01*
X159884283Y-50037273D01*
X159884284Y-50037276D01*
X160010968Y-50174889D01*
X160036760Y-50202906D01*
X160214424Y-50341189D01*
X160214425Y-50341189D01*
X160214427Y-50341191D01*
X160274314Y-50373600D01*
X160412426Y-50448342D01*
X160625365Y-50521444D01*
X160847431Y-50558500D01*
X161072569Y-50558500D01*
X161294635Y-50521444D01*
X161507574Y-50448342D01*
X161705576Y-50341189D01*
X161883240Y-50202906D01*
X162004594Y-50071082D01*
X162035715Y-50037276D01*
X162035715Y-50037275D01*
X162035722Y-50037268D01*
X162126193Y-49898790D01*
X162179338Y-49853437D01*
X162248569Y-49844013D01*
X162311905Y-49873515D01*
X162333804Y-49898787D01*
X162424278Y-50037268D01*
X162424283Y-50037273D01*
X162424284Y-50037276D01*
X162550968Y-50174889D01*
X162576760Y-50202906D01*
X162754424Y-50341189D01*
X162754425Y-50341189D01*
X162754427Y-50341191D01*
X162814314Y-50373600D01*
X162952426Y-50448342D01*
X163165365Y-50521444D01*
X163387431Y-50558500D01*
X163612569Y-50558500D01*
X163834635Y-50521444D01*
X164047574Y-50448342D01*
X164245576Y-50341189D01*
X164423240Y-50202906D01*
X164544594Y-50071082D01*
X164575715Y-50037276D01*
X164575717Y-50037273D01*
X164575722Y-50037268D01*
X164698860Y-49848791D01*
X164789296Y-49642616D01*
X164844564Y-49424368D01*
X164856309Y-49282635D01*
X164863156Y-49200005D01*
X164863156Y-49199994D01*
X164844565Y-48975640D01*
X164844563Y-48975628D01*
X164789296Y-48757385D01*
X164779071Y-48734075D01*
X164698860Y-48551209D01*
X164682706Y-48526484D01*
X164575723Y-48362734D01*
X164575715Y-48362723D01*
X164423243Y-48197097D01*
X164423238Y-48197092D01*
X164245577Y-48058812D01*
X164245572Y-48058808D01*
X164047580Y-47951661D01*
X164047577Y-47951659D01*
X164047574Y-47951658D01*
X164047571Y-47951657D01*
X164047569Y-47951656D01*
X163834637Y-47878556D01*
X163612569Y-47841500D01*
X163387431Y-47841500D01*
X163165362Y-47878556D01*
X162952430Y-47951656D01*
X162952419Y-47951661D01*
X162754427Y-48058808D01*
X162754422Y-48058812D01*
X162576761Y-48197092D01*
X162576756Y-48197097D01*
X162424284Y-48362723D01*
X162424276Y-48362734D01*
X162333808Y-48501206D01*
X162280662Y-48546562D01*
X162211431Y-48555986D01*
X162148095Y-48526484D01*
X162126192Y-48501206D01*
X162035723Y-48362734D01*
X162035715Y-48362723D01*
X161883243Y-48197097D01*
X161883238Y-48197092D01*
X161705577Y-48058812D01*
X161705572Y-48058808D01*
X161507580Y-47951661D01*
X161507577Y-47951659D01*
X161507574Y-47951658D01*
X161507571Y-47951657D01*
X161507569Y-47951656D01*
X161294637Y-47878556D01*
X161072569Y-47841500D01*
X160847431Y-47841500D01*
X160625362Y-47878556D01*
X160412430Y-47951656D01*
X160412419Y-47951661D01*
X160214427Y-48058808D01*
X160214422Y-48058812D01*
X160036761Y-48197092D01*
X160036756Y-48197097D01*
X159884284Y-48362723D01*
X159884276Y-48362734D01*
X159793808Y-48501206D01*
X159740662Y-48546562D01*
X159671431Y-48555986D01*
X159608095Y-48526484D01*
X159586192Y-48501206D01*
X159495723Y-48362734D01*
X159495715Y-48362723D01*
X159343243Y-48197097D01*
X159343238Y-48197092D01*
X159165577Y-48058812D01*
X159165572Y-48058808D01*
X158967580Y-47951661D01*
X158967577Y-47951659D01*
X158967574Y-47951658D01*
X158967571Y-47951657D01*
X158967569Y-47951656D01*
X158754637Y-47878556D01*
X158532569Y-47841500D01*
X158307431Y-47841500D01*
X158085362Y-47878556D01*
X157872430Y-47951656D01*
X157872419Y-47951661D01*
X157674427Y-48058808D01*
X157674422Y-48058812D01*
X157496761Y-48197092D01*
X157496756Y-48197097D01*
X157344284Y-48362723D01*
X157344276Y-48362734D01*
X157253808Y-48501206D01*
X157200662Y-48546562D01*
X157131431Y-48555986D01*
X157068095Y-48526484D01*
X157046192Y-48501206D01*
X156955723Y-48362734D01*
X156955715Y-48362723D01*
X156803243Y-48197097D01*
X156803238Y-48197092D01*
X156625577Y-48058812D01*
X156625572Y-48058808D01*
X156427580Y-47951661D01*
X156427577Y-47951659D01*
X156427574Y-47951658D01*
X156427571Y-47951657D01*
X156427569Y-47951656D01*
X156214637Y-47878556D01*
X155992569Y-47841500D01*
X155767431Y-47841500D01*
X155545362Y-47878556D01*
X155332430Y-47951656D01*
X155332419Y-47951661D01*
X155134427Y-48058808D01*
X155134422Y-48058812D01*
X154956761Y-48197092D01*
X154956756Y-48197097D01*
X154804284Y-48362723D01*
X154804276Y-48362734D01*
X154713808Y-48501206D01*
X154660662Y-48546562D01*
X154591431Y-48555986D01*
X154528095Y-48526484D01*
X154506192Y-48501206D01*
X154415723Y-48362734D01*
X154415715Y-48362723D01*
X154263243Y-48197097D01*
X154263238Y-48197092D01*
X154085577Y-48058812D01*
X154085572Y-48058808D01*
X153887580Y-47951661D01*
X153887577Y-47951659D01*
X153887574Y-47951658D01*
X153887571Y-47951657D01*
X153887569Y-47951656D01*
X153674637Y-47878556D01*
X153452569Y-47841500D01*
X153227431Y-47841500D01*
X153005362Y-47878556D01*
X152792430Y-47951656D01*
X152792419Y-47951661D01*
X152594427Y-48058808D01*
X152594422Y-48058812D01*
X152416761Y-48197092D01*
X152416756Y-48197097D01*
X152264284Y-48362723D01*
X152264276Y-48362734D01*
X152173808Y-48501206D01*
X152120662Y-48546562D01*
X152051431Y-48555986D01*
X151988095Y-48526484D01*
X151966192Y-48501206D01*
X151875723Y-48362734D01*
X151875715Y-48362723D01*
X151723243Y-48197097D01*
X151723238Y-48197092D01*
X151545577Y-48058812D01*
X151545572Y-48058808D01*
X151347580Y-47951661D01*
X151347577Y-47951659D01*
X151347574Y-47951658D01*
X151347571Y-47951657D01*
X151347569Y-47951656D01*
X151134637Y-47878556D01*
X150912569Y-47841500D01*
X150687431Y-47841500D01*
X150465362Y-47878556D01*
X150252430Y-47951656D01*
X150252419Y-47951661D01*
X150054427Y-48058808D01*
X150054422Y-48058812D01*
X149876761Y-48197092D01*
X149876756Y-48197097D01*
X149724284Y-48362723D01*
X149724276Y-48362734D01*
X149633808Y-48501206D01*
X149580662Y-48546562D01*
X149511431Y-48555986D01*
X149448095Y-48526484D01*
X149426192Y-48501206D01*
X149335723Y-48362734D01*
X149335715Y-48362723D01*
X149183243Y-48197097D01*
X149183238Y-48197092D01*
X149005577Y-48058812D01*
X149005572Y-48058808D01*
X148807580Y-47951661D01*
X148807577Y-47951659D01*
X148807574Y-47951658D01*
X148807571Y-47951657D01*
X148807569Y-47951656D01*
X148594637Y-47878556D01*
X148372569Y-47841500D01*
X148147431Y-47841500D01*
X147925362Y-47878556D01*
X147712430Y-47951656D01*
X147712419Y-47951661D01*
X147514427Y-48058808D01*
X147514422Y-48058812D01*
X147336761Y-48197092D01*
X147273548Y-48265760D01*
X147213661Y-48301750D01*
X147143823Y-48299649D01*
X147086207Y-48260124D01*
X147066138Y-48225110D01*
X147020889Y-48103796D01*
X146987214Y-48058812D01*
X146933261Y-47986739D01*
X146816204Y-47899111D01*
X146679203Y-47848011D01*
X146618654Y-47841500D01*
X146618638Y-47841500D01*
X144821362Y-47841500D01*
X144821345Y-47841500D01*
X144760797Y-47848011D01*
X144760795Y-47848011D01*
X144623795Y-47899111D01*
X144506739Y-47986739D01*
X144419111Y-48103795D01*
X144368011Y-48240795D01*
X144368011Y-48240797D01*
X144361500Y-48301345D01*
X142675212Y-48301345D01*
X142579243Y-48197097D01*
X142579238Y-48197092D01*
X142401577Y-48058812D01*
X142401572Y-48058808D01*
X142203580Y-47951661D01*
X142203577Y-47951659D01*
X142203574Y-47951658D01*
X142203571Y-47951657D01*
X142203569Y-47951656D01*
X141990637Y-47878556D01*
X141768569Y-47841500D01*
X141543431Y-47841500D01*
X141321362Y-47878556D01*
X141108430Y-47951656D01*
X141108419Y-47951661D01*
X140910427Y-48058808D01*
X140910422Y-48058812D01*
X140732761Y-48197092D01*
X140732756Y-48197097D01*
X140580284Y-48362723D01*
X140580276Y-48362734D01*
X140489808Y-48501206D01*
X140436662Y-48546562D01*
X140367431Y-48555986D01*
X140304095Y-48526484D01*
X140282192Y-48501206D01*
X140191723Y-48362734D01*
X140191715Y-48362723D01*
X140039243Y-48197097D01*
X140039238Y-48197092D01*
X139861577Y-48058812D01*
X139861572Y-48058808D01*
X139663580Y-47951661D01*
X139663577Y-47951659D01*
X139663574Y-47951658D01*
X139663571Y-47951657D01*
X139663569Y-47951656D01*
X139450637Y-47878556D01*
X139228569Y-47841500D01*
X139003431Y-47841500D01*
X138781362Y-47878556D01*
X138568430Y-47951656D01*
X138568419Y-47951661D01*
X138370427Y-48058808D01*
X138370422Y-48058812D01*
X138192761Y-48197092D01*
X138192756Y-48197097D01*
X138040284Y-48362723D01*
X138040276Y-48362734D01*
X137949808Y-48501206D01*
X137896662Y-48546562D01*
X137827431Y-48555986D01*
X137764095Y-48526484D01*
X137742192Y-48501206D01*
X137651723Y-48362734D01*
X137651715Y-48362723D01*
X137499243Y-48197097D01*
X137499238Y-48197092D01*
X137321577Y-48058812D01*
X137321572Y-48058808D01*
X137123580Y-47951661D01*
X137123577Y-47951659D01*
X137123574Y-47951658D01*
X137123571Y-47951657D01*
X137123569Y-47951656D01*
X136910637Y-47878556D01*
X136688569Y-47841500D01*
X136463431Y-47841500D01*
X136241362Y-47878556D01*
X136028430Y-47951656D01*
X136028419Y-47951661D01*
X135830427Y-48058808D01*
X135830422Y-48058812D01*
X135652761Y-48197092D01*
X135652756Y-48197097D01*
X135500284Y-48362723D01*
X135500276Y-48362734D01*
X135409808Y-48501206D01*
X135356662Y-48546562D01*
X135287431Y-48555986D01*
X135224095Y-48526484D01*
X135202192Y-48501206D01*
X135111723Y-48362734D01*
X135111715Y-48362723D01*
X134959243Y-48197097D01*
X134959238Y-48197092D01*
X134781577Y-48058812D01*
X134781572Y-48058808D01*
X134583580Y-47951661D01*
X134583577Y-47951659D01*
X134583574Y-47951658D01*
X134583571Y-47951657D01*
X134583569Y-47951656D01*
X134370637Y-47878556D01*
X134148569Y-47841500D01*
X133923431Y-47841500D01*
X133701362Y-47878556D01*
X133488430Y-47951656D01*
X133488419Y-47951661D01*
X133290427Y-48058808D01*
X133290422Y-48058812D01*
X133112761Y-48197092D01*
X133112756Y-48197097D01*
X132960284Y-48362723D01*
X132960276Y-48362734D01*
X132869808Y-48501206D01*
X132816662Y-48546562D01*
X132747431Y-48555986D01*
X132684095Y-48526484D01*
X132662192Y-48501206D01*
X132571723Y-48362734D01*
X132571715Y-48362723D01*
X132419243Y-48197097D01*
X132419238Y-48197092D01*
X132241577Y-48058812D01*
X132241572Y-48058808D01*
X132043580Y-47951661D01*
X132043577Y-47951659D01*
X132043574Y-47951658D01*
X132043571Y-47951657D01*
X132043569Y-47951656D01*
X131830637Y-47878556D01*
X131608569Y-47841500D01*
X131383431Y-47841500D01*
X131161362Y-47878556D01*
X130948430Y-47951656D01*
X130948419Y-47951661D01*
X130750427Y-48058808D01*
X130750422Y-48058812D01*
X130572761Y-48197092D01*
X130572756Y-48197097D01*
X130420284Y-48362723D01*
X130420276Y-48362734D01*
X130329808Y-48501206D01*
X130276662Y-48546562D01*
X130207431Y-48555986D01*
X130144095Y-48526484D01*
X130122192Y-48501206D01*
X130031723Y-48362734D01*
X130031715Y-48362723D01*
X129879243Y-48197097D01*
X129879238Y-48197092D01*
X129701577Y-48058812D01*
X129701572Y-48058808D01*
X129503580Y-47951661D01*
X129503577Y-47951659D01*
X129503574Y-47951658D01*
X129503571Y-47951657D01*
X129503569Y-47951656D01*
X129290637Y-47878556D01*
X129068569Y-47841500D01*
X128843431Y-47841500D01*
X128621362Y-47878556D01*
X128408430Y-47951656D01*
X128408419Y-47951661D01*
X128210427Y-48058808D01*
X128210422Y-48058812D01*
X128032761Y-48197092D01*
X128032756Y-48197097D01*
X127880284Y-48362723D01*
X127880276Y-48362734D01*
X127786251Y-48506650D01*
X127733105Y-48552007D01*
X127663873Y-48561430D01*
X127600538Y-48531928D01*
X127580868Y-48509951D01*
X127454113Y-48328926D01*
X127454108Y-48328920D01*
X127287082Y-48161894D01*
X127093578Y-48026399D01*
X126879492Y-47926570D01*
X126879486Y-47926567D01*
X126666000Y-47869364D01*
X126666000Y-48766988D01*
X126608993Y-48734075D01*
X126481826Y-48700000D01*
X126350174Y-48700000D01*
X126223007Y-48734075D01*
X126166000Y-48766988D01*
X126166000Y-47869364D01*
X126165999Y-47869364D01*
X125952513Y-47926567D01*
X125952507Y-47926570D01*
X125738422Y-48026399D01*
X125738420Y-48026400D01*
X125544926Y-48161886D01*
X125544920Y-48161891D01*
X125377891Y-48328920D01*
X125377890Y-48328922D01*
X125251131Y-48509952D01*
X125196554Y-48553577D01*
X125127055Y-48560769D01*
X125064701Y-48529247D01*
X125045752Y-48506656D01*
X124951722Y-48362732D01*
X124951715Y-48362725D01*
X124951715Y-48362723D01*
X124799243Y-48197097D01*
X124799238Y-48197092D01*
X124621577Y-48058812D01*
X124621572Y-48058808D01*
X124423580Y-47951661D01*
X124423577Y-47951659D01*
X124423574Y-47951658D01*
X124423571Y-47951657D01*
X124423569Y-47951656D01*
X124210637Y-47878556D01*
X123988569Y-47841500D01*
X123763431Y-47841500D01*
X123541362Y-47878556D01*
X123328430Y-47951656D01*
X123328419Y-47951661D01*
X123130427Y-48058808D01*
X123130422Y-48058812D01*
X122952761Y-48197092D01*
X122952756Y-48197097D01*
X122800284Y-48362723D01*
X122800276Y-48362734D01*
X122709808Y-48501206D01*
X122656662Y-48546562D01*
X122587431Y-48555986D01*
X122524095Y-48526484D01*
X122502192Y-48501206D01*
X122411723Y-48362734D01*
X122411715Y-48362723D01*
X122259243Y-48197097D01*
X122259238Y-48197092D01*
X122081577Y-48058812D01*
X122081572Y-48058808D01*
X121883580Y-47951661D01*
X121883577Y-47951659D01*
X121883574Y-47951658D01*
X121883571Y-47951657D01*
X121883569Y-47951656D01*
X121670637Y-47878556D01*
X121448569Y-47841500D01*
X121223431Y-47841500D01*
X121001362Y-47878556D01*
X120788430Y-47951656D01*
X120788419Y-47951661D01*
X120590427Y-48058808D01*
X120590422Y-48058812D01*
X120412761Y-48197092D01*
X120349548Y-48265760D01*
X120289661Y-48301750D01*
X120219823Y-48299649D01*
X120162207Y-48260124D01*
X120142138Y-48225110D01*
X120096889Y-48103796D01*
X120063214Y-48058812D01*
X120009261Y-47986739D01*
X119892204Y-47899111D01*
X119755203Y-47848011D01*
X119694654Y-47841500D01*
X119694638Y-47841500D01*
X117897362Y-47841500D01*
X117897345Y-47841500D01*
X117836797Y-47848011D01*
X117836795Y-47848011D01*
X117699795Y-47899111D01*
X117582739Y-47986739D01*
X117495111Y-48103795D01*
X117444011Y-48240795D01*
X117444011Y-48240797D01*
X117437500Y-48301345D01*
X100075500Y-48301345D01*
X100075500Y-47428092D01*
X100076097Y-47415938D01*
X100087494Y-47300222D01*
X100092234Y-47276389D01*
X100124216Y-47170959D01*
X100133508Y-47148526D01*
X100185442Y-47051365D01*
X100198938Y-47031166D01*
X100268827Y-46946006D01*
X100286006Y-46928827D01*
X100371166Y-46858938D01*
X100391365Y-46845442D01*
X100488526Y-46793508D01*
X100510959Y-46784216D01*
X100616389Y-46752234D01*
X100640220Y-46747494D01*
X100755939Y-46736097D01*
X100768093Y-46735500D01*
X100786531Y-46735500D01*
X163417365Y-46735500D01*
X163484404Y-46755185D01*
G37*
%TD.AperFunction*%
%TD*%
M02*
