%TF.GenerationSoftware,KiCad,Pcbnew,8.0.8*%
%TF.CreationDate,2025-02-03T18:53:19-07:00*%
%TF.ProjectId,Uno_Shield_ThermoPro,556e6f5f-5368-4696-956c-645f54686572,rev?*%
%TF.SameCoordinates,Original*%
%TF.FileFunction,Copper,L1,Top*%
%TF.FilePolarity,Positive*%
%FSLAX46Y46*%
G04 Gerber Fmt 4.6, Leading zero omitted, Abs format (unit mm)*
G04 Created by KiCad (PCBNEW 8.0.8) date 2025-02-03 18:53:19*
%MOMM*%
%LPD*%
G01*
G04 APERTURE LIST*
G04 Aperture macros list*
%AMRoundRect*
0 Rectangle with rounded corners*
0 $1 Rounding radius*
0 $2 $3 $4 $5 $6 $7 $8 $9 X,Y pos of 4 corners*
0 Add a 4 corners polygon primitive as box body*
4,1,4,$2,$3,$4,$5,$6,$7,$8,$9,$2,$3,0*
0 Add four circle primitives for the rounded corners*
1,1,$1+$1,$2,$3*
1,1,$1+$1,$4,$5*
1,1,$1+$1,$6,$7*
1,1,$1+$1,$8,$9*
0 Add four rect primitives between the rounded corners*
20,1,$1+$1,$2,$3,$4,$5,0*
20,1,$1+$1,$4,$5,$6,$7,0*
20,1,$1+$1,$6,$7,$8,$9,0*
20,1,$1+$1,$8,$9,$2,$3,0*%
G04 Aperture macros list end*
%TA.AperFunction,ComponentPad*%
%ADD10R,1.700000X1.700000*%
%TD*%
%TA.AperFunction,ComponentPad*%
%ADD11O,1.700000X1.700000*%
%TD*%
%TA.AperFunction,ComponentPad*%
%ADD12C,2.000000*%
%TD*%
%TA.AperFunction,ComponentPad*%
%ADD13C,1.600000*%
%TD*%
%TA.AperFunction,ComponentPad*%
%ADD14O,1.600000X1.600000*%
%TD*%
%TA.AperFunction,ComponentPad*%
%ADD15C,1.440000*%
%TD*%
%TA.AperFunction,ComponentPad*%
%ADD16RoundRect,0.250000X-0.600000X-0.725000X0.600000X-0.725000X0.600000X0.725000X-0.600000X0.725000X0*%
%TD*%
%TA.AperFunction,ComponentPad*%
%ADD17O,1.700000X1.950000*%
%TD*%
%TA.AperFunction,ComponentPad*%
%ADD18R,1.800000X1.800000*%
%TD*%
%TA.AperFunction,ComponentPad*%
%ADD19C,1.800000*%
%TD*%
%TA.AperFunction,Conductor*%
%ADD20C,0.508000*%
%TD*%
G04 APERTURE END LIST*
D10*
%TO.P,J1,1,Pin_1*%
%TO.N,unconnected-(J1-Pin_1-Pad1)*%
X127940000Y-97460000D03*
D11*
%TO.P,J1,2,Pin_2*%
%TO.N,unconnected-(J1-Pin_2-Pad2)*%
X130480000Y-97460000D03*
%TO.P,J1,3,Pin_3*%
%TO.N,unconnected-(J1-Pin_3-Pad3)*%
X133020000Y-97460000D03*
%TO.P,J1,4,Pin_4*%
%TO.N,+3V3*%
X135560000Y-97460000D03*
%TO.P,J1,5,Pin_5*%
%TO.N,+5V*%
X138100000Y-97460000D03*
%TO.P,J1,6,Pin_6*%
%TO.N,GND*%
X140640000Y-97460000D03*
%TO.P,J1,7,Pin_7*%
X143180000Y-97460000D03*
%TO.P,J1,8,Pin_8*%
%TO.N,VCC*%
X145720000Y-97460000D03*
%TD*%
D10*
%TO.P,J3,1,Pin_1*%
%TO.N,/temp_sensor*%
X150800000Y-97460000D03*
D11*
%TO.P,J3,2,Pin_2*%
%TO.N,unconnected-(J3-Pin_2-Pad2)*%
X153340000Y-97460000D03*
%TO.P,J3,3,Pin_3*%
%TO.N,unconnected-(J3-Pin_3-Pad3)*%
X155880000Y-97460000D03*
%TO.P,J3,4,Pin_4*%
%TO.N,unconnected-(J3-Pin_4-Pad4)*%
X158420000Y-97460000D03*
%TO.P,J3,5,Pin_5*%
%TO.N,unconnected-(J3-Pin_5-Pad5)*%
X160960000Y-97460000D03*
%TO.P,J3,6,Pin_6*%
%TO.N,unconnected-(J3-Pin_6-Pad6)*%
X163500000Y-97460000D03*
%TD*%
D10*
%TO.P,J2,1,Pin_1*%
%TO.N,/I2C_SCL*%
X118796000Y-49200000D03*
D11*
%TO.P,J2,2,Pin_2*%
%TO.N,/I2C_SDA*%
X121336000Y-49200000D03*
%TO.P,J2,3,Pin_3*%
%TO.N,unconnected-(J2-Pin_3-Pad3)*%
X123876000Y-49200000D03*
%TO.P,J2,4,Pin_4*%
%TO.N,GND*%
X126416000Y-49200000D03*
%TO.P,J2,5,Pin_5*%
%TO.N,unconnected-(J2-Pin_5-Pad5)*%
X128956000Y-49200000D03*
%TO.P,J2,6,Pin_6*%
%TO.N,unconnected-(J2-Pin_6-Pad6)*%
X131496000Y-49200000D03*
%TO.P,J2,7,Pin_7*%
%TO.N,unconnected-(J2-Pin_7-Pad7)*%
X134036000Y-49200000D03*
%TO.P,J2,8,Pin_8*%
%TO.N,unconnected-(J2-Pin_8-Pad8)*%
X136576000Y-49200000D03*
%TO.P,J2,9,Pin_9*%
%TO.N,/led_light*%
X139116000Y-49200000D03*
%TO.P,J2,10,Pin_10*%
%TO.N,/temp_digital*%
X141656000Y-49200000D03*
%TD*%
D10*
%TO.P,J4,1,Pin_1*%
%TO.N,unconnected-(J4-Pin_1-Pad1)*%
X145720000Y-49200000D03*
D11*
%TO.P,J4,2,Pin_2*%
%TO.N,/button_units*%
X148260000Y-49200000D03*
%TO.P,J4,3,Pin_3*%
%TO.N,/button_onoff*%
X150800000Y-49200000D03*
%TO.P,J4,4,Pin_4*%
%TO.N,/button_cal*%
X153340000Y-49200000D03*
%TO.P,J4,5,Pin_5*%
%TO.N,/button_lock*%
X155880000Y-49200000D03*
%TO.P,J4,6,Pin_6*%
%TO.N,/button_light*%
X158420000Y-49200000D03*
%TO.P,J4,7,Pin_7*%
%TO.N,unconnected-(J4-Pin_7-Pad7)*%
X160960000Y-49200000D03*
%TO.P,J4,8,Pin_8*%
%TO.N,unconnected-(J4-Pin_8-Pad8)*%
X163500000Y-49200000D03*
%TD*%
D12*
%TO.P,SW1,2,B*%
%TO.N,+5V*%
X151900000Y-74430000D03*
X145400000Y-74430000D03*
%TO.P,SW1,1,A*%
%TO.N,/button_onoff*%
X151900000Y-69930000D03*
X145400000Y-69930000D03*
%TD*%
%TO.P,SW5,1,A*%
%TO.N,/button_light*%
X146260000Y-85680000D03*
X152760000Y-85680000D03*
%TO.P,SW5,2,B*%
%TO.N,+5V*%
X146260000Y-90180000D03*
X152760000Y-90180000D03*
%TD*%
D13*
%TO.P,R6,1*%
%TO.N,/led_light*%
X132570000Y-53020000D03*
D14*
%TO.P,R6,2*%
%TO.N,Net-(D1-A)*%
X132570000Y-63180000D03*
%TD*%
D15*
%TO.P,RV1,1,1*%
%TO.N,+5V*%
X157900000Y-89760000D03*
%TO.P,RV1,2,2*%
%TO.N,/temp_sensor*%
X160440000Y-92300000D03*
%TO.P,RV1,3,3*%
%TO.N,GND*%
X162980000Y-89760000D03*
%TD*%
D10*
%TO.P,J6,1,Pin_1*%
%TO.N,GND*%
X110610000Y-72590000D03*
D11*
%TO.P,J6,2,Pin_2*%
%TO.N,+5V*%
X113150000Y-72590000D03*
%TO.P,J6,3,Pin_3*%
%TO.N,/I2C_SCL*%
X115690000Y-72590000D03*
%TO.P,J6,4,Pin_4*%
%TO.N,/I2C_SDA*%
X118230000Y-72590000D03*
%TD*%
D12*
%TO.P,SW2,1,A*%
%TO.N,/button_units*%
X131660000Y-70640000D03*
X138160000Y-70640000D03*
%TO.P,SW2,2,B*%
%TO.N,+5V*%
X131660000Y-75140000D03*
X138160000Y-75140000D03*
%TD*%
D10*
%TO.P,J5,1,Pin_1*%
%TO.N,+5V*%
X106700000Y-64630000D03*
D11*
%TO.P,J5,2,Pin_2*%
%TO.N,GND*%
X109240000Y-64630000D03*
%TO.P,J5,3,Pin_3*%
%TO.N,/I2C_SCL*%
X111780000Y-64630000D03*
%TO.P,J5,4,Pin_4*%
%TO.N,/I2C_SDA*%
X114320000Y-64630000D03*
%TO.P,J5,5,Pin_5*%
%TO.N,unconnected-(J5-Pin_5-Pad5)*%
X116860000Y-64630000D03*
%TO.P,J5,6,Pin_6*%
%TO.N,unconnected-(J5-Pin_6-Pad6)*%
X119400000Y-64630000D03*
%TO.P,J5,7,Pin_7*%
%TO.N,unconnected-(J5-Pin_7-Pad7)*%
X121940000Y-64630000D03*
%TO.P,J5,8,Pin_8*%
%TO.N,unconnected-(J5-Pin_8-Pad8)*%
X124480000Y-64630000D03*
%TD*%
D12*
%TO.P,SW3,1,A*%
%TO.N,/button_cal*%
X132450000Y-85670000D03*
X138950000Y-85670000D03*
%TO.P,SW3,2,B*%
%TO.N,+5V*%
X132450000Y-90170000D03*
X138950000Y-90170000D03*
%TD*%
D16*
%TO.P,J7,1,Pin_1*%
%TO.N,GND*%
X139050000Y-56725000D03*
D17*
%TO.P,J7,2,Pin_2*%
%TO.N,/temp_digital*%
X141550000Y-56725000D03*
%TO.P,J7,3,Pin_3*%
%TO.N,+5V*%
X144050000Y-56725000D03*
%TD*%
D18*
%TO.P,D1,1,K*%
%TO.N,GND*%
X153490000Y-59550000D03*
D19*
%TO.P,D1,2,A*%
%TO.N,Net-(D1-A)*%
X150950000Y-59550000D03*
%TD*%
D13*
%TO.P,R3,1*%
%TO.N,/button_cal*%
X130820000Y-81960000D03*
D14*
%TO.P,R3,2*%
%TO.N,GND*%
X140980000Y-81960000D03*
%TD*%
D13*
%TO.P,R2,1*%
%TO.N,/button_units*%
X140260000Y-66590000D03*
D14*
%TO.P,R2,2*%
%TO.N,GND*%
X130100000Y-66590000D03*
%TD*%
D12*
%TO.P,SW4,1,A*%
%TO.N,/button_lock*%
X158030000Y-73860000D03*
X164530000Y-73860000D03*
%TO.P,SW4,2,B*%
%TO.N,+5V*%
X158030000Y-78360000D03*
X164530000Y-78360000D03*
%TD*%
D13*
%TO.P,R5,1*%
%TO.N,/button_light*%
X144470000Y-82030000D03*
D14*
%TO.P,R5,2*%
%TO.N,GND*%
X154630000Y-82030000D03*
%TD*%
D13*
%TO.P,R4,1*%
%TO.N,/button_lock*%
X156150000Y-70180000D03*
D14*
%TO.P,R4,2*%
%TO.N,GND*%
X166310000Y-70180000D03*
%TD*%
D13*
%TO.P,R1,1*%
%TO.N,/button_onoff*%
X154020000Y-65980000D03*
D14*
%TO.P,R1,2*%
%TO.N,GND*%
X143860000Y-65980000D03*
%TD*%
D20*
%TO.N,/button_light*%
X158420000Y-51280000D02*
X158420000Y-49200000D01*
X158400000Y-51300000D02*
X158420000Y-51280000D01*
X158400000Y-51600000D02*
X158400000Y-51300000D01*
X161750000Y-67900000D02*
X161750000Y-54950000D01*
X166750000Y-72900000D02*
X161750000Y-67900000D01*
X166750000Y-75500000D02*
X166750000Y-72900000D01*
X156900000Y-76250000D02*
X166000000Y-76250000D01*
X154100000Y-79050000D02*
X156900000Y-76250000D01*
X146150000Y-79050000D02*
X154100000Y-79050000D01*
X144470000Y-80730000D02*
X146150000Y-79050000D01*
X166000000Y-76250000D02*
X166750000Y-75500000D01*
X161750000Y-54950000D02*
X158400000Y-51600000D01*
X144470000Y-82030000D02*
X144470000Y-80730000D01*
%TO.N,+5V*%
X145400000Y-74430000D02*
X151900000Y-74430000D01*
X131250000Y-94600000D02*
X128900000Y-92250000D01*
X156800000Y-79590000D02*
X158030000Y-78360000D01*
X157480000Y-90180000D02*
X157900000Y-89760000D01*
X125400000Y-78100000D02*
X128900000Y-81600000D01*
X128900000Y-86600000D02*
X128900000Y-81600000D01*
X132450000Y-90170000D02*
X128900000Y-86620000D01*
X156800000Y-82900000D02*
X156800000Y-79590000D01*
X158030000Y-78360000D02*
X164530000Y-78360000D01*
X106700000Y-64630000D02*
X106700000Y-66140000D01*
X128900000Y-81600000D02*
X128900000Y-77900000D01*
X138100000Y-97460000D02*
X135240000Y-94600000D01*
X127800000Y-59850000D02*
X127800000Y-71000000D01*
X146260000Y-90180000D02*
X152760000Y-90180000D01*
X135240000Y-94600000D02*
X131250000Y-94600000D01*
X113150000Y-72590000D02*
X118660000Y-78100000D01*
X127800000Y-71000000D02*
X128900000Y-72100000D01*
X140925000Y-59850000D02*
X127800000Y-59850000D01*
X128900000Y-77900000D02*
X131660000Y-75140000D01*
X157900000Y-84000000D02*
X156800000Y-82900000D01*
X118660000Y-78100000D02*
X125400000Y-78100000D01*
X128900000Y-86620000D02*
X128900000Y-86600000D01*
X106700000Y-66140000D02*
X113150000Y-72590000D01*
X131660000Y-75140000D02*
X138160000Y-75140000D01*
X144050000Y-56725000D02*
X140925000Y-59850000D01*
X157900000Y-89760000D02*
X157900000Y-84000000D01*
X132450000Y-90170000D02*
X138950000Y-90170000D01*
X152760000Y-90180000D02*
X157480000Y-90180000D01*
X144690000Y-75140000D02*
X145400000Y-74430000D01*
X138160000Y-75140000D02*
X144690000Y-75140000D01*
X128900000Y-72100000D02*
X128900000Y-77900000D01*
X128900000Y-92250000D02*
X128900000Y-86600000D01*
X138950000Y-90170000D02*
X146250000Y-90170000D01*
%TO.N,/I2C_SCL*%
X115690000Y-70740000D02*
X115690000Y-72590000D01*
X118796000Y-54104000D02*
X111750000Y-61150000D01*
X111780000Y-61180000D02*
X111780000Y-64630000D01*
X115650000Y-70700000D02*
X115690000Y-70740000D01*
X115650000Y-70350000D02*
X115650000Y-70700000D01*
X111780000Y-64630000D02*
X111780000Y-66480000D01*
X111750000Y-61150000D02*
X111780000Y-61180000D01*
X111780000Y-66480000D02*
X115650000Y-70350000D01*
X118796000Y-49200000D02*
X118796000Y-54104000D01*
%TO.N,/I2C_SDA*%
X121350000Y-54150000D02*
X121336000Y-54136000D01*
X118230000Y-68706250D02*
X118230000Y-72590000D01*
X114320000Y-64796250D02*
X118230000Y-68706250D01*
X114320000Y-64630000D02*
X114320000Y-61180000D01*
X121336000Y-54136000D02*
X121336000Y-49200000D01*
X114320000Y-61180000D02*
X121350000Y-54150000D01*
%TO.N,/button_onoff*%
X156050000Y-54500000D02*
X157250000Y-55700000D01*
X157250000Y-55700000D02*
X157250000Y-62750000D01*
X151750000Y-54500000D02*
X156050000Y-54500000D01*
X151900000Y-68100000D02*
X151900000Y-69930000D01*
X157250000Y-62750000D02*
X154020000Y-65980000D01*
X154020000Y-65980000D02*
X151900000Y-68100000D01*
X145400000Y-69930000D02*
X151900000Y-69930000D01*
X150800000Y-49200000D02*
X150800000Y-53550000D01*
X150800000Y-53550000D02*
X151750000Y-54500000D01*
%TO.N,/button_lock*%
X160000000Y-55250000D02*
X160142000Y-55250000D01*
X156150000Y-71980000D02*
X158030000Y-73860000D01*
X160142000Y-55250000D02*
X160142000Y-64558000D01*
X155880000Y-51130000D02*
X160000000Y-55250000D01*
X155880000Y-49200000D02*
X155880000Y-51130000D01*
X158030000Y-73860000D02*
X164530000Y-73860000D01*
X160142000Y-64558000D02*
X156150000Y-68550000D01*
X156150000Y-70180000D02*
X156150000Y-71980000D01*
X156150000Y-68550000D02*
X156150000Y-70180000D01*
%TO.N,/button_light*%
X144470000Y-83890000D02*
X146260000Y-85680000D01*
X144470000Y-82030000D02*
X144470000Y-83890000D01*
X146260000Y-85680000D02*
X152760000Y-85680000D01*
%TO.N,/button_units*%
X140260000Y-68540000D02*
X138160000Y-70640000D01*
X140260000Y-66590000D02*
X143400000Y-63450000D01*
X131660000Y-70640000D02*
X138160000Y-70640000D01*
X149950000Y-55650000D02*
X148260000Y-53960000D01*
X155200000Y-55650000D02*
X149950000Y-55650000D01*
X140260000Y-66590000D02*
X140260000Y-68540000D01*
X156300000Y-56750000D02*
X155200000Y-55650000D01*
X156300000Y-62300000D02*
X156300000Y-56750000D01*
X143400000Y-63450000D02*
X155150000Y-63450000D01*
X155150000Y-63450000D02*
X156300000Y-62300000D01*
X148260000Y-53960000D02*
X148260000Y-49200000D01*
%TO.N,/button_cal*%
X130820000Y-81960000D02*
X130820000Y-84040000D01*
X143650000Y-79750000D02*
X133030000Y-79750000D01*
X153550000Y-76450000D02*
X152000000Y-78000000D01*
X156540000Y-53390000D02*
X158400000Y-55250000D01*
X158400000Y-55250000D02*
X158400000Y-64500000D01*
X153340000Y-49200000D02*
X153340000Y-53390000D01*
X133030000Y-79750000D02*
X130820000Y-81960000D01*
X153340000Y-53390000D02*
X156540000Y-53390000D01*
X132450000Y-85670000D02*
X138950000Y-85670000D01*
X153650000Y-76450000D02*
X153550000Y-76450000D01*
X152000000Y-78000000D02*
X145400000Y-78000000D01*
X145400000Y-78000000D02*
X143650000Y-79750000D01*
X130820000Y-84040000D02*
X132450000Y-85670000D01*
X153650000Y-69250000D02*
X153650000Y-76450000D01*
X158400000Y-64500000D02*
X153650000Y-69250000D01*
%TO.N,Net-(D1-A)*%
X142450000Y-62400000D02*
X148100000Y-62400000D01*
X132570000Y-63180000D02*
X141670000Y-63180000D01*
X148100000Y-62400000D02*
X150950000Y-59550000D01*
X141670000Y-63180000D02*
X142450000Y-62400000D01*
%TO.N,/led_light*%
X139116000Y-49200000D02*
X135296000Y-53020000D01*
X135296000Y-53020000D02*
X132570000Y-53020000D01*
%TO.N,/temp_sensor*%
X150800000Y-96300000D02*
X150800000Y-97460000D01*
X152300000Y-94800000D02*
X150800000Y-96300000D01*
X156350000Y-92300000D02*
X153850000Y-94800000D01*
X153850000Y-94800000D02*
X152300000Y-94800000D01*
X160440000Y-92300000D02*
X156350000Y-92300000D01*
%TO.N,/temp_digital*%
X141656000Y-49200000D02*
X141656000Y-56619000D01*
%TD*%
M02*
