%TF.GenerationSoftware,KiCad,Pcbnew,8.0.8*%
%TF.CreationDate,2025-02-03T18:53:19-07:00*%
%TF.ProjectId,Uno_Shield_ThermoPro,556e6f5f-5368-4696-956c-645f54686572,rev?*%
%TF.SameCoordinates,Original*%
%TF.FileFunction,Legend,Top*%
%TF.FilePolarity,Positive*%
%FSLAX46Y46*%
G04 Gerber Fmt 4.6, Leading zero omitted, Abs format (unit mm)*
G04 Created by KiCad (PCBNEW 8.0.8) date 2025-02-03 18:53:19*
%MOMM*%
%LPD*%
G01*
G04 APERTURE LIST*
%ADD10C,0.150000*%
%ADD11C,0.120000*%
%ADD12C,0.000000*%
G04 APERTURE END LIST*
D10*
X136886779Y-95088866D02*
X137648684Y-95088866D01*
X137267731Y-95469819D02*
X137267731Y-94707914D01*
X138601064Y-94469819D02*
X138124874Y-94469819D01*
X138124874Y-94469819D02*
X138077255Y-94946009D01*
X138077255Y-94946009D02*
X138124874Y-94898390D01*
X138124874Y-94898390D02*
X138220112Y-94850771D01*
X138220112Y-94850771D02*
X138458207Y-94850771D01*
X138458207Y-94850771D02*
X138553445Y-94898390D01*
X138553445Y-94898390D02*
X138601064Y-94946009D01*
X138601064Y-94946009D02*
X138648683Y-95041247D01*
X138648683Y-95041247D02*
X138648683Y-95279342D01*
X138648683Y-95279342D02*
X138601064Y-95374580D01*
X138601064Y-95374580D02*
X138553445Y-95422200D01*
X138553445Y-95422200D02*
X138458207Y-95469819D01*
X138458207Y-95469819D02*
X138220112Y-95469819D01*
X138220112Y-95469819D02*
X138124874Y-95422200D01*
X138124874Y-95422200D02*
X138077255Y-95374580D01*
X138934398Y-94469819D02*
X139267731Y-95469819D01*
X139267731Y-95469819D02*
X139601064Y-94469819D01*
X126460000Y-51440000D02*
X126460000Y-58940000D01*
X128070000Y-94890000D02*
X128070000Y-71090000D01*
X100770000Y-98890000D02*
X100770000Y-71090000D01*
X104460000Y-49440000D02*
X107460000Y-49440000D01*
X125040000Y-98890000D02*
X100769968Y-98930000D01*
X125040000Y-94890000D02*
X125040000Y-98890000D01*
X104460000Y-49440000D02*
X104460000Y-52440000D01*
X125040000Y-94890000D02*
X128040000Y-94890000D01*
X114527255Y-96369819D02*
X114717731Y-96369819D01*
X114717731Y-96369819D02*
X114812969Y-96417438D01*
X114812969Y-96417438D02*
X114908207Y-96512676D01*
X114908207Y-96512676D02*
X114955826Y-96703152D01*
X114955826Y-96703152D02*
X114955826Y-97036485D01*
X114955826Y-97036485D02*
X114908207Y-97226961D01*
X114908207Y-97226961D02*
X114812969Y-97322200D01*
X114812969Y-97322200D02*
X114717731Y-97369819D01*
X114717731Y-97369819D02*
X114527255Y-97369819D01*
X114527255Y-97369819D02*
X114432017Y-97322200D01*
X114432017Y-97322200D02*
X114336779Y-97226961D01*
X114336779Y-97226961D02*
X114289160Y-97036485D01*
X114289160Y-97036485D02*
X114289160Y-96703152D01*
X114289160Y-96703152D02*
X114336779Y-96512676D01*
X114336779Y-96512676D02*
X114432017Y-96417438D01*
X114432017Y-96417438D02*
X114527255Y-96369819D01*
X115860588Y-97369819D02*
X115384398Y-97369819D01*
X115384398Y-97369819D02*
X115384398Y-96369819D01*
X116193922Y-96846009D02*
X116527255Y-96846009D01*
X116670112Y-97369819D02*
X116193922Y-97369819D01*
X116193922Y-97369819D02*
X116193922Y-96369819D01*
X116193922Y-96369819D02*
X116670112Y-96369819D01*
X117098684Y-97369819D02*
X117098684Y-96369819D01*
X117098684Y-96369819D02*
X117336779Y-96369819D01*
X117336779Y-96369819D02*
X117479636Y-96417438D01*
X117479636Y-96417438D02*
X117574874Y-96512676D01*
X117574874Y-96512676D02*
X117622493Y-96607914D01*
X117622493Y-96607914D02*
X117670112Y-96798390D01*
X117670112Y-96798390D02*
X117670112Y-96941247D01*
X117670112Y-96941247D02*
X117622493Y-97131723D01*
X117622493Y-97131723D02*
X117574874Y-97226961D01*
X117574874Y-97226961D02*
X117479636Y-97322200D01*
X117479636Y-97322200D02*
X117336779Y-97369819D01*
X117336779Y-97369819D02*
X117098684Y-97369819D01*
X118812970Y-97322200D02*
X118955827Y-97369819D01*
X118955827Y-97369819D02*
X119193922Y-97369819D01*
X119193922Y-97369819D02*
X119289160Y-97322200D01*
X119289160Y-97322200D02*
X119336779Y-97274580D01*
X119336779Y-97274580D02*
X119384398Y-97179342D01*
X119384398Y-97179342D02*
X119384398Y-97084104D01*
X119384398Y-97084104D02*
X119336779Y-96988866D01*
X119336779Y-96988866D02*
X119289160Y-96941247D01*
X119289160Y-96941247D02*
X119193922Y-96893628D01*
X119193922Y-96893628D02*
X119003446Y-96846009D01*
X119003446Y-96846009D02*
X118908208Y-96798390D01*
X118908208Y-96798390D02*
X118860589Y-96750771D01*
X118860589Y-96750771D02*
X118812970Y-96655533D01*
X118812970Y-96655533D02*
X118812970Y-96560295D01*
X118812970Y-96560295D02*
X118860589Y-96465057D01*
X118860589Y-96465057D02*
X118908208Y-96417438D01*
X118908208Y-96417438D02*
X119003446Y-96369819D01*
X119003446Y-96369819D02*
X119241541Y-96369819D01*
X119241541Y-96369819D02*
X119384398Y-96417438D01*
X120384398Y-97274580D02*
X120336779Y-97322200D01*
X120336779Y-97322200D02*
X120193922Y-97369819D01*
X120193922Y-97369819D02*
X120098684Y-97369819D01*
X120098684Y-97369819D02*
X119955827Y-97322200D01*
X119955827Y-97322200D02*
X119860589Y-97226961D01*
X119860589Y-97226961D02*
X119812970Y-97131723D01*
X119812970Y-97131723D02*
X119765351Y-96941247D01*
X119765351Y-96941247D02*
X119765351Y-96798390D01*
X119765351Y-96798390D02*
X119812970Y-96607914D01*
X119812970Y-96607914D02*
X119860589Y-96512676D01*
X119860589Y-96512676D02*
X119955827Y-96417438D01*
X119955827Y-96417438D02*
X120098684Y-96369819D01*
X120098684Y-96369819D02*
X120193922Y-96369819D01*
X120193922Y-96369819D02*
X120336779Y-96417438D01*
X120336779Y-96417438D02*
X120384398Y-96465057D01*
X121384398Y-97369819D02*
X121051065Y-96893628D01*
X120812970Y-97369819D02*
X120812970Y-96369819D01*
X120812970Y-96369819D02*
X121193922Y-96369819D01*
X121193922Y-96369819D02*
X121289160Y-96417438D01*
X121289160Y-96417438D02*
X121336779Y-96465057D01*
X121336779Y-96465057D02*
X121384398Y-96560295D01*
X121384398Y-96560295D02*
X121384398Y-96703152D01*
X121384398Y-96703152D02*
X121336779Y-96798390D01*
X121336779Y-96798390D02*
X121289160Y-96846009D01*
X121289160Y-96846009D02*
X121193922Y-96893628D01*
X121193922Y-96893628D02*
X120812970Y-96893628D01*
X121812970Y-96846009D02*
X122146303Y-96846009D01*
X122289160Y-97369819D02*
X121812970Y-97369819D01*
X121812970Y-97369819D02*
X121812970Y-96369819D01*
X121812970Y-96369819D02*
X122289160Y-96369819D01*
X122717732Y-96846009D02*
X123051065Y-96846009D01*
X123193922Y-97369819D02*
X122717732Y-97369819D01*
X122717732Y-97369819D02*
X122717732Y-96369819D01*
X122717732Y-96369819D02*
X123193922Y-96369819D01*
X123622494Y-97369819D02*
X123622494Y-96369819D01*
X123622494Y-96369819D02*
X124193922Y-97369819D01*
X124193922Y-97369819D02*
X124193922Y-96369819D01*
X105836779Y-51869819D02*
X105836779Y-50869819D01*
X105836779Y-50869819D02*
X106170112Y-51584104D01*
X106170112Y-51584104D02*
X106503445Y-50869819D01*
X106503445Y-50869819D02*
X106503445Y-51869819D01*
X106979636Y-51869819D02*
X106979636Y-50869819D01*
X106979636Y-50869819D02*
X107360588Y-50869819D01*
X107360588Y-50869819D02*
X107455826Y-50917438D01*
X107455826Y-50917438D02*
X107503445Y-50965057D01*
X107503445Y-50965057D02*
X107551064Y-51060295D01*
X107551064Y-51060295D02*
X107551064Y-51203152D01*
X107551064Y-51203152D02*
X107503445Y-51298390D01*
X107503445Y-51298390D02*
X107455826Y-51346009D01*
X107455826Y-51346009D02*
X107360588Y-51393628D01*
X107360588Y-51393628D02*
X106979636Y-51393628D01*
X107979636Y-50869819D02*
X107979636Y-51679342D01*
X107979636Y-51679342D02*
X108027255Y-51774580D01*
X108027255Y-51774580D02*
X108074874Y-51822200D01*
X108074874Y-51822200D02*
X108170112Y-51869819D01*
X108170112Y-51869819D02*
X108360588Y-51869819D01*
X108360588Y-51869819D02*
X108455826Y-51822200D01*
X108455826Y-51822200D02*
X108503445Y-51774580D01*
X108503445Y-51774580D02*
X108551064Y-51679342D01*
X108551064Y-51679342D02*
X108551064Y-50869819D01*
X109455826Y-50869819D02*
X109265350Y-50869819D01*
X109265350Y-50869819D02*
X109170112Y-50917438D01*
X109170112Y-50917438D02*
X109122493Y-50965057D01*
X109122493Y-50965057D02*
X109027255Y-51107914D01*
X109027255Y-51107914D02*
X108979636Y-51298390D01*
X108979636Y-51298390D02*
X108979636Y-51679342D01*
X108979636Y-51679342D02*
X109027255Y-51774580D01*
X109027255Y-51774580D02*
X109074874Y-51822200D01*
X109074874Y-51822200D02*
X109170112Y-51869819D01*
X109170112Y-51869819D02*
X109360588Y-51869819D01*
X109360588Y-51869819D02*
X109455826Y-51822200D01*
X109455826Y-51822200D02*
X109503445Y-51774580D01*
X109503445Y-51774580D02*
X109551064Y-51679342D01*
X109551064Y-51679342D02*
X109551064Y-51441247D01*
X109551064Y-51441247D02*
X109503445Y-51346009D01*
X109503445Y-51346009D02*
X109455826Y-51298390D01*
X109455826Y-51298390D02*
X109360588Y-51250771D01*
X109360588Y-51250771D02*
X109170112Y-51250771D01*
X109170112Y-51250771D02*
X109074874Y-51298390D01*
X109074874Y-51298390D02*
X109027255Y-51346009D01*
X109027255Y-51346009D02*
X108979636Y-51441247D01*
X110170112Y-50869819D02*
X110265350Y-50869819D01*
X110265350Y-50869819D02*
X110360588Y-50917438D01*
X110360588Y-50917438D02*
X110408207Y-50965057D01*
X110408207Y-50965057D02*
X110455826Y-51060295D01*
X110455826Y-51060295D02*
X110503445Y-51250771D01*
X110503445Y-51250771D02*
X110503445Y-51488866D01*
X110503445Y-51488866D02*
X110455826Y-51679342D01*
X110455826Y-51679342D02*
X110408207Y-51774580D01*
X110408207Y-51774580D02*
X110360588Y-51822200D01*
X110360588Y-51822200D02*
X110265350Y-51869819D01*
X110265350Y-51869819D02*
X110170112Y-51869819D01*
X110170112Y-51869819D02*
X110074874Y-51822200D01*
X110074874Y-51822200D02*
X110027255Y-51774580D01*
X110027255Y-51774580D02*
X109979636Y-51679342D01*
X109979636Y-51679342D02*
X109932017Y-51488866D01*
X109932017Y-51488866D02*
X109932017Y-51250771D01*
X109932017Y-51250771D02*
X109979636Y-51060295D01*
X109979636Y-51060295D02*
X110027255Y-50965057D01*
X110027255Y-50965057D02*
X110074874Y-50917438D01*
X110074874Y-50917438D02*
X110170112Y-50869819D01*
X111408207Y-50869819D02*
X110932017Y-50869819D01*
X110932017Y-50869819D02*
X110884398Y-51346009D01*
X110884398Y-51346009D02*
X110932017Y-51298390D01*
X110932017Y-51298390D02*
X111027255Y-51250771D01*
X111027255Y-51250771D02*
X111265350Y-51250771D01*
X111265350Y-51250771D02*
X111360588Y-51298390D01*
X111360588Y-51298390D02*
X111408207Y-51346009D01*
X111408207Y-51346009D02*
X111455826Y-51441247D01*
X111455826Y-51441247D02*
X111455826Y-51679342D01*
X111455826Y-51679342D02*
X111408207Y-51774580D01*
X111408207Y-51774580D02*
X111360588Y-51822200D01*
X111360588Y-51822200D02*
X111265350Y-51869819D01*
X111265350Y-51869819D02*
X111027255Y-51869819D01*
X111027255Y-51869819D02*
X110932017Y-51822200D01*
X110932017Y-51822200D02*
X110884398Y-51774580D01*
X112074874Y-50869819D02*
X112170112Y-50869819D01*
X112170112Y-50869819D02*
X112265350Y-50917438D01*
X112265350Y-50917438D02*
X112312969Y-50965057D01*
X112312969Y-50965057D02*
X112360588Y-51060295D01*
X112360588Y-51060295D02*
X112408207Y-51250771D01*
X112408207Y-51250771D02*
X112408207Y-51488866D01*
X112408207Y-51488866D02*
X112360588Y-51679342D01*
X112360588Y-51679342D02*
X112312969Y-51774580D01*
X112312969Y-51774580D02*
X112265350Y-51822200D01*
X112265350Y-51822200D02*
X112170112Y-51869819D01*
X112170112Y-51869819D02*
X112074874Y-51869819D01*
X112074874Y-51869819D02*
X111979636Y-51822200D01*
X111979636Y-51822200D02*
X111932017Y-51774580D01*
X111932017Y-51774580D02*
X111884398Y-51679342D01*
X111884398Y-51679342D02*
X111836779Y-51488866D01*
X111836779Y-51488866D02*
X111836779Y-51250771D01*
X111836779Y-51250771D02*
X111884398Y-51060295D01*
X111884398Y-51060295D02*
X111932017Y-50965057D01*
X111932017Y-50965057D02*
X111979636Y-50917438D01*
X111979636Y-50917438D02*
X112074874Y-50869819D01*
X148465350Y-50919819D02*
X148274874Y-50919819D01*
X148274874Y-50919819D02*
X148179636Y-50967438D01*
X148179636Y-50967438D02*
X148132017Y-51015057D01*
X148132017Y-51015057D02*
X148036779Y-51157914D01*
X148036779Y-51157914D02*
X147989160Y-51348390D01*
X147989160Y-51348390D02*
X147989160Y-51729342D01*
X147989160Y-51729342D02*
X148036779Y-51824580D01*
X148036779Y-51824580D02*
X148084398Y-51872200D01*
X148084398Y-51872200D02*
X148179636Y-51919819D01*
X148179636Y-51919819D02*
X148370112Y-51919819D01*
X148370112Y-51919819D02*
X148465350Y-51872200D01*
X148465350Y-51872200D02*
X148512969Y-51824580D01*
X148512969Y-51824580D02*
X148560588Y-51729342D01*
X148560588Y-51729342D02*
X148560588Y-51491247D01*
X148560588Y-51491247D02*
X148512969Y-51396009D01*
X148512969Y-51396009D02*
X148465350Y-51348390D01*
X148465350Y-51348390D02*
X148370112Y-51300771D01*
X148370112Y-51300771D02*
X148179636Y-51300771D01*
X148179636Y-51300771D02*
X148084398Y-51348390D01*
X148084398Y-51348390D02*
X148036779Y-51396009D01*
X148036779Y-51396009D02*
X147989160Y-51491247D01*
X145812969Y-93369819D02*
X145336779Y-93369819D01*
X145336779Y-93369819D02*
X145336779Y-92369819D01*
X146146303Y-93369819D02*
X146146303Y-92703152D01*
X146146303Y-92369819D02*
X146098684Y-92417438D01*
X146098684Y-92417438D02*
X146146303Y-92465057D01*
X146146303Y-92465057D02*
X146193922Y-92417438D01*
X146193922Y-92417438D02*
X146146303Y-92369819D01*
X146146303Y-92369819D02*
X146146303Y-92465057D01*
X147051064Y-92703152D02*
X147051064Y-93512676D01*
X147051064Y-93512676D02*
X147003445Y-93607914D01*
X147003445Y-93607914D02*
X146955826Y-93655533D01*
X146955826Y-93655533D02*
X146860588Y-93703152D01*
X146860588Y-93703152D02*
X146717731Y-93703152D01*
X146717731Y-93703152D02*
X146622493Y-93655533D01*
X147051064Y-93322200D02*
X146955826Y-93369819D01*
X146955826Y-93369819D02*
X146765350Y-93369819D01*
X146765350Y-93369819D02*
X146670112Y-93322200D01*
X146670112Y-93322200D02*
X146622493Y-93274580D01*
X146622493Y-93274580D02*
X146574874Y-93179342D01*
X146574874Y-93179342D02*
X146574874Y-92893628D01*
X146574874Y-92893628D02*
X146622493Y-92798390D01*
X146622493Y-92798390D02*
X146670112Y-92750771D01*
X146670112Y-92750771D02*
X146765350Y-92703152D01*
X146765350Y-92703152D02*
X146955826Y-92703152D01*
X146955826Y-92703152D02*
X147051064Y-92750771D01*
X147527255Y-93369819D02*
X147527255Y-92369819D01*
X147955826Y-93369819D02*
X147955826Y-92846009D01*
X147955826Y-92846009D02*
X147908207Y-92750771D01*
X147908207Y-92750771D02*
X147812969Y-92703152D01*
X147812969Y-92703152D02*
X147670112Y-92703152D01*
X147670112Y-92703152D02*
X147574874Y-92750771D01*
X147574874Y-92750771D02*
X147527255Y-92798390D01*
X148289160Y-92703152D02*
X148670112Y-92703152D01*
X148432017Y-92369819D02*
X148432017Y-93226961D01*
X148432017Y-93226961D02*
X148479636Y-93322200D01*
X148479636Y-93322200D02*
X148574874Y-93369819D01*
X148574874Y-93369819D02*
X148670112Y-93369819D01*
X150098684Y-92846009D02*
X150241541Y-92893628D01*
X150241541Y-92893628D02*
X150289160Y-92941247D01*
X150289160Y-92941247D02*
X150336779Y-93036485D01*
X150336779Y-93036485D02*
X150336779Y-93179342D01*
X150336779Y-93179342D02*
X150289160Y-93274580D01*
X150289160Y-93274580D02*
X150241541Y-93322200D01*
X150241541Y-93322200D02*
X150146303Y-93369819D01*
X150146303Y-93369819D02*
X149765351Y-93369819D01*
X149765351Y-93369819D02*
X149765351Y-92369819D01*
X149765351Y-92369819D02*
X150098684Y-92369819D01*
X150098684Y-92369819D02*
X150193922Y-92417438D01*
X150193922Y-92417438D02*
X150241541Y-92465057D01*
X150241541Y-92465057D02*
X150289160Y-92560295D01*
X150289160Y-92560295D02*
X150289160Y-92655533D01*
X150289160Y-92655533D02*
X150241541Y-92750771D01*
X150241541Y-92750771D02*
X150193922Y-92798390D01*
X150193922Y-92798390D02*
X150098684Y-92846009D01*
X150098684Y-92846009D02*
X149765351Y-92846009D01*
X151193922Y-92703152D02*
X151193922Y-93369819D01*
X150765351Y-92703152D02*
X150765351Y-93226961D01*
X150765351Y-93226961D02*
X150812970Y-93322200D01*
X150812970Y-93322200D02*
X150908208Y-93369819D01*
X150908208Y-93369819D02*
X151051065Y-93369819D01*
X151051065Y-93369819D02*
X151146303Y-93322200D01*
X151146303Y-93322200D02*
X151193922Y-93274580D01*
X151527256Y-92703152D02*
X151908208Y-92703152D01*
X151670113Y-92369819D02*
X151670113Y-93226961D01*
X151670113Y-93226961D02*
X151717732Y-93322200D01*
X151717732Y-93322200D02*
X151812970Y-93369819D01*
X151812970Y-93369819D02*
X151908208Y-93369819D01*
X152098685Y-92703152D02*
X152479637Y-92703152D01*
X152241542Y-92369819D02*
X152241542Y-93226961D01*
X152241542Y-93226961D02*
X152289161Y-93322200D01*
X152289161Y-93322200D02*
X152384399Y-93369819D01*
X152384399Y-93369819D02*
X152479637Y-93369819D01*
X152955828Y-93369819D02*
X152860590Y-93322200D01*
X152860590Y-93322200D02*
X152812971Y-93274580D01*
X152812971Y-93274580D02*
X152765352Y-93179342D01*
X152765352Y-93179342D02*
X152765352Y-92893628D01*
X152765352Y-92893628D02*
X152812971Y-92798390D01*
X152812971Y-92798390D02*
X152860590Y-92750771D01*
X152860590Y-92750771D02*
X152955828Y-92703152D01*
X152955828Y-92703152D02*
X153098685Y-92703152D01*
X153098685Y-92703152D02*
X153193923Y-92750771D01*
X153193923Y-92750771D02*
X153241542Y-92798390D01*
X153241542Y-92798390D02*
X153289161Y-92893628D01*
X153289161Y-92893628D02*
X153289161Y-93179342D01*
X153289161Y-93179342D02*
X153241542Y-93274580D01*
X153241542Y-93274580D02*
X153193923Y-93322200D01*
X153193923Y-93322200D02*
X153098685Y-93369819D01*
X153098685Y-93369819D02*
X152955828Y-93369819D01*
X153717733Y-92703152D02*
X153717733Y-93369819D01*
X153717733Y-92798390D02*
X153765352Y-92750771D01*
X153765352Y-92750771D02*
X153860590Y-92703152D01*
X153860590Y-92703152D02*
X154003447Y-92703152D01*
X154003447Y-92703152D02*
X154098685Y-92750771D01*
X154098685Y-92750771D02*
X154146304Y-92846009D01*
X154146304Y-92846009D02*
X154146304Y-93369819D01*
X130836779Y-77369819D02*
X130836779Y-78179342D01*
X130836779Y-78179342D02*
X130884398Y-78274580D01*
X130884398Y-78274580D02*
X130932017Y-78322200D01*
X130932017Y-78322200D02*
X131027255Y-78369819D01*
X131027255Y-78369819D02*
X131217731Y-78369819D01*
X131217731Y-78369819D02*
X131312969Y-78322200D01*
X131312969Y-78322200D02*
X131360588Y-78274580D01*
X131360588Y-78274580D02*
X131408207Y-78179342D01*
X131408207Y-78179342D02*
X131408207Y-77369819D01*
X131884398Y-77703152D02*
X131884398Y-78369819D01*
X131884398Y-77798390D02*
X131932017Y-77750771D01*
X131932017Y-77750771D02*
X132027255Y-77703152D01*
X132027255Y-77703152D02*
X132170112Y-77703152D01*
X132170112Y-77703152D02*
X132265350Y-77750771D01*
X132265350Y-77750771D02*
X132312969Y-77846009D01*
X132312969Y-77846009D02*
X132312969Y-78369819D01*
X132789160Y-78369819D02*
X132789160Y-77703152D01*
X132789160Y-77369819D02*
X132741541Y-77417438D01*
X132741541Y-77417438D02*
X132789160Y-77465057D01*
X132789160Y-77465057D02*
X132836779Y-77417438D01*
X132836779Y-77417438D02*
X132789160Y-77369819D01*
X132789160Y-77369819D02*
X132789160Y-77465057D01*
X133122493Y-77703152D02*
X133503445Y-77703152D01*
X133265350Y-77369819D02*
X133265350Y-78226961D01*
X133265350Y-78226961D02*
X133312969Y-78322200D01*
X133312969Y-78322200D02*
X133408207Y-78369819D01*
X133408207Y-78369819D02*
X133503445Y-78369819D01*
X133789160Y-78322200D02*
X133884398Y-78369819D01*
X133884398Y-78369819D02*
X134074874Y-78369819D01*
X134074874Y-78369819D02*
X134170112Y-78322200D01*
X134170112Y-78322200D02*
X134217731Y-78226961D01*
X134217731Y-78226961D02*
X134217731Y-78179342D01*
X134217731Y-78179342D02*
X134170112Y-78084104D01*
X134170112Y-78084104D02*
X134074874Y-78036485D01*
X134074874Y-78036485D02*
X133932017Y-78036485D01*
X133932017Y-78036485D02*
X133836779Y-77988866D01*
X133836779Y-77988866D02*
X133789160Y-77893628D01*
X133789160Y-77893628D02*
X133789160Y-77846009D01*
X133789160Y-77846009D02*
X133836779Y-77750771D01*
X133836779Y-77750771D02*
X133932017Y-77703152D01*
X133932017Y-77703152D02*
X134074874Y-77703152D01*
X134074874Y-77703152D02*
X134170112Y-77750771D01*
X135741541Y-77846009D02*
X135884398Y-77893628D01*
X135884398Y-77893628D02*
X135932017Y-77941247D01*
X135932017Y-77941247D02*
X135979636Y-78036485D01*
X135979636Y-78036485D02*
X135979636Y-78179342D01*
X135979636Y-78179342D02*
X135932017Y-78274580D01*
X135932017Y-78274580D02*
X135884398Y-78322200D01*
X135884398Y-78322200D02*
X135789160Y-78369819D01*
X135789160Y-78369819D02*
X135408208Y-78369819D01*
X135408208Y-78369819D02*
X135408208Y-77369819D01*
X135408208Y-77369819D02*
X135741541Y-77369819D01*
X135741541Y-77369819D02*
X135836779Y-77417438D01*
X135836779Y-77417438D02*
X135884398Y-77465057D01*
X135884398Y-77465057D02*
X135932017Y-77560295D01*
X135932017Y-77560295D02*
X135932017Y-77655533D01*
X135932017Y-77655533D02*
X135884398Y-77750771D01*
X135884398Y-77750771D02*
X135836779Y-77798390D01*
X135836779Y-77798390D02*
X135741541Y-77846009D01*
X135741541Y-77846009D02*
X135408208Y-77846009D01*
X136836779Y-77703152D02*
X136836779Y-78369819D01*
X136408208Y-77703152D02*
X136408208Y-78226961D01*
X136408208Y-78226961D02*
X136455827Y-78322200D01*
X136455827Y-78322200D02*
X136551065Y-78369819D01*
X136551065Y-78369819D02*
X136693922Y-78369819D01*
X136693922Y-78369819D02*
X136789160Y-78322200D01*
X136789160Y-78322200D02*
X136836779Y-78274580D01*
X137170113Y-77703152D02*
X137551065Y-77703152D01*
X137312970Y-77369819D02*
X137312970Y-78226961D01*
X137312970Y-78226961D02*
X137360589Y-78322200D01*
X137360589Y-78322200D02*
X137455827Y-78369819D01*
X137455827Y-78369819D02*
X137551065Y-78369819D01*
X137741542Y-77703152D02*
X138122494Y-77703152D01*
X137884399Y-77369819D02*
X137884399Y-78226961D01*
X137884399Y-78226961D02*
X137932018Y-78322200D01*
X137932018Y-78322200D02*
X138027256Y-78369819D01*
X138027256Y-78369819D02*
X138122494Y-78369819D01*
X138598685Y-78369819D02*
X138503447Y-78322200D01*
X138503447Y-78322200D02*
X138455828Y-78274580D01*
X138455828Y-78274580D02*
X138408209Y-78179342D01*
X138408209Y-78179342D02*
X138408209Y-77893628D01*
X138408209Y-77893628D02*
X138455828Y-77798390D01*
X138455828Y-77798390D02*
X138503447Y-77750771D01*
X138503447Y-77750771D02*
X138598685Y-77703152D01*
X138598685Y-77703152D02*
X138741542Y-77703152D01*
X138741542Y-77703152D02*
X138836780Y-77750771D01*
X138836780Y-77750771D02*
X138884399Y-77798390D01*
X138884399Y-77798390D02*
X138932018Y-77893628D01*
X138932018Y-77893628D02*
X138932018Y-78179342D01*
X138932018Y-78179342D02*
X138884399Y-78274580D01*
X138884399Y-78274580D02*
X138836780Y-78322200D01*
X138836780Y-78322200D02*
X138741542Y-78369819D01*
X138741542Y-78369819D02*
X138598685Y-78369819D01*
X139360590Y-77703152D02*
X139360590Y-78369819D01*
X139360590Y-77798390D02*
X139408209Y-77750771D01*
X139408209Y-77750771D02*
X139503447Y-77703152D01*
X139503447Y-77703152D02*
X139646304Y-77703152D01*
X139646304Y-77703152D02*
X139741542Y-77750771D01*
X139741542Y-77750771D02*
X139789161Y-77846009D01*
X139789161Y-77846009D02*
X139789161Y-78369819D01*
X131408207Y-93274580D02*
X131360588Y-93322200D01*
X131360588Y-93322200D02*
X131217731Y-93369819D01*
X131217731Y-93369819D02*
X131122493Y-93369819D01*
X131122493Y-93369819D02*
X130979636Y-93322200D01*
X130979636Y-93322200D02*
X130884398Y-93226961D01*
X130884398Y-93226961D02*
X130836779Y-93131723D01*
X130836779Y-93131723D02*
X130789160Y-92941247D01*
X130789160Y-92941247D02*
X130789160Y-92798390D01*
X130789160Y-92798390D02*
X130836779Y-92607914D01*
X130836779Y-92607914D02*
X130884398Y-92512676D01*
X130884398Y-92512676D02*
X130979636Y-92417438D01*
X130979636Y-92417438D02*
X131122493Y-92369819D01*
X131122493Y-92369819D02*
X131217731Y-92369819D01*
X131217731Y-92369819D02*
X131360588Y-92417438D01*
X131360588Y-92417438D02*
X131408207Y-92465057D01*
X132265350Y-93369819D02*
X132265350Y-92846009D01*
X132265350Y-92846009D02*
X132217731Y-92750771D01*
X132217731Y-92750771D02*
X132122493Y-92703152D01*
X132122493Y-92703152D02*
X131932017Y-92703152D01*
X131932017Y-92703152D02*
X131836779Y-92750771D01*
X132265350Y-93322200D02*
X132170112Y-93369819D01*
X132170112Y-93369819D02*
X131932017Y-93369819D01*
X131932017Y-93369819D02*
X131836779Y-93322200D01*
X131836779Y-93322200D02*
X131789160Y-93226961D01*
X131789160Y-93226961D02*
X131789160Y-93131723D01*
X131789160Y-93131723D02*
X131836779Y-93036485D01*
X131836779Y-93036485D02*
X131932017Y-92988866D01*
X131932017Y-92988866D02*
X132170112Y-92988866D01*
X132170112Y-92988866D02*
X132265350Y-92941247D01*
X132884398Y-93369819D02*
X132789160Y-93322200D01*
X132789160Y-93322200D02*
X132741541Y-93226961D01*
X132741541Y-93226961D02*
X132741541Y-92369819D01*
X134360589Y-92846009D02*
X134503446Y-92893628D01*
X134503446Y-92893628D02*
X134551065Y-92941247D01*
X134551065Y-92941247D02*
X134598684Y-93036485D01*
X134598684Y-93036485D02*
X134598684Y-93179342D01*
X134598684Y-93179342D02*
X134551065Y-93274580D01*
X134551065Y-93274580D02*
X134503446Y-93322200D01*
X134503446Y-93322200D02*
X134408208Y-93369819D01*
X134408208Y-93369819D02*
X134027256Y-93369819D01*
X134027256Y-93369819D02*
X134027256Y-92369819D01*
X134027256Y-92369819D02*
X134360589Y-92369819D01*
X134360589Y-92369819D02*
X134455827Y-92417438D01*
X134455827Y-92417438D02*
X134503446Y-92465057D01*
X134503446Y-92465057D02*
X134551065Y-92560295D01*
X134551065Y-92560295D02*
X134551065Y-92655533D01*
X134551065Y-92655533D02*
X134503446Y-92750771D01*
X134503446Y-92750771D02*
X134455827Y-92798390D01*
X134455827Y-92798390D02*
X134360589Y-92846009D01*
X134360589Y-92846009D02*
X134027256Y-92846009D01*
X135455827Y-92703152D02*
X135455827Y-93369819D01*
X135027256Y-92703152D02*
X135027256Y-93226961D01*
X135027256Y-93226961D02*
X135074875Y-93322200D01*
X135074875Y-93322200D02*
X135170113Y-93369819D01*
X135170113Y-93369819D02*
X135312970Y-93369819D01*
X135312970Y-93369819D02*
X135408208Y-93322200D01*
X135408208Y-93322200D02*
X135455827Y-93274580D01*
X135789161Y-92703152D02*
X136170113Y-92703152D01*
X135932018Y-92369819D02*
X135932018Y-93226961D01*
X135932018Y-93226961D02*
X135979637Y-93322200D01*
X135979637Y-93322200D02*
X136074875Y-93369819D01*
X136074875Y-93369819D02*
X136170113Y-93369819D01*
X136360590Y-92703152D02*
X136741542Y-92703152D01*
X136503447Y-92369819D02*
X136503447Y-93226961D01*
X136503447Y-93226961D02*
X136551066Y-93322200D01*
X136551066Y-93322200D02*
X136646304Y-93369819D01*
X136646304Y-93369819D02*
X136741542Y-93369819D01*
X137217733Y-93369819D02*
X137122495Y-93322200D01*
X137122495Y-93322200D02*
X137074876Y-93274580D01*
X137074876Y-93274580D02*
X137027257Y-93179342D01*
X137027257Y-93179342D02*
X137027257Y-92893628D01*
X137027257Y-92893628D02*
X137074876Y-92798390D01*
X137074876Y-92798390D02*
X137122495Y-92750771D01*
X137122495Y-92750771D02*
X137217733Y-92703152D01*
X137217733Y-92703152D02*
X137360590Y-92703152D01*
X137360590Y-92703152D02*
X137455828Y-92750771D01*
X137455828Y-92750771D02*
X137503447Y-92798390D01*
X137503447Y-92798390D02*
X137551066Y-92893628D01*
X137551066Y-92893628D02*
X137551066Y-93179342D01*
X137551066Y-93179342D02*
X137503447Y-93274580D01*
X137503447Y-93274580D02*
X137455828Y-93322200D01*
X137455828Y-93322200D02*
X137360590Y-93369819D01*
X137360590Y-93369819D02*
X137217733Y-93369819D01*
X137979638Y-92703152D02*
X137979638Y-93369819D01*
X137979638Y-92798390D02*
X138027257Y-92750771D01*
X138027257Y-92750771D02*
X138122495Y-92703152D01*
X138122495Y-92703152D02*
X138265352Y-92703152D01*
X138265352Y-92703152D02*
X138360590Y-92750771D01*
X138360590Y-92750771D02*
X138408209Y-92846009D01*
X138408209Y-92846009D02*
X138408209Y-93369819D01*
X141629636Y-51098390D02*
X141534398Y-51050771D01*
X141534398Y-51050771D02*
X141486779Y-51003152D01*
X141486779Y-51003152D02*
X141439160Y-50907914D01*
X141439160Y-50907914D02*
X141439160Y-50860295D01*
X141439160Y-50860295D02*
X141486779Y-50765057D01*
X141486779Y-50765057D02*
X141534398Y-50717438D01*
X141534398Y-50717438D02*
X141629636Y-50669819D01*
X141629636Y-50669819D02*
X141820112Y-50669819D01*
X141820112Y-50669819D02*
X141915350Y-50717438D01*
X141915350Y-50717438D02*
X141962969Y-50765057D01*
X141962969Y-50765057D02*
X142010588Y-50860295D01*
X142010588Y-50860295D02*
X142010588Y-50907914D01*
X142010588Y-50907914D02*
X141962969Y-51003152D01*
X141962969Y-51003152D02*
X141915350Y-51050771D01*
X141915350Y-51050771D02*
X141820112Y-51098390D01*
X141820112Y-51098390D02*
X141629636Y-51098390D01*
X141629636Y-51098390D02*
X141534398Y-51146009D01*
X141534398Y-51146009D02*
X141486779Y-51193628D01*
X141486779Y-51193628D02*
X141439160Y-51288866D01*
X141439160Y-51288866D02*
X141439160Y-51479342D01*
X141439160Y-51479342D02*
X141486779Y-51574580D01*
X141486779Y-51574580D02*
X141534398Y-51622200D01*
X141534398Y-51622200D02*
X141629636Y-51669819D01*
X141629636Y-51669819D02*
X141820112Y-51669819D01*
X141820112Y-51669819D02*
X141915350Y-51622200D01*
X141915350Y-51622200D02*
X141962969Y-51574580D01*
X141962969Y-51574580D02*
X142010588Y-51479342D01*
X142010588Y-51479342D02*
X142010588Y-51288866D01*
X142010588Y-51288866D02*
X141962969Y-51193628D01*
X141962969Y-51193628D02*
X141915350Y-51146009D01*
X141915350Y-51146009D02*
X141820112Y-51098390D01*
X146527255Y-76369819D02*
X146717731Y-76369819D01*
X146717731Y-76369819D02*
X146812969Y-76417438D01*
X146812969Y-76417438D02*
X146908207Y-76512676D01*
X146908207Y-76512676D02*
X146955826Y-76703152D01*
X146955826Y-76703152D02*
X146955826Y-77036485D01*
X146955826Y-77036485D02*
X146908207Y-77226961D01*
X146908207Y-77226961D02*
X146812969Y-77322200D01*
X146812969Y-77322200D02*
X146717731Y-77369819D01*
X146717731Y-77369819D02*
X146527255Y-77369819D01*
X146527255Y-77369819D02*
X146432017Y-77322200D01*
X146432017Y-77322200D02*
X146336779Y-77226961D01*
X146336779Y-77226961D02*
X146289160Y-77036485D01*
X146289160Y-77036485D02*
X146289160Y-76703152D01*
X146289160Y-76703152D02*
X146336779Y-76512676D01*
X146336779Y-76512676D02*
X146432017Y-76417438D01*
X146432017Y-76417438D02*
X146527255Y-76369819D01*
X147384398Y-76703152D02*
X147384398Y-77369819D01*
X147384398Y-76798390D02*
X147432017Y-76750771D01*
X147432017Y-76750771D02*
X147527255Y-76703152D01*
X147527255Y-76703152D02*
X147670112Y-76703152D01*
X147670112Y-76703152D02*
X147765350Y-76750771D01*
X147765350Y-76750771D02*
X147812969Y-76846009D01*
X147812969Y-76846009D02*
X147812969Y-77369819D01*
X149003445Y-76322200D02*
X148146303Y-77607914D01*
X149527255Y-76369819D02*
X149717731Y-76369819D01*
X149717731Y-76369819D02*
X149812969Y-76417438D01*
X149812969Y-76417438D02*
X149908207Y-76512676D01*
X149908207Y-76512676D02*
X149955826Y-76703152D01*
X149955826Y-76703152D02*
X149955826Y-77036485D01*
X149955826Y-77036485D02*
X149908207Y-77226961D01*
X149908207Y-77226961D02*
X149812969Y-77322200D01*
X149812969Y-77322200D02*
X149717731Y-77369819D01*
X149717731Y-77369819D02*
X149527255Y-77369819D01*
X149527255Y-77369819D02*
X149432017Y-77322200D01*
X149432017Y-77322200D02*
X149336779Y-77226961D01*
X149336779Y-77226961D02*
X149289160Y-77036485D01*
X149289160Y-77036485D02*
X149289160Y-76703152D01*
X149289160Y-76703152D02*
X149336779Y-76512676D01*
X149336779Y-76512676D02*
X149432017Y-76417438D01*
X149432017Y-76417438D02*
X149527255Y-76369819D01*
X150241541Y-76703152D02*
X150622493Y-76703152D01*
X150384398Y-77369819D02*
X150384398Y-76512676D01*
X150384398Y-76512676D02*
X150432017Y-76417438D01*
X150432017Y-76417438D02*
X150527255Y-76369819D01*
X150527255Y-76369819D02*
X150622493Y-76369819D01*
X150812970Y-76703152D02*
X151193922Y-76703152D01*
X150955827Y-77369819D02*
X150955827Y-76512676D01*
X150955827Y-76512676D02*
X151003446Y-76417438D01*
X151003446Y-76417438D02*
X151098684Y-76369819D01*
X151098684Y-76369819D02*
X151193922Y-76369819D01*
X138934398Y-51719819D02*
X139124874Y-51719819D01*
X139124874Y-51719819D02*
X139220112Y-51672200D01*
X139220112Y-51672200D02*
X139267731Y-51624580D01*
X139267731Y-51624580D02*
X139362969Y-51481723D01*
X139362969Y-51481723D02*
X139410588Y-51291247D01*
X139410588Y-51291247D02*
X139410588Y-50910295D01*
X139410588Y-50910295D02*
X139362969Y-50815057D01*
X139362969Y-50815057D02*
X139315350Y-50767438D01*
X139315350Y-50767438D02*
X139220112Y-50719819D01*
X139220112Y-50719819D02*
X139029636Y-50719819D01*
X139029636Y-50719819D02*
X138934398Y-50767438D01*
X138934398Y-50767438D02*
X138886779Y-50815057D01*
X138886779Y-50815057D02*
X138839160Y-50910295D01*
X138839160Y-50910295D02*
X138839160Y-51148390D01*
X138839160Y-51148390D02*
X138886779Y-51243628D01*
X138886779Y-51243628D02*
X138934398Y-51291247D01*
X138934398Y-51291247D02*
X139029636Y-51338866D01*
X139029636Y-51338866D02*
X139220112Y-51338866D01*
X139220112Y-51338866D02*
X139315350Y-51291247D01*
X139315350Y-51291247D02*
X139362969Y-51243628D01*
X139362969Y-51243628D02*
X139410588Y-51148390D01*
X158312969Y-81369819D02*
X157836779Y-81369819D01*
X157836779Y-81369819D02*
X157836779Y-80369819D01*
X158789160Y-81369819D02*
X158693922Y-81322200D01*
X158693922Y-81322200D02*
X158646303Y-81274580D01*
X158646303Y-81274580D02*
X158598684Y-81179342D01*
X158598684Y-81179342D02*
X158598684Y-80893628D01*
X158598684Y-80893628D02*
X158646303Y-80798390D01*
X158646303Y-80798390D02*
X158693922Y-80750771D01*
X158693922Y-80750771D02*
X158789160Y-80703152D01*
X158789160Y-80703152D02*
X158932017Y-80703152D01*
X158932017Y-80703152D02*
X159027255Y-80750771D01*
X159027255Y-80750771D02*
X159074874Y-80798390D01*
X159074874Y-80798390D02*
X159122493Y-80893628D01*
X159122493Y-80893628D02*
X159122493Y-81179342D01*
X159122493Y-81179342D02*
X159074874Y-81274580D01*
X159074874Y-81274580D02*
X159027255Y-81322200D01*
X159027255Y-81322200D02*
X158932017Y-81369819D01*
X158932017Y-81369819D02*
X158789160Y-81369819D01*
X159979636Y-81322200D02*
X159884398Y-81369819D01*
X159884398Y-81369819D02*
X159693922Y-81369819D01*
X159693922Y-81369819D02*
X159598684Y-81322200D01*
X159598684Y-81322200D02*
X159551065Y-81274580D01*
X159551065Y-81274580D02*
X159503446Y-81179342D01*
X159503446Y-81179342D02*
X159503446Y-80893628D01*
X159503446Y-80893628D02*
X159551065Y-80798390D01*
X159551065Y-80798390D02*
X159598684Y-80750771D01*
X159598684Y-80750771D02*
X159693922Y-80703152D01*
X159693922Y-80703152D02*
X159884398Y-80703152D01*
X159884398Y-80703152D02*
X159979636Y-80750771D01*
X160408208Y-81369819D02*
X160408208Y-80369819D01*
X160503446Y-80988866D02*
X160789160Y-81369819D01*
X160789160Y-80703152D02*
X160408208Y-81084104D01*
X162312970Y-80846009D02*
X162455827Y-80893628D01*
X162455827Y-80893628D02*
X162503446Y-80941247D01*
X162503446Y-80941247D02*
X162551065Y-81036485D01*
X162551065Y-81036485D02*
X162551065Y-81179342D01*
X162551065Y-81179342D02*
X162503446Y-81274580D01*
X162503446Y-81274580D02*
X162455827Y-81322200D01*
X162455827Y-81322200D02*
X162360589Y-81369819D01*
X162360589Y-81369819D02*
X161979637Y-81369819D01*
X161979637Y-81369819D02*
X161979637Y-80369819D01*
X161979637Y-80369819D02*
X162312970Y-80369819D01*
X162312970Y-80369819D02*
X162408208Y-80417438D01*
X162408208Y-80417438D02*
X162455827Y-80465057D01*
X162455827Y-80465057D02*
X162503446Y-80560295D01*
X162503446Y-80560295D02*
X162503446Y-80655533D01*
X162503446Y-80655533D02*
X162455827Y-80750771D01*
X162455827Y-80750771D02*
X162408208Y-80798390D01*
X162408208Y-80798390D02*
X162312970Y-80846009D01*
X162312970Y-80846009D02*
X161979637Y-80846009D01*
X163408208Y-80703152D02*
X163408208Y-81369819D01*
X162979637Y-80703152D02*
X162979637Y-81226961D01*
X162979637Y-81226961D02*
X163027256Y-81322200D01*
X163027256Y-81322200D02*
X163122494Y-81369819D01*
X163122494Y-81369819D02*
X163265351Y-81369819D01*
X163265351Y-81369819D02*
X163360589Y-81322200D01*
X163360589Y-81322200D02*
X163408208Y-81274580D01*
X163741542Y-80703152D02*
X164122494Y-80703152D01*
X163884399Y-80369819D02*
X163884399Y-81226961D01*
X163884399Y-81226961D02*
X163932018Y-81322200D01*
X163932018Y-81322200D02*
X164027256Y-81369819D01*
X164027256Y-81369819D02*
X164122494Y-81369819D01*
X164312971Y-80703152D02*
X164693923Y-80703152D01*
X164455828Y-80369819D02*
X164455828Y-81226961D01*
X164455828Y-81226961D02*
X164503447Y-81322200D01*
X164503447Y-81322200D02*
X164598685Y-81369819D01*
X164598685Y-81369819D02*
X164693923Y-81369819D01*
X165170114Y-81369819D02*
X165074876Y-81322200D01*
X165074876Y-81322200D02*
X165027257Y-81274580D01*
X165027257Y-81274580D02*
X164979638Y-81179342D01*
X164979638Y-81179342D02*
X164979638Y-80893628D01*
X164979638Y-80893628D02*
X165027257Y-80798390D01*
X165027257Y-80798390D02*
X165074876Y-80750771D01*
X165074876Y-80750771D02*
X165170114Y-80703152D01*
X165170114Y-80703152D02*
X165312971Y-80703152D01*
X165312971Y-80703152D02*
X165408209Y-80750771D01*
X165408209Y-80750771D02*
X165455828Y-80798390D01*
X165455828Y-80798390D02*
X165503447Y-80893628D01*
X165503447Y-80893628D02*
X165503447Y-81179342D01*
X165503447Y-81179342D02*
X165455828Y-81274580D01*
X165455828Y-81274580D02*
X165408209Y-81322200D01*
X165408209Y-81322200D02*
X165312971Y-81369819D01*
X165312971Y-81369819D02*
X165170114Y-81369819D01*
X165932019Y-80703152D02*
X165932019Y-81369819D01*
X165932019Y-80798390D02*
X165979638Y-80750771D01*
X165979638Y-80750771D02*
X166074876Y-80703152D01*
X166074876Y-80703152D02*
X166217733Y-80703152D01*
X166217733Y-80703152D02*
X166312971Y-80750771D01*
X166312971Y-80750771D02*
X166360590Y-80846009D01*
X166360590Y-80846009D02*
X166360590Y-81369819D01*
X155741541Y-50969819D02*
X156360588Y-50969819D01*
X156360588Y-50969819D02*
X156027255Y-51350771D01*
X156027255Y-51350771D02*
X156170112Y-51350771D01*
X156170112Y-51350771D02*
X156265350Y-51398390D01*
X156265350Y-51398390D02*
X156312969Y-51446009D01*
X156312969Y-51446009D02*
X156360588Y-51541247D01*
X156360588Y-51541247D02*
X156360588Y-51779342D01*
X156360588Y-51779342D02*
X156312969Y-51874580D01*
X156312969Y-51874580D02*
X156265350Y-51922200D01*
X156265350Y-51922200D02*
X156170112Y-51969819D01*
X156170112Y-51969819D02*
X155884398Y-51969819D01*
X155884398Y-51969819D02*
X155789160Y-51922200D01*
X155789160Y-51922200D02*
X155741541Y-51874580D01*
X165160012Y-53143922D02*
X165160012Y-53715350D01*
X164160012Y-53429636D02*
X165160012Y-53429636D01*
X164160012Y-54048684D02*
X165160012Y-54048684D01*
X164160012Y-54477255D02*
X164683822Y-54477255D01*
X164683822Y-54477255D02*
X164779060Y-54429636D01*
X164779060Y-54429636D02*
X164826679Y-54334398D01*
X164826679Y-54334398D02*
X164826679Y-54191541D01*
X164826679Y-54191541D02*
X164779060Y-54096303D01*
X164779060Y-54096303D02*
X164731441Y-54048684D01*
X164207632Y-55334398D02*
X164160012Y-55239160D01*
X164160012Y-55239160D02*
X164160012Y-55048684D01*
X164160012Y-55048684D02*
X164207632Y-54953446D01*
X164207632Y-54953446D02*
X164302870Y-54905827D01*
X164302870Y-54905827D02*
X164683822Y-54905827D01*
X164683822Y-54905827D02*
X164779060Y-54953446D01*
X164779060Y-54953446D02*
X164826679Y-55048684D01*
X164826679Y-55048684D02*
X164826679Y-55239160D01*
X164826679Y-55239160D02*
X164779060Y-55334398D01*
X164779060Y-55334398D02*
X164683822Y-55382017D01*
X164683822Y-55382017D02*
X164588584Y-55382017D01*
X164588584Y-55382017D02*
X164493346Y-54905827D01*
X164160012Y-55810589D02*
X164826679Y-55810589D01*
X164636203Y-55810589D02*
X164731441Y-55858208D01*
X164731441Y-55858208D02*
X164779060Y-55905827D01*
X164779060Y-55905827D02*
X164826679Y-56001065D01*
X164826679Y-56001065D02*
X164826679Y-56096303D01*
X164160012Y-56429637D02*
X164826679Y-56429637D01*
X164731441Y-56429637D02*
X164779060Y-56477256D01*
X164779060Y-56477256D02*
X164826679Y-56572494D01*
X164826679Y-56572494D02*
X164826679Y-56715351D01*
X164826679Y-56715351D02*
X164779060Y-56810589D01*
X164779060Y-56810589D02*
X164683822Y-56858208D01*
X164683822Y-56858208D02*
X164160012Y-56858208D01*
X164683822Y-56858208D02*
X164779060Y-56905827D01*
X164779060Y-56905827D02*
X164826679Y-57001065D01*
X164826679Y-57001065D02*
X164826679Y-57143922D01*
X164826679Y-57143922D02*
X164779060Y-57239161D01*
X164779060Y-57239161D02*
X164683822Y-57286780D01*
X164683822Y-57286780D02*
X164160012Y-57286780D01*
X164160012Y-57905827D02*
X164207632Y-57810589D01*
X164207632Y-57810589D02*
X164255251Y-57762970D01*
X164255251Y-57762970D02*
X164350489Y-57715351D01*
X164350489Y-57715351D02*
X164636203Y-57715351D01*
X164636203Y-57715351D02*
X164731441Y-57762970D01*
X164731441Y-57762970D02*
X164779060Y-57810589D01*
X164779060Y-57810589D02*
X164826679Y-57905827D01*
X164826679Y-57905827D02*
X164826679Y-58048684D01*
X164826679Y-58048684D02*
X164779060Y-58143922D01*
X164779060Y-58143922D02*
X164731441Y-58191541D01*
X164731441Y-58191541D02*
X164636203Y-58239160D01*
X164636203Y-58239160D02*
X164350489Y-58239160D01*
X164350489Y-58239160D02*
X164255251Y-58191541D01*
X164255251Y-58191541D02*
X164207632Y-58143922D01*
X164207632Y-58143922D02*
X164160012Y-58048684D01*
X164160012Y-58048684D02*
X164160012Y-57905827D01*
X164160012Y-58667732D02*
X165160012Y-58667732D01*
X165160012Y-58667732D02*
X165160012Y-59048684D01*
X165160012Y-59048684D02*
X165112393Y-59143922D01*
X165112393Y-59143922D02*
X165064774Y-59191541D01*
X165064774Y-59191541D02*
X164969536Y-59239160D01*
X164969536Y-59239160D02*
X164826679Y-59239160D01*
X164826679Y-59239160D02*
X164731441Y-59191541D01*
X164731441Y-59191541D02*
X164683822Y-59143922D01*
X164683822Y-59143922D02*
X164636203Y-59048684D01*
X164636203Y-59048684D02*
X164636203Y-58667732D01*
X164160012Y-59667732D02*
X164826679Y-59667732D01*
X164636203Y-59667732D02*
X164731441Y-59715351D01*
X164731441Y-59715351D02*
X164779060Y-59762970D01*
X164779060Y-59762970D02*
X164826679Y-59858208D01*
X164826679Y-59858208D02*
X164826679Y-59953446D01*
X164160012Y-60429637D02*
X164207632Y-60334399D01*
X164207632Y-60334399D02*
X164255251Y-60286780D01*
X164255251Y-60286780D02*
X164350489Y-60239161D01*
X164350489Y-60239161D02*
X164636203Y-60239161D01*
X164636203Y-60239161D02*
X164731441Y-60286780D01*
X164731441Y-60286780D02*
X164779060Y-60334399D01*
X164779060Y-60334399D02*
X164826679Y-60429637D01*
X164826679Y-60429637D02*
X164826679Y-60572494D01*
X164826679Y-60572494D02*
X164779060Y-60667732D01*
X164779060Y-60667732D02*
X164731441Y-60715351D01*
X164731441Y-60715351D02*
X164636203Y-60762970D01*
X164636203Y-60762970D02*
X164350489Y-60762970D01*
X164350489Y-60762970D02*
X164255251Y-60715351D01*
X164255251Y-60715351D02*
X164207632Y-60667732D01*
X164207632Y-60667732D02*
X164160012Y-60572494D01*
X164160012Y-60572494D02*
X164160012Y-60429637D01*
X164160012Y-61191542D02*
X165160012Y-61191542D01*
X164779060Y-61191542D02*
X164826679Y-61286780D01*
X164826679Y-61286780D02*
X164826679Y-61477256D01*
X164826679Y-61477256D02*
X164779060Y-61572494D01*
X164779060Y-61572494D02*
X164731441Y-61620113D01*
X164731441Y-61620113D02*
X164636203Y-61667732D01*
X164636203Y-61667732D02*
X164350489Y-61667732D01*
X164350489Y-61667732D02*
X164255251Y-61620113D01*
X164255251Y-61620113D02*
X164207632Y-61572494D01*
X164207632Y-61572494D02*
X164160012Y-61477256D01*
X164160012Y-61477256D02*
X164160012Y-61286780D01*
X164160012Y-61286780D02*
X164207632Y-61191542D01*
X164207632Y-62477256D02*
X164160012Y-62382018D01*
X164160012Y-62382018D02*
X164160012Y-62191542D01*
X164160012Y-62191542D02*
X164207632Y-62096304D01*
X164207632Y-62096304D02*
X164302870Y-62048685D01*
X164302870Y-62048685D02*
X164683822Y-62048685D01*
X164683822Y-62048685D02*
X164779060Y-62096304D01*
X164779060Y-62096304D02*
X164826679Y-62191542D01*
X164826679Y-62191542D02*
X164826679Y-62382018D01*
X164826679Y-62382018D02*
X164779060Y-62477256D01*
X164779060Y-62477256D02*
X164683822Y-62524875D01*
X164683822Y-62524875D02*
X164588584Y-62524875D01*
X164588584Y-62524875D02*
X164493346Y-62048685D01*
X163550068Y-53143922D02*
X162550068Y-53477255D01*
X162550068Y-53477255D02*
X163550068Y-53810588D01*
X162597688Y-54524874D02*
X162550068Y-54429636D01*
X162550068Y-54429636D02*
X162550068Y-54239160D01*
X162550068Y-54239160D02*
X162597688Y-54143922D01*
X162597688Y-54143922D02*
X162692926Y-54096303D01*
X162692926Y-54096303D02*
X163073878Y-54096303D01*
X163073878Y-54096303D02*
X163169116Y-54143922D01*
X163169116Y-54143922D02*
X163216735Y-54239160D01*
X163216735Y-54239160D02*
X163216735Y-54429636D01*
X163216735Y-54429636D02*
X163169116Y-54524874D01*
X163169116Y-54524874D02*
X163073878Y-54572493D01*
X163073878Y-54572493D02*
X162978640Y-54572493D01*
X162978640Y-54572493D02*
X162883402Y-54096303D01*
X162550068Y-55001065D02*
X163216735Y-55001065D01*
X163026259Y-55001065D02*
X163121497Y-55048684D01*
X163121497Y-55048684D02*
X163169116Y-55096303D01*
X163169116Y-55096303D02*
X163216735Y-55191541D01*
X163216735Y-55191541D02*
X163216735Y-55286779D01*
X162597688Y-55572494D02*
X162550068Y-55667732D01*
X162550068Y-55667732D02*
X162550068Y-55858208D01*
X162550068Y-55858208D02*
X162597688Y-55953446D01*
X162597688Y-55953446D02*
X162692926Y-56001065D01*
X162692926Y-56001065D02*
X162740545Y-56001065D01*
X162740545Y-56001065D02*
X162835783Y-55953446D01*
X162835783Y-55953446D02*
X162883402Y-55858208D01*
X162883402Y-55858208D02*
X162883402Y-55715351D01*
X162883402Y-55715351D02*
X162931021Y-55620113D01*
X162931021Y-55620113D02*
X163026259Y-55572494D01*
X163026259Y-55572494D02*
X163073878Y-55572494D01*
X163073878Y-55572494D02*
X163169116Y-55620113D01*
X163169116Y-55620113D02*
X163216735Y-55715351D01*
X163216735Y-55715351D02*
X163216735Y-55858208D01*
X163216735Y-55858208D02*
X163169116Y-55953446D01*
X162550068Y-56429637D02*
X163216735Y-56429637D01*
X163550068Y-56429637D02*
X163502449Y-56382018D01*
X163502449Y-56382018D02*
X163454830Y-56429637D01*
X163454830Y-56429637D02*
X163502449Y-56477256D01*
X163502449Y-56477256D02*
X163550068Y-56429637D01*
X163550068Y-56429637D02*
X163454830Y-56429637D01*
X162550068Y-57048684D02*
X162597688Y-56953446D01*
X162597688Y-56953446D02*
X162645307Y-56905827D01*
X162645307Y-56905827D02*
X162740545Y-56858208D01*
X162740545Y-56858208D02*
X163026259Y-56858208D01*
X163026259Y-56858208D02*
X163121497Y-56905827D01*
X163121497Y-56905827D02*
X163169116Y-56953446D01*
X163169116Y-56953446D02*
X163216735Y-57048684D01*
X163216735Y-57048684D02*
X163216735Y-57191541D01*
X163216735Y-57191541D02*
X163169116Y-57286779D01*
X163169116Y-57286779D02*
X163121497Y-57334398D01*
X163121497Y-57334398D02*
X163026259Y-57382017D01*
X163026259Y-57382017D02*
X162740545Y-57382017D01*
X162740545Y-57382017D02*
X162645307Y-57334398D01*
X162645307Y-57334398D02*
X162597688Y-57286779D01*
X162597688Y-57286779D02*
X162550068Y-57191541D01*
X162550068Y-57191541D02*
X162550068Y-57048684D01*
X163216735Y-57810589D02*
X162550068Y-57810589D01*
X163121497Y-57810589D02*
X163169116Y-57858208D01*
X163169116Y-57858208D02*
X163216735Y-57953446D01*
X163216735Y-57953446D02*
X163216735Y-58096303D01*
X163216735Y-58096303D02*
X163169116Y-58191541D01*
X163169116Y-58191541D02*
X163073878Y-58239160D01*
X163073878Y-58239160D02*
X162550068Y-58239160D01*
X162550068Y-60001065D02*
X162550068Y-59429637D01*
X162550068Y-59715351D02*
X163550068Y-59715351D01*
X163550068Y-59715351D02*
X163407211Y-59620113D01*
X163407211Y-59620113D02*
X163311973Y-59524875D01*
X163311973Y-59524875D02*
X163264354Y-59429637D01*
X161940124Y-53477255D02*
X161940124Y-53572493D01*
X161940124Y-53572493D02*
X161892505Y-53667731D01*
X161892505Y-53667731D02*
X161844886Y-53715350D01*
X161844886Y-53715350D02*
X161749648Y-53762969D01*
X161749648Y-53762969D02*
X161559172Y-53810588D01*
X161559172Y-53810588D02*
X161321077Y-53810588D01*
X161321077Y-53810588D02*
X161130601Y-53762969D01*
X161130601Y-53762969D02*
X161035363Y-53715350D01*
X161035363Y-53715350D02*
X160987744Y-53667731D01*
X160987744Y-53667731D02*
X160940124Y-53572493D01*
X160940124Y-53572493D02*
X160940124Y-53477255D01*
X160940124Y-53477255D02*
X160987744Y-53382017D01*
X160987744Y-53382017D02*
X161035363Y-53334398D01*
X161035363Y-53334398D02*
X161130601Y-53286779D01*
X161130601Y-53286779D02*
X161321077Y-53239160D01*
X161321077Y-53239160D02*
X161559172Y-53239160D01*
X161559172Y-53239160D02*
X161749648Y-53286779D01*
X161749648Y-53286779D02*
X161844886Y-53334398D01*
X161844886Y-53334398D02*
X161892505Y-53382017D01*
X161892505Y-53382017D02*
X161940124Y-53477255D01*
X161844886Y-54191541D02*
X161892505Y-54239160D01*
X161892505Y-54239160D02*
X161940124Y-54334398D01*
X161940124Y-54334398D02*
X161940124Y-54572493D01*
X161940124Y-54572493D02*
X161892505Y-54667731D01*
X161892505Y-54667731D02*
X161844886Y-54715350D01*
X161844886Y-54715350D02*
X161749648Y-54762969D01*
X161749648Y-54762969D02*
X161654410Y-54762969D01*
X161654410Y-54762969D02*
X161511553Y-54715350D01*
X161511553Y-54715350D02*
X160940124Y-54143922D01*
X160940124Y-54143922D02*
X160940124Y-54762969D01*
X161321077Y-55191541D02*
X161321077Y-55953446D01*
X161940124Y-56620112D02*
X161940124Y-56715350D01*
X161940124Y-56715350D02*
X161892505Y-56810588D01*
X161892505Y-56810588D02*
X161844886Y-56858207D01*
X161844886Y-56858207D02*
X161749648Y-56905826D01*
X161749648Y-56905826D02*
X161559172Y-56953445D01*
X161559172Y-56953445D02*
X161321077Y-56953445D01*
X161321077Y-56953445D02*
X161130601Y-56905826D01*
X161130601Y-56905826D02*
X161035363Y-56858207D01*
X161035363Y-56858207D02*
X160987744Y-56810588D01*
X160987744Y-56810588D02*
X160940124Y-56715350D01*
X160940124Y-56715350D02*
X160940124Y-56620112D01*
X160940124Y-56620112D02*
X160987744Y-56524874D01*
X160987744Y-56524874D02*
X161035363Y-56477255D01*
X161035363Y-56477255D02*
X161130601Y-56429636D01*
X161130601Y-56429636D02*
X161321077Y-56382017D01*
X161321077Y-56382017D02*
X161559172Y-56382017D01*
X161559172Y-56382017D02*
X161749648Y-56429636D01*
X161749648Y-56429636D02*
X161844886Y-56477255D01*
X161844886Y-56477255D02*
X161892505Y-56524874D01*
X161892505Y-56524874D02*
X161940124Y-56620112D01*
X161940124Y-57286779D02*
X161940124Y-57905826D01*
X161940124Y-57905826D02*
X161559172Y-57572493D01*
X161559172Y-57572493D02*
X161559172Y-57715350D01*
X161559172Y-57715350D02*
X161511553Y-57810588D01*
X161511553Y-57810588D02*
X161463934Y-57858207D01*
X161463934Y-57858207D02*
X161368696Y-57905826D01*
X161368696Y-57905826D02*
X161130601Y-57905826D01*
X161130601Y-57905826D02*
X161035363Y-57858207D01*
X161035363Y-57858207D02*
X160987744Y-57810588D01*
X160987744Y-57810588D02*
X160940124Y-57715350D01*
X160940124Y-57715350D02*
X160940124Y-57429636D01*
X160940124Y-57429636D02*
X160987744Y-57334398D01*
X160987744Y-57334398D02*
X161035363Y-57286779D01*
X161321077Y-58334398D02*
X161321077Y-59096303D01*
X161844886Y-59524874D02*
X161892505Y-59572493D01*
X161892505Y-59572493D02*
X161940124Y-59667731D01*
X161940124Y-59667731D02*
X161940124Y-59905826D01*
X161940124Y-59905826D02*
X161892505Y-60001064D01*
X161892505Y-60001064D02*
X161844886Y-60048683D01*
X161844886Y-60048683D02*
X161749648Y-60096302D01*
X161749648Y-60096302D02*
X161654410Y-60096302D01*
X161654410Y-60096302D02*
X161511553Y-60048683D01*
X161511553Y-60048683D02*
X160940124Y-59477255D01*
X160940124Y-59477255D02*
X160940124Y-60096302D01*
X161940124Y-60715350D02*
X161940124Y-60810588D01*
X161940124Y-60810588D02*
X161892505Y-60905826D01*
X161892505Y-60905826D02*
X161844886Y-60953445D01*
X161844886Y-60953445D02*
X161749648Y-61001064D01*
X161749648Y-61001064D02*
X161559172Y-61048683D01*
X161559172Y-61048683D02*
X161321077Y-61048683D01*
X161321077Y-61048683D02*
X161130601Y-61001064D01*
X161130601Y-61001064D02*
X161035363Y-60953445D01*
X161035363Y-60953445D02*
X160987744Y-60905826D01*
X160987744Y-60905826D02*
X160940124Y-60810588D01*
X160940124Y-60810588D02*
X160940124Y-60715350D01*
X160940124Y-60715350D02*
X160987744Y-60620112D01*
X160987744Y-60620112D02*
X161035363Y-60572493D01*
X161035363Y-60572493D02*
X161130601Y-60524874D01*
X161130601Y-60524874D02*
X161321077Y-60477255D01*
X161321077Y-60477255D02*
X161559172Y-60477255D01*
X161559172Y-60477255D02*
X161749648Y-60524874D01*
X161749648Y-60524874D02*
X161844886Y-60572493D01*
X161844886Y-60572493D02*
X161892505Y-60620112D01*
X161892505Y-60620112D02*
X161940124Y-60715350D01*
X161844886Y-61429636D02*
X161892505Y-61477255D01*
X161892505Y-61477255D02*
X161940124Y-61572493D01*
X161940124Y-61572493D02*
X161940124Y-61810588D01*
X161940124Y-61810588D02*
X161892505Y-61905826D01*
X161892505Y-61905826D02*
X161844886Y-61953445D01*
X161844886Y-61953445D02*
X161749648Y-62001064D01*
X161749648Y-62001064D02*
X161654410Y-62001064D01*
X161654410Y-62001064D02*
X161511553Y-61953445D01*
X161511553Y-61953445D02*
X160940124Y-61382017D01*
X160940124Y-61382017D02*
X160940124Y-62001064D01*
X161940124Y-62905826D02*
X161940124Y-62429636D01*
X161940124Y-62429636D02*
X161463934Y-62382017D01*
X161463934Y-62382017D02*
X161511553Y-62429636D01*
X161511553Y-62429636D02*
X161559172Y-62524874D01*
X161559172Y-62524874D02*
X161559172Y-62762969D01*
X161559172Y-62762969D02*
X161511553Y-62858207D01*
X161511553Y-62858207D02*
X161463934Y-62905826D01*
X161463934Y-62905826D02*
X161368696Y-62953445D01*
X161368696Y-62953445D02*
X161130601Y-62953445D01*
X161130601Y-62953445D02*
X161035363Y-62905826D01*
X161035363Y-62905826D02*
X160987744Y-62858207D01*
X160987744Y-62858207D02*
X160940124Y-62762969D01*
X160940124Y-62762969D02*
X160940124Y-62524874D01*
X160940124Y-62524874D02*
X160987744Y-62429636D01*
X160987744Y-62429636D02*
X161035363Y-62382017D01*
X159853990Y-53620112D02*
X159806371Y-53762969D01*
X159806371Y-53762969D02*
X159758752Y-53810588D01*
X159758752Y-53810588D02*
X159663514Y-53858207D01*
X159663514Y-53858207D02*
X159520657Y-53858207D01*
X159520657Y-53858207D02*
X159425419Y-53810588D01*
X159425419Y-53810588D02*
X159377800Y-53762969D01*
X159377800Y-53762969D02*
X159330180Y-53667731D01*
X159330180Y-53667731D02*
X159330180Y-53286779D01*
X159330180Y-53286779D02*
X160330180Y-53286779D01*
X160330180Y-53286779D02*
X160330180Y-53620112D01*
X160330180Y-53620112D02*
X160282561Y-53715350D01*
X160282561Y-53715350D02*
X160234942Y-53762969D01*
X160234942Y-53762969D02*
X160139704Y-53810588D01*
X160139704Y-53810588D02*
X160044466Y-53810588D01*
X160044466Y-53810588D02*
X159949228Y-53762969D01*
X159949228Y-53762969D02*
X159901609Y-53715350D01*
X159901609Y-53715350D02*
X159853990Y-53620112D01*
X159853990Y-53620112D02*
X159853990Y-53286779D01*
X159330180Y-54286779D02*
X159996847Y-54286779D01*
X159806371Y-54286779D02*
X159901609Y-54334398D01*
X159901609Y-54334398D02*
X159949228Y-54382017D01*
X159949228Y-54382017D02*
X159996847Y-54477255D01*
X159996847Y-54477255D02*
X159996847Y-54572493D01*
X159330180Y-55334398D02*
X159853990Y-55334398D01*
X159853990Y-55334398D02*
X159949228Y-55286779D01*
X159949228Y-55286779D02*
X159996847Y-55191541D01*
X159996847Y-55191541D02*
X159996847Y-55001065D01*
X159996847Y-55001065D02*
X159949228Y-54905827D01*
X159377800Y-55334398D02*
X159330180Y-55239160D01*
X159330180Y-55239160D02*
X159330180Y-55001065D01*
X159330180Y-55001065D02*
X159377800Y-54905827D01*
X159377800Y-54905827D02*
X159473038Y-54858208D01*
X159473038Y-54858208D02*
X159568276Y-54858208D01*
X159568276Y-54858208D02*
X159663514Y-54905827D01*
X159663514Y-54905827D02*
X159711133Y-55001065D01*
X159711133Y-55001065D02*
X159711133Y-55239160D01*
X159711133Y-55239160D02*
X159758752Y-55334398D01*
X159330180Y-55810589D02*
X159996847Y-55810589D01*
X160330180Y-55810589D02*
X160282561Y-55762970D01*
X160282561Y-55762970D02*
X160234942Y-55810589D01*
X160234942Y-55810589D02*
X160282561Y-55858208D01*
X160282561Y-55858208D02*
X160330180Y-55810589D01*
X160330180Y-55810589D02*
X160234942Y-55810589D01*
X159330180Y-56715350D02*
X160330180Y-56715350D01*
X159377800Y-56715350D02*
X159330180Y-56620112D01*
X159330180Y-56620112D02*
X159330180Y-56429636D01*
X159330180Y-56429636D02*
X159377800Y-56334398D01*
X159377800Y-56334398D02*
X159425419Y-56286779D01*
X159425419Y-56286779D02*
X159520657Y-56239160D01*
X159520657Y-56239160D02*
X159806371Y-56239160D01*
X159806371Y-56239160D02*
X159901609Y-56286779D01*
X159901609Y-56286779D02*
X159949228Y-56334398D01*
X159949228Y-56334398D02*
X159996847Y-56429636D01*
X159996847Y-56429636D02*
X159996847Y-56620112D01*
X159996847Y-56620112D02*
X159949228Y-56715350D01*
X159996847Y-57096303D02*
X159330180Y-57334398D01*
X159996847Y-57572493D02*
X159330180Y-57334398D01*
X159330180Y-57334398D02*
X159092085Y-57239160D01*
X159092085Y-57239160D02*
X159044466Y-57191541D01*
X159044466Y-57191541D02*
X158996847Y-57096303D01*
X159996847Y-57953446D02*
X159330180Y-57953446D01*
X159901609Y-57953446D02*
X159949228Y-58001065D01*
X159949228Y-58001065D02*
X159996847Y-58096303D01*
X159996847Y-58096303D02*
X159996847Y-58239160D01*
X159996847Y-58239160D02*
X159949228Y-58334398D01*
X159949228Y-58334398D02*
X159853990Y-58382017D01*
X159853990Y-58382017D02*
X159330180Y-58382017D01*
X159377800Y-59572494D02*
X159330180Y-59715351D01*
X159330180Y-59715351D02*
X159330180Y-59953446D01*
X159330180Y-59953446D02*
X159377800Y-60048684D01*
X159377800Y-60048684D02*
X159425419Y-60096303D01*
X159425419Y-60096303D02*
X159520657Y-60143922D01*
X159520657Y-60143922D02*
X159615895Y-60143922D01*
X159615895Y-60143922D02*
X159711133Y-60096303D01*
X159711133Y-60096303D02*
X159758752Y-60048684D01*
X159758752Y-60048684D02*
X159806371Y-59953446D01*
X159806371Y-59953446D02*
X159853990Y-59762970D01*
X159853990Y-59762970D02*
X159901609Y-59667732D01*
X159901609Y-59667732D02*
X159949228Y-59620113D01*
X159949228Y-59620113D02*
X160044466Y-59572494D01*
X160044466Y-59572494D02*
X160139704Y-59572494D01*
X160139704Y-59572494D02*
X160234942Y-59620113D01*
X160234942Y-59620113D02*
X160282561Y-59667732D01*
X160282561Y-59667732D02*
X160330180Y-59762970D01*
X160330180Y-59762970D02*
X160330180Y-60001065D01*
X160330180Y-60001065D02*
X160282561Y-60143922D01*
X159330180Y-60572494D02*
X160330180Y-60572494D01*
X159330180Y-61001065D02*
X159853990Y-61001065D01*
X159853990Y-61001065D02*
X159949228Y-60953446D01*
X159949228Y-60953446D02*
X159996847Y-60858208D01*
X159996847Y-60858208D02*
X159996847Y-60715351D01*
X159996847Y-60715351D02*
X159949228Y-60620113D01*
X159949228Y-60620113D02*
X159901609Y-60572494D01*
X159377800Y-61858208D02*
X159330180Y-61762970D01*
X159330180Y-61762970D02*
X159330180Y-61572494D01*
X159330180Y-61572494D02*
X159377800Y-61477256D01*
X159377800Y-61477256D02*
X159473038Y-61429637D01*
X159473038Y-61429637D02*
X159853990Y-61429637D01*
X159853990Y-61429637D02*
X159949228Y-61477256D01*
X159949228Y-61477256D02*
X159996847Y-61572494D01*
X159996847Y-61572494D02*
X159996847Y-61762970D01*
X159996847Y-61762970D02*
X159949228Y-61858208D01*
X159949228Y-61858208D02*
X159853990Y-61905827D01*
X159853990Y-61905827D02*
X159758752Y-61905827D01*
X159758752Y-61905827D02*
X159663514Y-61429637D01*
X159996847Y-62191542D02*
X159996847Y-62572494D01*
X159330180Y-62334399D02*
X160187323Y-62334399D01*
X160187323Y-62334399D02*
X160282561Y-62382018D01*
X160282561Y-62382018D02*
X160330180Y-62477256D01*
X160330180Y-62477256D02*
X160330180Y-62572494D01*
X159996847Y-62762971D02*
X159996847Y-63143923D01*
X159330180Y-62905828D02*
X160187323Y-62905828D01*
X160187323Y-62905828D02*
X160282561Y-62953447D01*
X160282561Y-62953447D02*
X160330180Y-63048685D01*
X160330180Y-63048685D02*
X160330180Y-63143923D01*
X159330180Y-63477257D02*
X159996847Y-63477257D01*
X160330180Y-63477257D02*
X160282561Y-63429638D01*
X160282561Y-63429638D02*
X160234942Y-63477257D01*
X160234942Y-63477257D02*
X160282561Y-63524876D01*
X160282561Y-63524876D02*
X160330180Y-63477257D01*
X160330180Y-63477257D02*
X160234942Y-63477257D01*
X159377800Y-64334399D02*
X159330180Y-64239161D01*
X159330180Y-64239161D02*
X159330180Y-64048685D01*
X159330180Y-64048685D02*
X159377800Y-63953447D01*
X159377800Y-63953447D02*
X159473038Y-63905828D01*
X159473038Y-63905828D02*
X159853990Y-63905828D01*
X159853990Y-63905828D02*
X159949228Y-63953447D01*
X159949228Y-63953447D02*
X159996847Y-64048685D01*
X159996847Y-64048685D02*
X159996847Y-64239161D01*
X159996847Y-64239161D02*
X159949228Y-64334399D01*
X159949228Y-64334399D02*
X159853990Y-64382018D01*
X159853990Y-64382018D02*
X159758752Y-64382018D01*
X159758752Y-64382018D02*
X159663514Y-63905828D01*
X159330180Y-64953447D02*
X159377800Y-64858209D01*
X159377800Y-64858209D02*
X159473038Y-64810590D01*
X159473038Y-64810590D02*
X160330180Y-64810590D01*
X159330180Y-65762971D02*
X160330180Y-65762971D01*
X159377800Y-65762971D02*
X159330180Y-65667733D01*
X159330180Y-65667733D02*
X159330180Y-65477257D01*
X159330180Y-65477257D02*
X159377800Y-65382019D01*
X159377800Y-65382019D02*
X159425419Y-65334400D01*
X159425419Y-65334400D02*
X159520657Y-65286781D01*
X159520657Y-65286781D02*
X159806371Y-65286781D01*
X159806371Y-65286781D02*
X159901609Y-65334400D01*
X159901609Y-65334400D02*
X159949228Y-65382019D01*
X159949228Y-65382019D02*
X159996847Y-65477257D01*
X159996847Y-65477257D02*
X159996847Y-65667733D01*
X159996847Y-65667733D02*
X159949228Y-65762971D01*
X166584104Y-94210839D02*
X166584104Y-93734649D01*
X166869819Y-94306077D02*
X165869819Y-93972744D01*
X165869819Y-93972744D02*
X166869819Y-93639411D01*
X166203152Y-93306077D02*
X166869819Y-93306077D01*
X166298390Y-93306077D02*
X166250771Y-93258458D01*
X166250771Y-93258458D02*
X166203152Y-93163220D01*
X166203152Y-93163220D02*
X166203152Y-93020363D01*
X166203152Y-93020363D02*
X166250771Y-92925125D01*
X166250771Y-92925125D02*
X166346009Y-92877506D01*
X166346009Y-92877506D02*
X166869819Y-92877506D01*
X166869819Y-91972744D02*
X166346009Y-91972744D01*
X166346009Y-91972744D02*
X166250771Y-92020363D01*
X166250771Y-92020363D02*
X166203152Y-92115601D01*
X166203152Y-92115601D02*
X166203152Y-92306077D01*
X166203152Y-92306077D02*
X166250771Y-92401315D01*
X166822200Y-91972744D02*
X166869819Y-92067982D01*
X166869819Y-92067982D02*
X166869819Y-92306077D01*
X166869819Y-92306077D02*
X166822200Y-92401315D01*
X166822200Y-92401315D02*
X166726961Y-92448934D01*
X166726961Y-92448934D02*
X166631723Y-92448934D01*
X166631723Y-92448934D02*
X166536485Y-92401315D01*
X166536485Y-92401315D02*
X166488866Y-92306077D01*
X166488866Y-92306077D02*
X166488866Y-92067982D01*
X166488866Y-92067982D02*
X166441247Y-91972744D01*
X166869819Y-91353696D02*
X166822200Y-91448934D01*
X166822200Y-91448934D02*
X166726961Y-91496553D01*
X166726961Y-91496553D02*
X165869819Y-91496553D01*
X166869819Y-90829886D02*
X166822200Y-90925124D01*
X166822200Y-90925124D02*
X166774580Y-90972743D01*
X166774580Y-90972743D02*
X166679342Y-91020362D01*
X166679342Y-91020362D02*
X166393628Y-91020362D01*
X166393628Y-91020362D02*
X166298390Y-90972743D01*
X166298390Y-90972743D02*
X166250771Y-90925124D01*
X166250771Y-90925124D02*
X166203152Y-90829886D01*
X166203152Y-90829886D02*
X166203152Y-90687029D01*
X166203152Y-90687029D02*
X166250771Y-90591791D01*
X166250771Y-90591791D02*
X166298390Y-90544172D01*
X166298390Y-90544172D02*
X166393628Y-90496553D01*
X166393628Y-90496553D02*
X166679342Y-90496553D01*
X166679342Y-90496553D02*
X166774580Y-90544172D01*
X166774580Y-90544172D02*
X166822200Y-90591791D01*
X166822200Y-90591791D02*
X166869819Y-90687029D01*
X166869819Y-90687029D02*
X166869819Y-90829886D01*
X166203152Y-89639410D02*
X167012676Y-89639410D01*
X167012676Y-89639410D02*
X167107914Y-89687029D01*
X167107914Y-89687029D02*
X167155533Y-89734648D01*
X167155533Y-89734648D02*
X167203152Y-89829886D01*
X167203152Y-89829886D02*
X167203152Y-89972743D01*
X167203152Y-89972743D02*
X167155533Y-90067981D01*
X166822200Y-89639410D02*
X166869819Y-89734648D01*
X166869819Y-89734648D02*
X166869819Y-89925124D01*
X166869819Y-89925124D02*
X166822200Y-90020362D01*
X166822200Y-90020362D02*
X166774580Y-90067981D01*
X166774580Y-90067981D02*
X166679342Y-90115600D01*
X166679342Y-90115600D02*
X166393628Y-90115600D01*
X166393628Y-90115600D02*
X166298390Y-90067981D01*
X166298390Y-90067981D02*
X166250771Y-90020362D01*
X166250771Y-90020362D02*
X166203152Y-89925124D01*
X166203152Y-89925124D02*
X166203152Y-89734648D01*
X166203152Y-89734648D02*
X166250771Y-89639410D01*
X166822200Y-88448933D02*
X166869819Y-88306076D01*
X166869819Y-88306076D02*
X166869819Y-88067981D01*
X166869819Y-88067981D02*
X166822200Y-87972743D01*
X166822200Y-87972743D02*
X166774580Y-87925124D01*
X166774580Y-87925124D02*
X166679342Y-87877505D01*
X166679342Y-87877505D02*
X166584104Y-87877505D01*
X166584104Y-87877505D02*
X166488866Y-87925124D01*
X166488866Y-87925124D02*
X166441247Y-87972743D01*
X166441247Y-87972743D02*
X166393628Y-88067981D01*
X166393628Y-88067981D02*
X166346009Y-88258457D01*
X166346009Y-88258457D02*
X166298390Y-88353695D01*
X166298390Y-88353695D02*
X166250771Y-88401314D01*
X166250771Y-88401314D02*
X166155533Y-88448933D01*
X166155533Y-88448933D02*
X166060295Y-88448933D01*
X166060295Y-88448933D02*
X165965057Y-88401314D01*
X165965057Y-88401314D02*
X165917438Y-88353695D01*
X165917438Y-88353695D02*
X165869819Y-88258457D01*
X165869819Y-88258457D02*
X165869819Y-88020362D01*
X165869819Y-88020362D02*
X165917438Y-87877505D01*
X166822200Y-87067981D02*
X166869819Y-87163219D01*
X166869819Y-87163219D02*
X166869819Y-87353695D01*
X166869819Y-87353695D02*
X166822200Y-87448933D01*
X166822200Y-87448933D02*
X166726961Y-87496552D01*
X166726961Y-87496552D02*
X166346009Y-87496552D01*
X166346009Y-87496552D02*
X166250771Y-87448933D01*
X166250771Y-87448933D02*
X166203152Y-87353695D01*
X166203152Y-87353695D02*
X166203152Y-87163219D01*
X166203152Y-87163219D02*
X166250771Y-87067981D01*
X166250771Y-87067981D02*
X166346009Y-87020362D01*
X166346009Y-87020362D02*
X166441247Y-87020362D01*
X166441247Y-87020362D02*
X166536485Y-87496552D01*
X166203152Y-86591790D02*
X166869819Y-86591790D01*
X166298390Y-86591790D02*
X166250771Y-86544171D01*
X166250771Y-86544171D02*
X166203152Y-86448933D01*
X166203152Y-86448933D02*
X166203152Y-86306076D01*
X166203152Y-86306076D02*
X166250771Y-86210838D01*
X166250771Y-86210838D02*
X166346009Y-86163219D01*
X166346009Y-86163219D02*
X166869819Y-86163219D01*
X166822200Y-85734647D02*
X166869819Y-85639409D01*
X166869819Y-85639409D02*
X166869819Y-85448933D01*
X166869819Y-85448933D02*
X166822200Y-85353695D01*
X166822200Y-85353695D02*
X166726961Y-85306076D01*
X166726961Y-85306076D02*
X166679342Y-85306076D01*
X166679342Y-85306076D02*
X166584104Y-85353695D01*
X166584104Y-85353695D02*
X166536485Y-85448933D01*
X166536485Y-85448933D02*
X166536485Y-85591790D01*
X166536485Y-85591790D02*
X166488866Y-85687028D01*
X166488866Y-85687028D02*
X166393628Y-85734647D01*
X166393628Y-85734647D02*
X166346009Y-85734647D01*
X166346009Y-85734647D02*
X166250771Y-85687028D01*
X166250771Y-85687028D02*
X166203152Y-85591790D01*
X166203152Y-85591790D02*
X166203152Y-85448933D01*
X166203152Y-85448933D02*
X166250771Y-85353695D01*
X166869819Y-84734647D02*
X166822200Y-84829885D01*
X166822200Y-84829885D02*
X166774580Y-84877504D01*
X166774580Y-84877504D02*
X166679342Y-84925123D01*
X166679342Y-84925123D02*
X166393628Y-84925123D01*
X166393628Y-84925123D02*
X166298390Y-84877504D01*
X166298390Y-84877504D02*
X166250771Y-84829885D01*
X166250771Y-84829885D02*
X166203152Y-84734647D01*
X166203152Y-84734647D02*
X166203152Y-84591790D01*
X166203152Y-84591790D02*
X166250771Y-84496552D01*
X166250771Y-84496552D02*
X166298390Y-84448933D01*
X166298390Y-84448933D02*
X166393628Y-84401314D01*
X166393628Y-84401314D02*
X166679342Y-84401314D01*
X166679342Y-84401314D02*
X166774580Y-84448933D01*
X166774580Y-84448933D02*
X166822200Y-84496552D01*
X166822200Y-84496552D02*
X166869819Y-84591790D01*
X166869819Y-84591790D02*
X166869819Y-84734647D01*
X166869819Y-83972742D02*
X166203152Y-83972742D01*
X166393628Y-83972742D02*
X166298390Y-83925123D01*
X166298390Y-83925123D02*
X166250771Y-83877504D01*
X166250771Y-83877504D02*
X166203152Y-83782266D01*
X166203152Y-83782266D02*
X166203152Y-83687028D01*
X136693922Y-60869819D02*
X137265350Y-60869819D01*
X136979636Y-61869819D02*
X136979636Y-60869819D01*
X137979636Y-61822200D02*
X137884398Y-61869819D01*
X137884398Y-61869819D02*
X137693922Y-61869819D01*
X137693922Y-61869819D02*
X137598684Y-61822200D01*
X137598684Y-61822200D02*
X137551065Y-61726961D01*
X137551065Y-61726961D02*
X137551065Y-61346009D01*
X137551065Y-61346009D02*
X137598684Y-61250771D01*
X137598684Y-61250771D02*
X137693922Y-61203152D01*
X137693922Y-61203152D02*
X137884398Y-61203152D01*
X137884398Y-61203152D02*
X137979636Y-61250771D01*
X137979636Y-61250771D02*
X138027255Y-61346009D01*
X138027255Y-61346009D02*
X138027255Y-61441247D01*
X138027255Y-61441247D02*
X137551065Y-61536485D01*
X138455827Y-61869819D02*
X138455827Y-61203152D01*
X138455827Y-61298390D02*
X138503446Y-61250771D01*
X138503446Y-61250771D02*
X138598684Y-61203152D01*
X138598684Y-61203152D02*
X138741541Y-61203152D01*
X138741541Y-61203152D02*
X138836779Y-61250771D01*
X138836779Y-61250771D02*
X138884398Y-61346009D01*
X138884398Y-61346009D02*
X138884398Y-61869819D01*
X138884398Y-61346009D02*
X138932017Y-61250771D01*
X138932017Y-61250771D02*
X139027255Y-61203152D01*
X139027255Y-61203152D02*
X139170112Y-61203152D01*
X139170112Y-61203152D02*
X139265351Y-61250771D01*
X139265351Y-61250771D02*
X139312970Y-61346009D01*
X139312970Y-61346009D02*
X139312970Y-61869819D01*
X139789160Y-61203152D02*
X139789160Y-62203152D01*
X139789160Y-61250771D02*
X139884398Y-61203152D01*
X139884398Y-61203152D02*
X140074874Y-61203152D01*
X140074874Y-61203152D02*
X140170112Y-61250771D01*
X140170112Y-61250771D02*
X140217731Y-61298390D01*
X140217731Y-61298390D02*
X140265350Y-61393628D01*
X140265350Y-61393628D02*
X140265350Y-61679342D01*
X140265350Y-61679342D02*
X140217731Y-61774580D01*
X140217731Y-61774580D02*
X140170112Y-61822200D01*
X140170112Y-61822200D02*
X140074874Y-61869819D01*
X140074874Y-61869819D02*
X139884398Y-61869819D01*
X139884398Y-61869819D02*
X139789160Y-61822200D01*
X141408208Y-61822200D02*
X141551065Y-61869819D01*
X141551065Y-61869819D02*
X141789160Y-61869819D01*
X141789160Y-61869819D02*
X141884398Y-61822200D01*
X141884398Y-61822200D02*
X141932017Y-61774580D01*
X141932017Y-61774580D02*
X141979636Y-61679342D01*
X141979636Y-61679342D02*
X141979636Y-61584104D01*
X141979636Y-61584104D02*
X141932017Y-61488866D01*
X141932017Y-61488866D02*
X141884398Y-61441247D01*
X141884398Y-61441247D02*
X141789160Y-61393628D01*
X141789160Y-61393628D02*
X141598684Y-61346009D01*
X141598684Y-61346009D02*
X141503446Y-61298390D01*
X141503446Y-61298390D02*
X141455827Y-61250771D01*
X141455827Y-61250771D02*
X141408208Y-61155533D01*
X141408208Y-61155533D02*
X141408208Y-61060295D01*
X141408208Y-61060295D02*
X141455827Y-60965057D01*
X141455827Y-60965057D02*
X141503446Y-60917438D01*
X141503446Y-60917438D02*
X141598684Y-60869819D01*
X141598684Y-60869819D02*
X141836779Y-60869819D01*
X141836779Y-60869819D02*
X141979636Y-60917438D01*
X142789160Y-61822200D02*
X142693922Y-61869819D01*
X142693922Y-61869819D02*
X142503446Y-61869819D01*
X142503446Y-61869819D02*
X142408208Y-61822200D01*
X142408208Y-61822200D02*
X142360589Y-61726961D01*
X142360589Y-61726961D02*
X142360589Y-61346009D01*
X142360589Y-61346009D02*
X142408208Y-61250771D01*
X142408208Y-61250771D02*
X142503446Y-61203152D01*
X142503446Y-61203152D02*
X142693922Y-61203152D01*
X142693922Y-61203152D02*
X142789160Y-61250771D01*
X142789160Y-61250771D02*
X142836779Y-61346009D01*
X142836779Y-61346009D02*
X142836779Y-61441247D01*
X142836779Y-61441247D02*
X142360589Y-61536485D01*
X143265351Y-61203152D02*
X143265351Y-61869819D01*
X143265351Y-61298390D02*
X143312970Y-61250771D01*
X143312970Y-61250771D02*
X143408208Y-61203152D01*
X143408208Y-61203152D02*
X143551065Y-61203152D01*
X143551065Y-61203152D02*
X143646303Y-61250771D01*
X143646303Y-61250771D02*
X143693922Y-61346009D01*
X143693922Y-61346009D02*
X143693922Y-61869819D01*
X144122494Y-61822200D02*
X144217732Y-61869819D01*
X144217732Y-61869819D02*
X144408208Y-61869819D01*
X144408208Y-61869819D02*
X144503446Y-61822200D01*
X144503446Y-61822200D02*
X144551065Y-61726961D01*
X144551065Y-61726961D02*
X144551065Y-61679342D01*
X144551065Y-61679342D02*
X144503446Y-61584104D01*
X144503446Y-61584104D02*
X144408208Y-61536485D01*
X144408208Y-61536485D02*
X144265351Y-61536485D01*
X144265351Y-61536485D02*
X144170113Y-61488866D01*
X144170113Y-61488866D02*
X144122494Y-61393628D01*
X144122494Y-61393628D02*
X144122494Y-61346009D01*
X144122494Y-61346009D02*
X144170113Y-61250771D01*
X144170113Y-61250771D02*
X144265351Y-61203152D01*
X144265351Y-61203152D02*
X144408208Y-61203152D01*
X144408208Y-61203152D02*
X144503446Y-61250771D01*
X145122494Y-61869819D02*
X145027256Y-61822200D01*
X145027256Y-61822200D02*
X144979637Y-61774580D01*
X144979637Y-61774580D02*
X144932018Y-61679342D01*
X144932018Y-61679342D02*
X144932018Y-61393628D01*
X144932018Y-61393628D02*
X144979637Y-61298390D01*
X144979637Y-61298390D02*
X145027256Y-61250771D01*
X145027256Y-61250771D02*
X145122494Y-61203152D01*
X145122494Y-61203152D02*
X145265351Y-61203152D01*
X145265351Y-61203152D02*
X145360589Y-61250771D01*
X145360589Y-61250771D02*
X145408208Y-61298390D01*
X145408208Y-61298390D02*
X145455827Y-61393628D01*
X145455827Y-61393628D02*
X145455827Y-61679342D01*
X145455827Y-61679342D02*
X145408208Y-61774580D01*
X145408208Y-61774580D02*
X145360589Y-61822200D01*
X145360589Y-61822200D02*
X145265351Y-61869819D01*
X145265351Y-61869819D02*
X145122494Y-61869819D01*
X145884399Y-61869819D02*
X145884399Y-61203152D01*
X145884399Y-61393628D02*
X145932018Y-61298390D01*
X145932018Y-61298390D02*
X145979637Y-61250771D01*
X145979637Y-61250771D02*
X146074875Y-61203152D01*
X146074875Y-61203152D02*
X146170113Y-61203152D01*
X151212969Y-50919819D02*
X150736779Y-50919819D01*
X150736779Y-50919819D02*
X150689160Y-51396009D01*
X150689160Y-51396009D02*
X150736779Y-51348390D01*
X150736779Y-51348390D02*
X150832017Y-51300771D01*
X150832017Y-51300771D02*
X151070112Y-51300771D01*
X151070112Y-51300771D02*
X151165350Y-51348390D01*
X151165350Y-51348390D02*
X151212969Y-51396009D01*
X151212969Y-51396009D02*
X151260588Y-51491247D01*
X151260588Y-51491247D02*
X151260588Y-51729342D01*
X151260588Y-51729342D02*
X151212969Y-51824580D01*
X151212969Y-51824580D02*
X151165350Y-51872200D01*
X151165350Y-51872200D02*
X151070112Y-51919819D01*
X151070112Y-51919819D02*
X150832017Y-51919819D01*
X150832017Y-51919819D02*
X150736779Y-51872200D01*
X150736779Y-51872200D02*
X150689160Y-51824580D01*
X153665350Y-51303152D02*
X153665350Y-51969819D01*
X153427255Y-50922200D02*
X153189160Y-51636485D01*
X153189160Y-51636485D02*
X153808207Y-51636485D01*
X158189160Y-50965057D02*
X158236779Y-50917438D01*
X158236779Y-50917438D02*
X158332017Y-50869819D01*
X158332017Y-50869819D02*
X158570112Y-50869819D01*
X158570112Y-50869819D02*
X158665350Y-50917438D01*
X158665350Y-50917438D02*
X158712969Y-50965057D01*
X158712969Y-50965057D02*
X158760588Y-51060295D01*
X158760588Y-51060295D02*
X158760588Y-51155533D01*
X158760588Y-51155533D02*
X158712969Y-51298390D01*
X158712969Y-51298390D02*
X158141541Y-51869819D01*
X158141541Y-51869819D02*
X158760588Y-51869819D01*
X147316667Y-72337200D02*
X147459524Y-72384819D01*
X147459524Y-72384819D02*
X147697619Y-72384819D01*
X147697619Y-72384819D02*
X147792857Y-72337200D01*
X147792857Y-72337200D02*
X147840476Y-72289580D01*
X147840476Y-72289580D02*
X147888095Y-72194342D01*
X147888095Y-72194342D02*
X147888095Y-72099104D01*
X147888095Y-72099104D02*
X147840476Y-72003866D01*
X147840476Y-72003866D02*
X147792857Y-71956247D01*
X147792857Y-71956247D02*
X147697619Y-71908628D01*
X147697619Y-71908628D02*
X147507143Y-71861009D01*
X147507143Y-71861009D02*
X147411905Y-71813390D01*
X147411905Y-71813390D02*
X147364286Y-71765771D01*
X147364286Y-71765771D02*
X147316667Y-71670533D01*
X147316667Y-71670533D02*
X147316667Y-71575295D01*
X147316667Y-71575295D02*
X147364286Y-71480057D01*
X147364286Y-71480057D02*
X147411905Y-71432438D01*
X147411905Y-71432438D02*
X147507143Y-71384819D01*
X147507143Y-71384819D02*
X147745238Y-71384819D01*
X147745238Y-71384819D02*
X147888095Y-71432438D01*
X148221429Y-71384819D02*
X148459524Y-72384819D01*
X148459524Y-72384819D02*
X148650000Y-71670533D01*
X148650000Y-71670533D02*
X148840476Y-72384819D01*
X148840476Y-72384819D02*
X149078572Y-71384819D01*
X149983333Y-72384819D02*
X149411905Y-72384819D01*
X149697619Y-72384819D02*
X149697619Y-71384819D01*
X149697619Y-71384819D02*
X149602381Y-71527676D01*
X149602381Y-71527676D02*
X149507143Y-71622914D01*
X149507143Y-71622914D02*
X149411905Y-71670533D01*
X148126667Y-88087200D02*
X148269524Y-88134819D01*
X148269524Y-88134819D02*
X148507619Y-88134819D01*
X148507619Y-88134819D02*
X148602857Y-88087200D01*
X148602857Y-88087200D02*
X148650476Y-88039580D01*
X148650476Y-88039580D02*
X148698095Y-87944342D01*
X148698095Y-87944342D02*
X148698095Y-87849104D01*
X148698095Y-87849104D02*
X148650476Y-87753866D01*
X148650476Y-87753866D02*
X148602857Y-87706247D01*
X148602857Y-87706247D02*
X148507619Y-87658628D01*
X148507619Y-87658628D02*
X148317143Y-87611009D01*
X148317143Y-87611009D02*
X148221905Y-87563390D01*
X148221905Y-87563390D02*
X148174286Y-87515771D01*
X148174286Y-87515771D02*
X148126667Y-87420533D01*
X148126667Y-87420533D02*
X148126667Y-87325295D01*
X148126667Y-87325295D02*
X148174286Y-87230057D01*
X148174286Y-87230057D02*
X148221905Y-87182438D01*
X148221905Y-87182438D02*
X148317143Y-87134819D01*
X148317143Y-87134819D02*
X148555238Y-87134819D01*
X148555238Y-87134819D02*
X148698095Y-87182438D01*
X149031429Y-87134819D02*
X149269524Y-88134819D01*
X149269524Y-88134819D02*
X149460000Y-87420533D01*
X149460000Y-87420533D02*
X149650476Y-88134819D01*
X149650476Y-88134819D02*
X149888572Y-87134819D01*
X150745714Y-87134819D02*
X150269524Y-87134819D01*
X150269524Y-87134819D02*
X150221905Y-87611009D01*
X150221905Y-87611009D02*
X150269524Y-87563390D01*
X150269524Y-87563390D02*
X150364762Y-87515771D01*
X150364762Y-87515771D02*
X150602857Y-87515771D01*
X150602857Y-87515771D02*
X150698095Y-87563390D01*
X150698095Y-87563390D02*
X150745714Y-87611009D01*
X150745714Y-87611009D02*
X150793333Y-87706247D01*
X150793333Y-87706247D02*
X150793333Y-87944342D01*
X150793333Y-87944342D02*
X150745714Y-88039580D01*
X150745714Y-88039580D02*
X150698095Y-88087200D01*
X150698095Y-88087200D02*
X150602857Y-88134819D01*
X150602857Y-88134819D02*
X150364762Y-88134819D01*
X150364762Y-88134819D02*
X150269524Y-88087200D01*
X150269524Y-88087200D02*
X150221905Y-88039580D01*
X133144819Y-58136666D02*
X132668628Y-58469999D01*
X133144819Y-58708094D02*
X132144819Y-58708094D01*
X132144819Y-58708094D02*
X132144819Y-58327142D01*
X132144819Y-58327142D02*
X132192438Y-58231904D01*
X132192438Y-58231904D02*
X132240057Y-58184285D01*
X132240057Y-58184285D02*
X132335295Y-58136666D01*
X132335295Y-58136666D02*
X132478152Y-58136666D01*
X132478152Y-58136666D02*
X132573390Y-58184285D01*
X132573390Y-58184285D02*
X132621009Y-58231904D01*
X132621009Y-58231904D02*
X132668628Y-58327142D01*
X132668628Y-58327142D02*
X132668628Y-58708094D01*
X132144819Y-57279523D02*
X132144819Y-57469999D01*
X132144819Y-57469999D02*
X132192438Y-57565237D01*
X132192438Y-57565237D02*
X132240057Y-57612856D01*
X132240057Y-57612856D02*
X132382914Y-57708094D01*
X132382914Y-57708094D02*
X132573390Y-57755713D01*
X132573390Y-57755713D02*
X132954342Y-57755713D01*
X132954342Y-57755713D02*
X133049580Y-57708094D01*
X133049580Y-57708094D02*
X133097200Y-57660475D01*
X133097200Y-57660475D02*
X133144819Y-57565237D01*
X133144819Y-57565237D02*
X133144819Y-57374761D01*
X133144819Y-57374761D02*
X133097200Y-57279523D01*
X133097200Y-57279523D02*
X133049580Y-57231904D01*
X133049580Y-57231904D02*
X132954342Y-57184285D01*
X132954342Y-57184285D02*
X132716247Y-57184285D01*
X132716247Y-57184285D02*
X132621009Y-57231904D01*
X132621009Y-57231904D02*
X132573390Y-57279523D01*
X132573390Y-57279523D02*
X132525771Y-57374761D01*
X132525771Y-57374761D02*
X132525771Y-57565237D01*
X132525771Y-57565237D02*
X132573390Y-57660475D01*
X132573390Y-57660475D02*
X132621009Y-57708094D01*
X132621009Y-57708094D02*
X132716247Y-57755713D01*
X159814761Y-87129819D02*
X159481428Y-86653628D01*
X159243333Y-87129819D02*
X159243333Y-86129819D01*
X159243333Y-86129819D02*
X159624285Y-86129819D01*
X159624285Y-86129819D02*
X159719523Y-86177438D01*
X159719523Y-86177438D02*
X159767142Y-86225057D01*
X159767142Y-86225057D02*
X159814761Y-86320295D01*
X159814761Y-86320295D02*
X159814761Y-86463152D01*
X159814761Y-86463152D02*
X159767142Y-86558390D01*
X159767142Y-86558390D02*
X159719523Y-86606009D01*
X159719523Y-86606009D02*
X159624285Y-86653628D01*
X159624285Y-86653628D02*
X159243333Y-86653628D01*
X160100476Y-86129819D02*
X160433809Y-87129819D01*
X160433809Y-87129819D02*
X160767142Y-86129819D01*
X161624285Y-87129819D02*
X161052857Y-87129819D01*
X161338571Y-87129819D02*
X161338571Y-86129819D01*
X161338571Y-86129819D02*
X161243333Y-86272676D01*
X161243333Y-86272676D02*
X161148095Y-86367914D01*
X161148095Y-86367914D02*
X161052857Y-86415533D01*
X107294819Y-72923333D02*
X108009104Y-72923333D01*
X108009104Y-72923333D02*
X108151961Y-72970952D01*
X108151961Y-72970952D02*
X108247200Y-73066190D01*
X108247200Y-73066190D02*
X108294819Y-73209047D01*
X108294819Y-73209047D02*
X108294819Y-73304285D01*
X107294819Y-72018571D02*
X107294819Y-72209047D01*
X107294819Y-72209047D02*
X107342438Y-72304285D01*
X107342438Y-72304285D02*
X107390057Y-72351904D01*
X107390057Y-72351904D02*
X107532914Y-72447142D01*
X107532914Y-72447142D02*
X107723390Y-72494761D01*
X107723390Y-72494761D02*
X108104342Y-72494761D01*
X108104342Y-72494761D02*
X108199580Y-72447142D01*
X108199580Y-72447142D02*
X108247200Y-72399523D01*
X108247200Y-72399523D02*
X108294819Y-72304285D01*
X108294819Y-72304285D02*
X108294819Y-72113809D01*
X108294819Y-72113809D02*
X108247200Y-72018571D01*
X108247200Y-72018571D02*
X108199580Y-71970952D01*
X108199580Y-71970952D02*
X108104342Y-71923333D01*
X108104342Y-71923333D02*
X107866247Y-71923333D01*
X107866247Y-71923333D02*
X107771009Y-71970952D01*
X107771009Y-71970952D02*
X107723390Y-72018571D01*
X107723390Y-72018571D02*
X107675771Y-72113809D01*
X107675771Y-72113809D02*
X107675771Y-72304285D01*
X107675771Y-72304285D02*
X107723390Y-72399523D01*
X107723390Y-72399523D02*
X107771009Y-72447142D01*
X107771009Y-72447142D02*
X107866247Y-72494761D01*
X133576667Y-73197200D02*
X133719524Y-73244819D01*
X133719524Y-73244819D02*
X133957619Y-73244819D01*
X133957619Y-73244819D02*
X134052857Y-73197200D01*
X134052857Y-73197200D02*
X134100476Y-73149580D01*
X134100476Y-73149580D02*
X134148095Y-73054342D01*
X134148095Y-73054342D02*
X134148095Y-72959104D01*
X134148095Y-72959104D02*
X134100476Y-72863866D01*
X134100476Y-72863866D02*
X134052857Y-72816247D01*
X134052857Y-72816247D02*
X133957619Y-72768628D01*
X133957619Y-72768628D02*
X133767143Y-72721009D01*
X133767143Y-72721009D02*
X133671905Y-72673390D01*
X133671905Y-72673390D02*
X133624286Y-72625771D01*
X133624286Y-72625771D02*
X133576667Y-72530533D01*
X133576667Y-72530533D02*
X133576667Y-72435295D01*
X133576667Y-72435295D02*
X133624286Y-72340057D01*
X133624286Y-72340057D02*
X133671905Y-72292438D01*
X133671905Y-72292438D02*
X133767143Y-72244819D01*
X133767143Y-72244819D02*
X134005238Y-72244819D01*
X134005238Y-72244819D02*
X134148095Y-72292438D01*
X134481429Y-72244819D02*
X134719524Y-73244819D01*
X134719524Y-73244819D02*
X134910000Y-72530533D01*
X134910000Y-72530533D02*
X135100476Y-73244819D01*
X135100476Y-73244819D02*
X135338572Y-72244819D01*
X135671905Y-72340057D02*
X135719524Y-72292438D01*
X135719524Y-72292438D02*
X135814762Y-72244819D01*
X135814762Y-72244819D02*
X136052857Y-72244819D01*
X136052857Y-72244819D02*
X136148095Y-72292438D01*
X136148095Y-72292438D02*
X136195714Y-72340057D01*
X136195714Y-72340057D02*
X136243333Y-72435295D01*
X136243333Y-72435295D02*
X136243333Y-72530533D01*
X136243333Y-72530533D02*
X136195714Y-72673390D01*
X136195714Y-72673390D02*
X135624286Y-73244819D01*
X135624286Y-73244819D02*
X136243333Y-73244819D01*
X103384819Y-64963333D02*
X104099104Y-64963333D01*
X104099104Y-64963333D02*
X104241961Y-65010952D01*
X104241961Y-65010952D02*
X104337200Y-65106190D01*
X104337200Y-65106190D02*
X104384819Y-65249047D01*
X104384819Y-65249047D02*
X104384819Y-65344285D01*
X103384819Y-64010952D02*
X103384819Y-64487142D01*
X103384819Y-64487142D02*
X103861009Y-64534761D01*
X103861009Y-64534761D02*
X103813390Y-64487142D01*
X103813390Y-64487142D02*
X103765771Y-64391904D01*
X103765771Y-64391904D02*
X103765771Y-64153809D01*
X103765771Y-64153809D02*
X103813390Y-64058571D01*
X103813390Y-64058571D02*
X103861009Y-64010952D01*
X103861009Y-64010952D02*
X103956247Y-63963333D01*
X103956247Y-63963333D02*
X104194342Y-63963333D01*
X104194342Y-63963333D02*
X104289580Y-64010952D01*
X104289580Y-64010952D02*
X104337200Y-64058571D01*
X104337200Y-64058571D02*
X104384819Y-64153809D01*
X104384819Y-64153809D02*
X104384819Y-64391904D01*
X104384819Y-64391904D02*
X104337200Y-64487142D01*
X104337200Y-64487142D02*
X104289580Y-64534761D01*
X134406667Y-88697200D02*
X134549524Y-88744819D01*
X134549524Y-88744819D02*
X134787619Y-88744819D01*
X134787619Y-88744819D02*
X134882857Y-88697200D01*
X134882857Y-88697200D02*
X134930476Y-88649580D01*
X134930476Y-88649580D02*
X134978095Y-88554342D01*
X134978095Y-88554342D02*
X134978095Y-88459104D01*
X134978095Y-88459104D02*
X134930476Y-88363866D01*
X134930476Y-88363866D02*
X134882857Y-88316247D01*
X134882857Y-88316247D02*
X134787619Y-88268628D01*
X134787619Y-88268628D02*
X134597143Y-88221009D01*
X134597143Y-88221009D02*
X134501905Y-88173390D01*
X134501905Y-88173390D02*
X134454286Y-88125771D01*
X134454286Y-88125771D02*
X134406667Y-88030533D01*
X134406667Y-88030533D02*
X134406667Y-87935295D01*
X134406667Y-87935295D02*
X134454286Y-87840057D01*
X134454286Y-87840057D02*
X134501905Y-87792438D01*
X134501905Y-87792438D02*
X134597143Y-87744819D01*
X134597143Y-87744819D02*
X134835238Y-87744819D01*
X134835238Y-87744819D02*
X134978095Y-87792438D01*
X135311429Y-87744819D02*
X135549524Y-88744819D01*
X135549524Y-88744819D02*
X135740000Y-88030533D01*
X135740000Y-88030533D02*
X135930476Y-88744819D01*
X135930476Y-88744819D02*
X136168572Y-87744819D01*
X136454286Y-87744819D02*
X137073333Y-87744819D01*
X137073333Y-87744819D02*
X136740000Y-88125771D01*
X136740000Y-88125771D02*
X136882857Y-88125771D01*
X136882857Y-88125771D02*
X136978095Y-88173390D01*
X136978095Y-88173390D02*
X137025714Y-88221009D01*
X137025714Y-88221009D02*
X137073333Y-88316247D01*
X137073333Y-88316247D02*
X137073333Y-88554342D01*
X137073333Y-88554342D02*
X137025714Y-88649580D01*
X137025714Y-88649580D02*
X136978095Y-88697200D01*
X136978095Y-88697200D02*
X136882857Y-88744819D01*
X136882857Y-88744819D02*
X136597143Y-88744819D01*
X136597143Y-88744819D02*
X136501905Y-88697200D01*
X136501905Y-88697200D02*
X136454286Y-88649580D01*
X142986666Y-52499819D02*
X142986666Y-53214104D01*
X142986666Y-53214104D02*
X142939047Y-53356961D01*
X142939047Y-53356961D02*
X142843809Y-53452200D01*
X142843809Y-53452200D02*
X142700952Y-53499819D01*
X142700952Y-53499819D02*
X142605714Y-53499819D01*
X143367619Y-52499819D02*
X144034285Y-52499819D01*
X144034285Y-52499819D02*
X143605714Y-53499819D01*
X151481905Y-63964819D02*
X151481905Y-62964819D01*
X151481905Y-62964819D02*
X151720000Y-62964819D01*
X151720000Y-62964819D02*
X151862857Y-63012438D01*
X151862857Y-63012438D02*
X151958095Y-63107676D01*
X151958095Y-63107676D02*
X152005714Y-63202914D01*
X152005714Y-63202914D02*
X152053333Y-63393390D01*
X152053333Y-63393390D02*
X152053333Y-63536247D01*
X152053333Y-63536247D02*
X152005714Y-63726723D01*
X152005714Y-63726723D02*
X151958095Y-63821961D01*
X151958095Y-63821961D02*
X151862857Y-63917200D01*
X151862857Y-63917200D02*
X151720000Y-63964819D01*
X151720000Y-63964819D02*
X151481905Y-63964819D01*
X153005714Y-63964819D02*
X152434286Y-63964819D01*
X152720000Y-63964819D02*
X152720000Y-62964819D01*
X152720000Y-62964819D02*
X152624762Y-63107676D01*
X152624762Y-63107676D02*
X152529524Y-63202914D01*
X152529524Y-63202914D02*
X152434286Y-63250533D01*
X135803333Y-82284819D02*
X135470000Y-81808628D01*
X135231905Y-82284819D02*
X135231905Y-81284819D01*
X135231905Y-81284819D02*
X135612857Y-81284819D01*
X135612857Y-81284819D02*
X135708095Y-81332438D01*
X135708095Y-81332438D02*
X135755714Y-81380057D01*
X135755714Y-81380057D02*
X135803333Y-81475295D01*
X135803333Y-81475295D02*
X135803333Y-81618152D01*
X135803333Y-81618152D02*
X135755714Y-81713390D01*
X135755714Y-81713390D02*
X135708095Y-81761009D01*
X135708095Y-81761009D02*
X135612857Y-81808628D01*
X135612857Y-81808628D02*
X135231905Y-81808628D01*
X136136667Y-81284819D02*
X136755714Y-81284819D01*
X136755714Y-81284819D02*
X136422381Y-81665771D01*
X136422381Y-81665771D02*
X136565238Y-81665771D01*
X136565238Y-81665771D02*
X136660476Y-81713390D01*
X136660476Y-81713390D02*
X136708095Y-81761009D01*
X136708095Y-81761009D02*
X136755714Y-81856247D01*
X136755714Y-81856247D02*
X136755714Y-82094342D01*
X136755714Y-82094342D02*
X136708095Y-82189580D01*
X136708095Y-82189580D02*
X136660476Y-82237200D01*
X136660476Y-82237200D02*
X136565238Y-82284819D01*
X136565238Y-82284819D02*
X136279524Y-82284819D01*
X136279524Y-82284819D02*
X136184286Y-82237200D01*
X136184286Y-82237200D02*
X136136667Y-82189580D01*
X134953333Y-67104819D02*
X134620000Y-66628628D01*
X134381905Y-67104819D02*
X134381905Y-66104819D01*
X134381905Y-66104819D02*
X134762857Y-66104819D01*
X134762857Y-66104819D02*
X134858095Y-66152438D01*
X134858095Y-66152438D02*
X134905714Y-66200057D01*
X134905714Y-66200057D02*
X134953333Y-66295295D01*
X134953333Y-66295295D02*
X134953333Y-66438152D01*
X134953333Y-66438152D02*
X134905714Y-66533390D01*
X134905714Y-66533390D02*
X134858095Y-66581009D01*
X134858095Y-66581009D02*
X134762857Y-66628628D01*
X134762857Y-66628628D02*
X134381905Y-66628628D01*
X135334286Y-66200057D02*
X135381905Y-66152438D01*
X135381905Y-66152438D02*
X135477143Y-66104819D01*
X135477143Y-66104819D02*
X135715238Y-66104819D01*
X135715238Y-66104819D02*
X135810476Y-66152438D01*
X135810476Y-66152438D02*
X135858095Y-66200057D01*
X135858095Y-66200057D02*
X135905714Y-66295295D01*
X135905714Y-66295295D02*
X135905714Y-66390533D01*
X135905714Y-66390533D02*
X135858095Y-66533390D01*
X135858095Y-66533390D02*
X135286667Y-67104819D01*
X135286667Y-67104819D02*
X135905714Y-67104819D01*
X159896667Y-76317200D02*
X160039524Y-76364819D01*
X160039524Y-76364819D02*
X160277619Y-76364819D01*
X160277619Y-76364819D02*
X160372857Y-76317200D01*
X160372857Y-76317200D02*
X160420476Y-76269580D01*
X160420476Y-76269580D02*
X160468095Y-76174342D01*
X160468095Y-76174342D02*
X160468095Y-76079104D01*
X160468095Y-76079104D02*
X160420476Y-75983866D01*
X160420476Y-75983866D02*
X160372857Y-75936247D01*
X160372857Y-75936247D02*
X160277619Y-75888628D01*
X160277619Y-75888628D02*
X160087143Y-75841009D01*
X160087143Y-75841009D02*
X159991905Y-75793390D01*
X159991905Y-75793390D02*
X159944286Y-75745771D01*
X159944286Y-75745771D02*
X159896667Y-75650533D01*
X159896667Y-75650533D02*
X159896667Y-75555295D01*
X159896667Y-75555295D02*
X159944286Y-75460057D01*
X159944286Y-75460057D02*
X159991905Y-75412438D01*
X159991905Y-75412438D02*
X160087143Y-75364819D01*
X160087143Y-75364819D02*
X160325238Y-75364819D01*
X160325238Y-75364819D02*
X160468095Y-75412438D01*
X160801429Y-75364819D02*
X161039524Y-76364819D01*
X161039524Y-76364819D02*
X161230000Y-75650533D01*
X161230000Y-75650533D02*
X161420476Y-76364819D01*
X161420476Y-76364819D02*
X161658572Y-75364819D01*
X162468095Y-75698152D02*
X162468095Y-76364819D01*
X162230000Y-75317200D02*
X161991905Y-76031485D01*
X161991905Y-76031485D02*
X162610952Y-76031485D01*
X149403333Y-82484819D02*
X149070000Y-82008628D01*
X148831905Y-82484819D02*
X148831905Y-81484819D01*
X148831905Y-81484819D02*
X149212857Y-81484819D01*
X149212857Y-81484819D02*
X149308095Y-81532438D01*
X149308095Y-81532438D02*
X149355714Y-81580057D01*
X149355714Y-81580057D02*
X149403333Y-81675295D01*
X149403333Y-81675295D02*
X149403333Y-81818152D01*
X149403333Y-81818152D02*
X149355714Y-81913390D01*
X149355714Y-81913390D02*
X149308095Y-81961009D01*
X149308095Y-81961009D02*
X149212857Y-82008628D01*
X149212857Y-82008628D02*
X148831905Y-82008628D01*
X150308095Y-81484819D02*
X149831905Y-81484819D01*
X149831905Y-81484819D02*
X149784286Y-81961009D01*
X149784286Y-81961009D02*
X149831905Y-81913390D01*
X149831905Y-81913390D02*
X149927143Y-81865771D01*
X149927143Y-81865771D02*
X150165238Y-81865771D01*
X150165238Y-81865771D02*
X150260476Y-81913390D01*
X150260476Y-81913390D02*
X150308095Y-81961009D01*
X150308095Y-81961009D02*
X150355714Y-82056247D01*
X150355714Y-82056247D02*
X150355714Y-82294342D01*
X150355714Y-82294342D02*
X150308095Y-82389580D01*
X150308095Y-82389580D02*
X150260476Y-82437200D01*
X150260476Y-82437200D02*
X150165238Y-82484819D01*
X150165238Y-82484819D02*
X149927143Y-82484819D01*
X149927143Y-82484819D02*
X149831905Y-82437200D01*
X149831905Y-82437200D02*
X149784286Y-82389580D01*
X161093333Y-70634819D02*
X160760000Y-70158628D01*
X160521905Y-70634819D02*
X160521905Y-69634819D01*
X160521905Y-69634819D02*
X160902857Y-69634819D01*
X160902857Y-69634819D02*
X160998095Y-69682438D01*
X160998095Y-69682438D02*
X161045714Y-69730057D01*
X161045714Y-69730057D02*
X161093333Y-69825295D01*
X161093333Y-69825295D02*
X161093333Y-69968152D01*
X161093333Y-69968152D02*
X161045714Y-70063390D01*
X161045714Y-70063390D02*
X160998095Y-70111009D01*
X160998095Y-70111009D02*
X160902857Y-70158628D01*
X160902857Y-70158628D02*
X160521905Y-70158628D01*
X161950476Y-69968152D02*
X161950476Y-70634819D01*
X161712381Y-69587200D02*
X161474286Y-70301485D01*
X161474286Y-70301485D02*
X162093333Y-70301485D01*
X148823333Y-66364819D02*
X148490000Y-65888628D01*
X148251905Y-66364819D02*
X148251905Y-65364819D01*
X148251905Y-65364819D02*
X148632857Y-65364819D01*
X148632857Y-65364819D02*
X148728095Y-65412438D01*
X148728095Y-65412438D02*
X148775714Y-65460057D01*
X148775714Y-65460057D02*
X148823333Y-65555295D01*
X148823333Y-65555295D02*
X148823333Y-65698152D01*
X148823333Y-65698152D02*
X148775714Y-65793390D01*
X148775714Y-65793390D02*
X148728095Y-65841009D01*
X148728095Y-65841009D02*
X148632857Y-65888628D01*
X148632857Y-65888628D02*
X148251905Y-65888628D01*
X149775714Y-66364819D02*
X149204286Y-66364819D01*
X149490000Y-66364819D02*
X149490000Y-65364819D01*
X149490000Y-65364819D02*
X149394762Y-65507676D01*
X149394762Y-65507676D02*
X149299524Y-65602914D01*
X149299524Y-65602914D02*
X149204286Y-65650533D01*
D11*
%TO.C,J1*%
X126610000Y-96130000D02*
X127940000Y-96130000D01*
X126610000Y-97460000D02*
X126610000Y-96130000D01*
X129210000Y-96130000D02*
X147050000Y-96130000D01*
X129210000Y-98790000D02*
X129210000Y-96130000D01*
X129210000Y-98790000D02*
X147050000Y-98790000D01*
X147050000Y-98790000D02*
X147050000Y-96130000D01*
%TO.C,J3*%
X149470000Y-96130000D02*
X150800000Y-96130000D01*
X149470000Y-97460000D02*
X149470000Y-96130000D01*
X152070000Y-96130000D02*
X164830000Y-96130000D01*
X152070000Y-98790000D02*
X152070000Y-96130000D01*
X152070000Y-98790000D02*
X164830000Y-98790000D01*
X164830000Y-98790000D02*
X164830000Y-96130000D01*
%TO.C,J2*%
X117466000Y-47870000D02*
X118796000Y-47870000D01*
X117466000Y-49200000D02*
X117466000Y-47870000D01*
X120066000Y-47870000D02*
X142986000Y-47870000D01*
X120066000Y-50530000D02*
X120066000Y-47870000D01*
X120066000Y-50530000D02*
X142986000Y-50530000D01*
X142986000Y-50530000D02*
X142986000Y-47870000D01*
%TO.C,J4*%
X144390000Y-47870000D02*
X145720000Y-47870000D01*
X144390000Y-49200000D02*
X144390000Y-47870000D01*
X146990000Y-47870000D02*
X164830000Y-47870000D01*
X146990000Y-50530000D02*
X146990000Y-47870000D01*
X146990000Y-50530000D02*
X164830000Y-50530000D01*
X164830000Y-50530000D02*
X164830000Y-47870000D01*
%TO.C,SW1*%
X152150000Y-72930000D02*
X152150000Y-71430000D01*
X150900000Y-68930000D02*
X146400000Y-68930000D01*
X146400000Y-75430000D02*
X150900000Y-75430000D01*
X145150000Y-71430000D02*
X145150000Y-72930000D01*
%TO.C,SW5*%
X146010000Y-87180000D02*
X146010000Y-88680000D01*
X147260000Y-91180000D02*
X151760000Y-91180000D01*
X151760000Y-84680000D02*
X147260000Y-84680000D01*
X153010000Y-88680000D02*
X153010000Y-87180000D01*
%TO.C,R6*%
X131200000Y-54830000D02*
X131200000Y-61370000D01*
X131200000Y-61370000D02*
X133940000Y-61370000D01*
X132570000Y-54060000D02*
X132570000Y-54830000D01*
X132570000Y-62140000D02*
X132570000Y-61370000D01*
X133940000Y-54830000D02*
X131200000Y-54830000D01*
X133940000Y-61370000D02*
X133940000Y-54830000D01*
%TO.C,RV1*%
X155555000Y-84860000D02*
X155555000Y-94630000D01*
X165325000Y-84860000D02*
X155555000Y-84860000D01*
X165325000Y-84860000D02*
X165325000Y-94630000D01*
X165325000Y-94630000D02*
X155555000Y-94630000D01*
%TO.C,J6*%
X109280000Y-71260000D02*
X110610000Y-71260000D01*
X109280000Y-72590000D02*
X109280000Y-71260000D01*
X111880000Y-71260000D02*
X119560000Y-71260000D01*
X111880000Y-73920000D02*
X111880000Y-71260000D01*
X111880000Y-73920000D02*
X119560000Y-73920000D01*
X119560000Y-73920000D02*
X119560000Y-71260000D01*
%TO.C,SW2*%
X131410000Y-72140000D02*
X131410000Y-73640000D01*
X132660000Y-76140000D02*
X137160000Y-76140000D01*
X137160000Y-69640000D02*
X132660000Y-69640000D01*
X138410000Y-73640000D02*
X138410000Y-72140000D01*
%TO.C,J5*%
X105370000Y-63300000D02*
X106700000Y-63300000D01*
X105370000Y-64630000D02*
X105370000Y-63300000D01*
X107970000Y-63300000D02*
X125810000Y-63300000D01*
X107970000Y-65960000D02*
X107970000Y-63300000D01*
X107970000Y-65960000D02*
X125810000Y-65960000D01*
X125810000Y-65960000D02*
X125810000Y-63300000D01*
%TO.C,SW3*%
X132200000Y-87170000D02*
X132200000Y-88670000D01*
X133450000Y-91170000D02*
X137950000Y-91170000D01*
X137950000Y-84670000D02*
X133450000Y-84670000D01*
X139200000Y-88670000D02*
X139200000Y-87170000D01*
%TO.C,J7*%
X136200000Y-53975000D02*
X136200000Y-55225000D01*
X136490000Y-54265000D02*
X136490000Y-60235000D01*
X136490000Y-60235000D02*
X146610000Y-60235000D01*
X136500000Y-54275000D02*
X136500000Y-55025000D01*
X136500000Y-55025000D02*
X138300000Y-55025000D01*
X136500000Y-56525000D02*
X137250000Y-56525000D01*
X137250000Y-56525000D02*
X137250000Y-59475000D01*
X137250000Y-59475000D02*
X141550000Y-59475000D01*
X137450000Y-53975000D02*
X136200000Y-53975000D01*
X138300000Y-54275000D02*
X136500000Y-54275000D01*
X138300000Y-55025000D02*
X138300000Y-54275000D01*
X139800000Y-54275000D02*
X139800000Y-55025000D01*
X139800000Y-55025000D02*
X143300000Y-55025000D01*
X143300000Y-54275000D02*
X139800000Y-54275000D01*
X143300000Y-55025000D02*
X143300000Y-54275000D01*
X144800000Y-54275000D02*
X144800000Y-55025000D01*
X144800000Y-55025000D02*
X146600000Y-55025000D01*
X145850000Y-56525000D02*
X145850000Y-59475000D01*
X145850000Y-59475000D02*
X141550000Y-59475000D01*
X146600000Y-54275000D02*
X144800000Y-54275000D01*
X146600000Y-55025000D02*
X146600000Y-54275000D01*
X146600000Y-56525000D02*
X145850000Y-56525000D01*
X146610000Y-54265000D02*
X136490000Y-54265000D01*
X146610000Y-60235000D02*
X146610000Y-54265000D01*
D12*
%TO.C,G\u002A\u002A\u002A*%
G36*
X105482406Y-93965658D02*
G01*
X105486835Y-94201733D01*
X105350365Y-94201733D01*
X105213894Y-94201733D01*
X105213894Y-94865942D01*
X105213894Y-95530151D01*
X104613705Y-95530151D01*
X104013516Y-95530151D01*
X104013516Y-94865942D01*
X104013516Y-94201733D01*
X103877045Y-94201733D01*
X103740574Y-94201733D01*
X103745004Y-93965658D01*
X103749433Y-93729584D01*
X104613705Y-93729584D01*
X105477977Y-93729584D01*
X105482406Y-93965658D01*
G37*
G36*
X109247164Y-93961657D02*
G01*
X109247164Y-94201733D01*
X109119124Y-94201733D01*
X108991084Y-94201733D01*
X108991084Y-95816240D01*
X108991084Y-97430748D01*
X108582120Y-97744848D01*
X108173156Y-98058947D01*
X106497463Y-98058071D01*
X104821770Y-98057194D01*
X104417643Y-97745343D01*
X104013516Y-97433491D01*
X104013516Y-96977977D01*
X104013516Y-96522464D01*
X104613705Y-96522464D01*
X105213894Y-96522464D01*
X105214032Y-96830561D01*
X105214170Y-97138658D01*
X105365775Y-97254694D01*
X105517381Y-97370731D01*
X106499444Y-97370731D01*
X107481507Y-97370731D01*
X107635276Y-97254694D01*
X107789044Y-97138658D01*
X107789875Y-95670195D01*
X107790705Y-94201733D01*
X107654663Y-94201733D01*
X107518620Y-94201733D01*
X107518620Y-93961657D01*
X107518620Y-93721581D01*
X108382892Y-93721581D01*
X109247164Y-93721581D01*
X109247164Y-93961657D01*
G37*
G36*
X106480620Y-92187780D02*
G01*
X106574078Y-92259129D01*
X106679595Y-92339995D01*
X106785508Y-92421423D01*
X106880154Y-92494457D01*
X106898424Y-92508601D01*
X107102489Y-92666690D01*
X107102489Y-94201841D01*
X107102489Y-95736991D01*
X106695360Y-96049702D01*
X106288232Y-96362413D01*
X104078536Y-96362413D01*
X101868840Y-96362413D01*
X101868840Y-96130340D01*
X101868840Y-95898267D01*
X101996881Y-95898267D01*
X102124921Y-95898267D01*
X102124921Y-95674196D01*
X103325299Y-95674196D01*
X104461961Y-95674196D01*
X105598624Y-95674196D01*
X105750229Y-95558160D01*
X105901834Y-95442123D01*
X105901942Y-94201733D01*
X105902049Y-92961342D01*
X105751018Y-92845305D01*
X105599987Y-92729269D01*
X104462643Y-92729269D01*
X103325299Y-92729269D01*
X103325299Y-94201733D01*
X103325299Y-95674196D01*
X102124921Y-95674196D01*
X102124921Y-94201733D01*
X102124921Y-92505198D01*
X101996881Y-92505198D01*
X101868840Y-92505198D01*
X101868840Y-92265123D01*
X101868840Y-92025047D01*
X104067860Y-92025047D01*
X106266879Y-92025047D01*
X106480620Y-92187780D01*
G37*
G36*
X105647914Y-92954736D02*
G01*
X105758065Y-93036395D01*
X105758065Y-94200110D01*
X105758065Y-95363825D01*
X105647507Y-95447876D01*
X105592638Y-95488621D01*
X105553685Y-95513154D01*
X105521501Y-95525167D01*
X105486935Y-95528356D01*
X105451446Y-95527037D01*
X105365942Y-95522148D01*
X105362725Y-95077808D01*
X105485932Y-95077808D01*
X105486237Y-95186778D01*
X105487566Y-95269437D01*
X105490590Y-95328633D01*
X105495983Y-95367213D01*
X105504414Y-95388027D01*
X105516556Y-95393923D01*
X105533081Y-95387749D01*
X105554660Y-95372354D01*
X105581965Y-95350585D01*
X105582733Y-95349979D01*
X105628254Y-95314083D01*
X105629139Y-94893951D01*
X105630025Y-94473818D01*
X105558002Y-94473818D01*
X105485980Y-94473818D01*
X105485980Y-94939677D01*
X105485932Y-95077808D01*
X105362725Y-95077808D01*
X105361741Y-94941966D01*
X105357540Y-94361783D01*
X105493782Y-94361783D01*
X105630025Y-94361783D01*
X105630025Y-93969659D01*
X105630025Y-93577536D01*
X104613705Y-93577536D01*
X103597385Y-93577536D01*
X103597385Y-93969659D01*
X103597385Y-94361783D01*
X103733428Y-94361783D01*
X103869470Y-94361783D01*
X103869470Y-94945967D01*
X103869470Y-95530151D01*
X103676908Y-95530151D01*
X103587088Y-95529044D01*
X103525942Y-95525505D01*
X103490201Y-95519208D01*
X103476711Y-95510145D01*
X103475582Y-95491391D01*
X103474602Y-95443050D01*
X103474155Y-95402111D01*
X103597385Y-95402111D01*
X103669407Y-95402111D01*
X103741430Y-95402111D01*
X103741430Y-94937964D01*
X103741430Y-94473818D01*
X103669407Y-94473818D01*
X103597385Y-94473818D01*
X103597385Y-94937964D01*
X103597385Y-95402111D01*
X103474155Y-95402111D01*
X103473778Y-95367544D01*
X103473117Y-95267295D01*
X103472625Y-95144725D01*
X103472309Y-95002257D01*
X103472255Y-94937964D01*
X103472175Y-94842312D01*
X103472229Y-94667314D01*
X103472479Y-94479685D01*
X103472929Y-94281846D01*
X103473213Y-94185728D01*
X103475496Y-93465501D01*
X103597385Y-93465501D01*
X104613705Y-93465501D01*
X105630025Y-93465501D01*
X105630025Y-93275617D01*
X105630025Y-93085733D01*
X105569146Y-93043544D01*
X105508267Y-93001354D01*
X104552826Y-93001354D01*
X103597385Y-93001354D01*
X103597385Y-93233428D01*
X103597385Y-93465501D01*
X103475496Y-93465501D01*
X103476231Y-93233428D01*
X103477347Y-92881317D01*
X104507555Y-92877197D01*
X105537763Y-92873078D01*
X105647914Y-92954736D01*
G37*
G36*
X103987467Y-91753427D02*
G01*
X106358254Y-91753892D01*
X106862413Y-92141827D01*
X107366572Y-92529763D01*
X107369858Y-92993631D01*
X107373143Y-93457498D01*
X108446197Y-93461612D01*
X109519250Y-93465726D01*
X109519250Y-93969772D01*
X109519250Y-94473818D01*
X109383207Y-94473818D01*
X109247164Y-94473818D01*
X109247164Y-96023456D01*
X109247164Y-97573095D01*
X108752048Y-97952064D01*
X108256931Y-98331033D01*
X106499338Y-98330946D01*
X104741745Y-98330859D01*
X104245589Y-97949889D01*
X103749433Y-97568919D01*
X103745190Y-97101821D01*
X103740947Y-96634724D01*
X102664850Y-96630610D01*
X101588752Y-96626496D01*
X101588752Y-96130340D01*
X101588752Y-95634184D01*
X101724795Y-95626181D01*
X101860838Y-95618179D01*
X101864925Y-94198356D01*
X101869013Y-92778533D01*
X101728883Y-92773907D01*
X101588752Y-92769281D01*
X101587845Y-92665249D01*
X101708790Y-92665249D01*
X101844833Y-92665249D01*
X101980876Y-92665249D01*
X101980876Y-94201733D01*
X101980876Y-95738217D01*
X101844833Y-95738217D01*
X101708790Y-95738217D01*
X101708790Y-96130340D01*
X101708790Y-96522464D01*
X102789130Y-96522464D01*
X103869470Y-96522464D01*
X103869470Y-97016976D01*
X103869470Y-97511488D01*
X104329615Y-97865029D01*
X104789760Y-98218569D01*
X106499302Y-98218784D01*
X108208844Y-98218998D01*
X108671986Y-97864197D01*
X109135129Y-97509396D01*
X109135129Y-95935590D01*
X109135129Y-94361783D01*
X109271172Y-94361783D01*
X109407215Y-94361783D01*
X109407215Y-93969659D01*
X109407215Y-93577536D01*
X108390895Y-93577536D01*
X107374574Y-93577536D01*
X107374574Y-93969659D01*
X107374574Y-94361783D01*
X107510617Y-94361783D01*
X107646660Y-94361783D01*
X107646415Y-95702205D01*
X107646240Y-95906733D01*
X107645806Y-96102148D01*
X107645134Y-96286070D01*
X107644245Y-96456119D01*
X107643160Y-96609913D01*
X107641899Y-96745071D01*
X107640485Y-96859215D01*
X107638938Y-96949961D01*
X107637279Y-97014932D01*
X107635529Y-97051744D01*
X107634411Y-97059379D01*
X107616671Y-97076621D01*
X107580467Y-97106957D01*
X107533019Y-97144379D01*
X107523837Y-97151408D01*
X107425021Y-97226685D01*
X106500870Y-97226685D01*
X105576720Y-97226685D01*
X105467330Y-97143522D01*
X105357939Y-97060360D01*
X105357939Y-96791412D01*
X105357939Y-96634499D01*
X105485980Y-96634499D01*
X105486563Y-96822558D01*
X105487146Y-97010617D01*
X105545158Y-97054631D01*
X105603169Y-97098645D01*
X106501230Y-97098645D01*
X107399291Y-97098645D01*
X107458955Y-97049465D01*
X107518620Y-97000284D01*
X107518620Y-95737051D01*
X107518620Y-94473818D01*
X107446597Y-94473818D01*
X107374574Y-94473818D01*
X107374574Y-95159245D01*
X107374574Y-95844672D01*
X107338563Y-95877954D01*
X107317923Y-95895232D01*
X107275090Y-95929703D01*
X107213153Y-95978928D01*
X107135201Y-96040469D01*
X107044323Y-96111886D01*
X106943610Y-96190739D01*
X106838406Y-96272834D01*
X106374259Y-96634432D01*
X105930119Y-96634465D01*
X105485980Y-96634499D01*
X105357939Y-96634499D01*
X105357939Y-96522464D01*
X105842092Y-96522249D01*
X106326244Y-96522035D01*
X106786389Y-96168495D01*
X107246534Y-95814954D01*
X107246534Y-94200970D01*
X107246534Y-92586987D01*
X106786480Y-92233994D01*
X106326425Y-91881002D01*
X104017608Y-91881002D01*
X101708790Y-91881002D01*
X101708790Y-92273125D01*
X101708790Y-92665249D01*
X101587845Y-92665249D01*
X101584513Y-92283054D01*
X101584455Y-92273125D01*
X101583609Y-92128823D01*
X101583891Y-92004816D01*
X101585409Y-91909271D01*
X101588211Y-91840421D01*
X101592344Y-91796502D01*
X101597859Y-91775749D01*
X101598477Y-91774894D01*
X101605047Y-91771857D01*
X101620423Y-91769106D01*
X101646023Y-91766628D01*
X101683268Y-91764409D01*
X101733579Y-91762438D01*
X101798377Y-91760701D01*
X101879081Y-91759185D01*
X101977113Y-91757878D01*
X102093892Y-91756768D01*
X102230840Y-91755840D01*
X102389376Y-91755083D01*
X102570922Y-91754484D01*
X102776898Y-91754030D01*
X103008723Y-91753708D01*
X103267819Y-91753506D01*
X103555607Y-91753410D01*
X103873506Y-91753408D01*
X103987467Y-91753427D01*
G37*
D11*
%TO.C,D1*%
X154780000Y-61095000D02*
X154780000Y-58005000D01*
X149230000Y-59549952D02*
G75*
G02*
X154780000Y-58005170I2990000J-48D01*
G01*
X154780000Y-61094830D02*
G75*
G02*
X149230000Y-59550048I-2560000J1544830D01*
G01*
X154720000Y-59550000D02*
G75*
G02*
X149720000Y-59550000I-2500000J0D01*
G01*
X149720000Y-59550000D02*
G75*
G02*
X154720000Y-59550000I2500000J0D01*
G01*
%TO.C,R3*%
X131860000Y-81960000D02*
X132630000Y-81960000D01*
X132630000Y-80590000D02*
X132630000Y-83330000D01*
X132630000Y-83330000D02*
X139170000Y-83330000D01*
X139170000Y-80590000D02*
X132630000Y-80590000D01*
X139170000Y-83330000D02*
X139170000Y-80590000D01*
X139940000Y-81960000D02*
X139170000Y-81960000D01*
%TO.C,R2*%
X131140000Y-66590000D02*
X131910000Y-66590000D01*
X131910000Y-65220000D02*
X131910000Y-67960000D01*
X131910000Y-67960000D02*
X138450000Y-67960000D01*
X138450000Y-65220000D02*
X131910000Y-65220000D01*
X138450000Y-67960000D02*
X138450000Y-65220000D01*
X139220000Y-66590000D02*
X138450000Y-66590000D01*
%TO.C,SW4*%
X157780000Y-75360000D02*
X157780000Y-76860000D01*
X159030000Y-79360000D02*
X163530000Y-79360000D01*
X163530000Y-72860000D02*
X159030000Y-72860000D01*
X164780000Y-76860000D02*
X164780000Y-75360000D01*
%TO.C,R5*%
X145510000Y-82030000D02*
X146280000Y-82030000D01*
X146280000Y-80660000D02*
X146280000Y-83400000D01*
X146280000Y-83400000D02*
X152820000Y-83400000D01*
X152820000Y-80660000D02*
X146280000Y-80660000D01*
X152820000Y-83400000D02*
X152820000Y-80660000D01*
X153590000Y-82030000D02*
X152820000Y-82030000D01*
%TO.C,R4*%
X157190000Y-70180000D02*
X157960000Y-70180000D01*
X157960000Y-68810000D02*
X157960000Y-71550000D01*
X157960000Y-71550000D02*
X164500000Y-71550000D01*
X164500000Y-68810000D02*
X157960000Y-68810000D01*
X164500000Y-71550000D02*
X164500000Y-68810000D01*
X165270000Y-70180000D02*
X164500000Y-70180000D01*
%TO.C,R1*%
X144900000Y-65980000D02*
X145670000Y-65980000D01*
X145670000Y-64610000D02*
X145670000Y-67350000D01*
X145670000Y-67350000D02*
X152210000Y-67350000D01*
X152210000Y-64610000D02*
X145670000Y-64610000D01*
X152210000Y-67350000D02*
X152210000Y-64610000D01*
X152980000Y-65980000D02*
X152210000Y-65980000D01*
%TD*%
M02*
