M48
; DRILL file {KiCad 8.0.8} date 2025-01-31T12:43:12-0700
; FORMAT={-:-/ absolute / inch / decimal}
; #@! TF.CreationDate,2025-01-31T12:43:12-07:00
; #@! TF.GenerationSoftware,Kicad,Pcbnew,8.0.8
; #@! TF.FileFunction,Plated,1,2,PTH
FMAT,2
INCH
; #@! TA.AperFunction,Plated,PTH,ComponentDrill
T1C0.0315
; #@! TA.AperFunction,Plated,PTH,ComponentDrill
T2C0.0354
; #@! TA.AperFunction,Plated,PTH,ComponentDrill
T3C0.0374
; #@! TA.AperFunction,Plated,PTH,ComponentDrill
T4C0.0394
; #@! TA.AperFunction,Plated,PTH,ComponentDrill
T5C0.0433
%
G90
G05
T1
X5.122Y-2.6217
X5.1504Y-3.2268
X5.2193Y-2.0874
X5.2193Y-2.4874
X5.522Y-2.6217
X5.5504Y-3.2268
X5.6638Y-2.5976
X5.6878Y-3.2295
X6.0638Y-2.5976
X6.0878Y-3.2295
X6.1476Y-2.763
X6.2165Y-3.5339
X6.3165Y-3.6339
X6.4165Y-3.5339
X6.5476Y-2.763
T2
X6.1583Y-2.2293
X6.1583Y-2.3293
T3
X5.4618Y-2.2315
X5.5602Y-2.2315
X5.6587Y-2.2315
T4
X4.2008Y-2.5445
X4.3008Y-2.5445
X4.3547Y-2.8579
X4.4008Y-2.5445
X4.4547Y-2.8579
X4.5008Y-2.5445
X4.5547Y-2.8579
X4.6008Y-2.5445
X4.6547Y-2.8579
X4.677Y-1.937
X4.7008Y-2.5445
X4.777Y-1.937
X4.8008Y-2.5445
X4.877Y-1.937
X4.9008Y-2.5445
X4.977Y-1.937
X5.037Y-3.837
X5.077Y-1.937
X5.137Y-3.837
X5.177Y-1.937
X5.237Y-3.837
X5.277Y-1.937
X5.337Y-3.837
X5.377Y-1.937
X5.437Y-3.837
X5.477Y-1.937
X5.537Y-3.837
X5.577Y-1.937
X5.637Y-3.837
X5.737Y-1.937
X5.737Y-3.837
X5.837Y-1.937
X5.937Y-1.937
X5.937Y-3.837
X6.037Y-1.937
X6.037Y-3.837
X6.137Y-1.937
X6.137Y-3.837
X6.237Y-1.937
X6.237Y-3.837
X6.337Y-1.937
X6.337Y-3.837
X6.437Y-1.937
X6.437Y-3.837
T5
X5.1835Y-2.7811
X5.1835Y-2.9583
X5.2154Y-3.3728
X5.2154Y-3.55
X5.4394Y-2.7811
X5.4394Y-2.9583
X5.4713Y-3.3728
X5.4713Y-3.55
X5.7244Y-2.7531
X5.7244Y-2.9303
X5.7583Y-3.3732
X5.7583Y-3.5504
X5.9803Y-2.7531
X5.9803Y-2.9303
X6.0142Y-3.3732
X6.0142Y-3.5504
X6.2217Y-2.9079
X6.2217Y-3.085
X6.4776Y-2.9079
X6.4776Y-3.085
M30
