M48
; DRILL file {KiCad 8.0.8} date 2025-03-12T21:32:44-0600
; FORMAT={-:-/ absolute / inch / decimal}
; #@! TF.CreationDate,2025-03-12T21:32:44-06:00
; #@! TF.GenerationSoftware,Kicad,Pcbnew,8.0.8
; #@! TF.FileFunction,Plated,1,2,PTH
FMAT,2
INCH
; #@! TA.AperFunction,Plated,PTH,ViaDrill
T1C0.0157
; #@! TA.AperFunction,Plated,PTH,ComponentDrill
T2C0.0295
; #@! TA.AperFunction,Plated,PTH,ComponentDrill
T3C0.0315
; #@! TA.AperFunction,Plated,PTH,ComponentDrill
T4C0.0354
; #@! TA.AperFunction,Plated,PTH,ComponentDrill
T5C0.0394
; #@! TA.AperFunction,Plated,PTH,ComponentDrill
T6C0.0469
%
G90
G05
T1
X5.6654Y-3.1012
X5.6681Y-2.8539
X7.5142Y-2.5669
X7.6386Y-2.5677
T2
X4.7618Y-3.9315
X4.8406Y-3.9315
X4.9193Y-3.9315
X8.3732Y-3.6272
X8.3732Y-3.7059
X8.374Y-3.9169
X8.374Y-3.9957
T3
X5.4114Y-3.9173
X5.7114Y-3.9173
X6.6976Y-3.2799
X6.6976Y-3.5799
X6.9657Y-3.2831
X6.9657Y-3.5831
X7.2276Y-3.2831
X7.2276Y-3.5831
X7.4984Y-3.2831
X7.4984Y-3.5831
X7.7945Y-3.6256
X7.7945Y-3.9169
X8.0945Y-3.6256
X8.0945Y-3.9169
T4
X6.6512Y-3.8661
X6.7512Y-3.8661
X6.9189Y-3.8661
X7.0189Y-3.8661
X7.1827Y-3.8661
X7.2827Y-3.8661
X7.4425Y-3.8661
X7.5425Y-3.8661
T5
X4.8305Y-3.1193
X4.9305Y-3.1193
X5.0305Y-3.1193
X5.0638Y-2.7299
X5.1305Y-3.1193
X5.1638Y-2.7299
X5.2305Y-3.1193
X5.2638Y-2.7299
X5.3305Y-3.1193
X5.3638Y-2.7299
X5.4305Y-3.1193
X5.5305Y-3.1193
X5.8756Y-2.4394
X5.8756Y-2.5394
X5.8756Y-2.6394
X5.8756Y-2.7394
X5.8756Y-2.8394
X5.8756Y-2.9394
X5.8756Y-3.0394
X5.8756Y-3.1394
X5.8756Y-3.2394
X5.8756Y-3.3394
X5.8756Y-3.4394
X5.8756Y-3.5394
X5.8756Y-3.6394
X5.8756Y-3.7394
X5.8756Y-3.8394
X6.4756Y-2.4394
X6.4756Y-2.5394
X6.4756Y-2.6394
X6.4756Y-2.7394
X6.4756Y-2.8394
X6.4756Y-2.9394
X6.4756Y-3.0394
X6.4756Y-3.1394
X6.4756Y-3.2394
X6.4756Y-3.3394
X6.4756Y-3.4394
X6.4756Y-3.5394
X6.4756Y-3.6394
X6.4756Y-3.7394
X6.4756Y-3.8394
X6.7616Y-2.3626
X6.8616Y-2.3626
X6.9616Y-2.3626
X7.0616Y-2.3626
X7.1616Y-2.3626
X7.2616Y-2.3626
X7.3616Y-2.3626
X7.4616Y-2.3626
X7.7323Y-2.2681
X7.8323Y-2.2681
X7.9323Y-2.2681
X8.0323Y-2.2681
X8.1323Y-2.2681
X8.2323Y-2.2681
X8.3323Y-2.2681
X8.4323Y-2.2681
T6
X5.1717Y-3.8854
X5.2717Y-3.8854
M30
