%TF.GenerationSoftware,KiCad,Pcbnew,8.0.8*%
%TF.CreationDate,2025-03-12T21:32:49-06:00*%
%TF.ProjectId,Final_Project_New_Design,46696e61-6c5f-4507-926f-6a6563745f4e,rev?*%
%TF.SameCoordinates,Original*%
%TF.FileFunction,Soldermask,Top*%
%TF.FilePolarity,Negative*%
%FSLAX46Y46*%
G04 Gerber Fmt 4.6, Leading zero omitted, Abs format (unit mm)*
G04 Created by KiCad (PCBNEW 8.0.8) date 2025-03-12 21:32:49*
%MOMM*%
%LPD*%
G01*
G04 APERTURE LIST*
G04 Aperture macros list*
%AMRoundRect*
0 Rectangle with rounded corners*
0 $1 Rounding radius*
0 $2 $3 $4 $5 $6 $7 $8 $9 X,Y pos of 4 corners*
0 Add a 4 corners polygon primitive as box body*
4,1,4,$2,$3,$4,$5,$6,$7,$8,$9,$2,$3,0*
0 Add four circle primitives for the rounded corners*
1,1,$1+$1,$2,$3*
1,1,$1+$1,$4,$5*
1,1,$1+$1,$6,$7*
1,1,$1+$1,$8,$9*
0 Add four rect primitives between the rounded corners*
20,1,$1+$1,$2,$3,$4,$5,0*
20,1,$1+$1,$4,$5,$6,$7,0*
20,1,$1+$1,$6,$7,$8,$9,0*
20,1,$1+$1,$8,$9,$2,$3,0*%
G04 Aperture macros list end*
%ADD10C,1.512000*%
%ADD11R,1.800000X1.800000*%
%ADD12C,1.800000*%
%ADD13RoundRect,0.250000X0.350000X0.625000X-0.350000X0.625000X-0.350000X-0.625000X0.350000X-0.625000X0*%
%ADD14O,1.200000X1.750000*%
%ADD15C,1.600000*%
%ADD16O,1.600000X1.600000*%
%ADD17R,1.700000X1.700000*%
%ADD18O,1.700000X1.700000*%
%ADD19RoundRect,0.250000X-0.620000X-0.845000X0.620000X-0.845000X0.620000X0.845000X-0.620000X0.845000X0*%
%ADD20O,1.740000X2.190000*%
%ADD21RoundRect,0.250000X-0.625000X0.350000X-0.625000X-0.350000X0.625000X-0.350000X0.625000X0.350000X0*%
%ADD22O,1.750000X1.200000*%
G04 APERTURE END LIST*
D10*
%TO.C,SW1*%
X137450000Y-99500000D03*
X145070000Y-99500000D03*
%TD*%
D11*
%TO.C,D3*%
X178280000Y-98200000D03*
D12*
X175740000Y-98200000D03*
%TD*%
D13*
%TO.C,J9*%
X124950000Y-99860000D03*
D14*
X122950000Y-99860000D03*
X120950000Y-99860000D03*
%TD*%
D15*
%TO.C,R5*%
X205600000Y-99490000D03*
D16*
X197980000Y-99490000D03*
%TD*%
D15*
%TO.C,R4*%
X170120000Y-90930000D03*
D16*
X170120000Y-83310000D03*
%TD*%
D17*
%TO.C,J6*%
X128620000Y-69340000D03*
D18*
X131160000Y-69340000D03*
X133700000Y-69340000D03*
X136240000Y-69340000D03*
%TD*%
D19*
%TO.C,J10*%
X131360000Y-98690000D03*
D20*
X133900000Y-98690000D03*
%TD*%
D17*
%TO.C,J5*%
X171745000Y-60010000D03*
D18*
X174285000Y-60010000D03*
X176825000Y-60010000D03*
X179365000Y-60010000D03*
X181905000Y-60010000D03*
X184445000Y-60010000D03*
X186985000Y-60010000D03*
X189525000Y-60010000D03*
%TD*%
D11*
%TO.C,D1*%
X191580000Y-98200000D03*
D12*
X189040000Y-98200000D03*
%TD*%
D17*
%TO.C,J8*%
X122695000Y-79230000D03*
D18*
X125235000Y-79230000D03*
X127775000Y-79230000D03*
X130315000Y-79230000D03*
X132855000Y-79230000D03*
X135395000Y-79230000D03*
X137935000Y-79230000D03*
X140475000Y-79230000D03*
%TD*%
D15*
%TO.C,R2*%
X183580000Y-91010000D03*
D16*
X183580000Y-83390000D03*
%TD*%
D21*
%TO.C,J4*%
X212680000Y-92130000D03*
D22*
X212680000Y-94130000D03*
%TD*%
D15*
%TO.C,R6*%
X205600000Y-92090000D03*
D16*
X197980000Y-92090000D03*
%TD*%
D15*
%TO.C,R1*%
X190460000Y-91010000D03*
D16*
X190460000Y-83390000D03*
%TD*%
D11*
%TO.C,D2*%
X184980000Y-98200000D03*
D12*
X182440000Y-98200000D03*
%TD*%
D21*
%TO.C,J3*%
X212700000Y-99490000D03*
D22*
X212700000Y-101490000D03*
%TD*%
D17*
%TO.C,J7*%
X196400000Y-57610000D03*
D18*
X198940000Y-57610000D03*
X201480000Y-57610000D03*
X204020000Y-57610000D03*
X206560000Y-57610000D03*
X209100000Y-57610000D03*
X211640000Y-57610000D03*
X214180000Y-57610000D03*
%TD*%
D15*
%TO.C,R3*%
X176930000Y-91010000D03*
D16*
X176930000Y-83390000D03*
%TD*%
D11*
%TO.C,D4*%
X171480000Y-98200000D03*
D12*
X168940000Y-98200000D03*
%TD*%
D17*
%TO.C,J1*%
X149240000Y-61960000D03*
D18*
X149240000Y-64500000D03*
X149240000Y-67040000D03*
X149240000Y-69580000D03*
X149240000Y-72120000D03*
X149240000Y-74660000D03*
X149240000Y-77200000D03*
X149240000Y-79740000D03*
X149240000Y-82280000D03*
X149240000Y-84820000D03*
X149240000Y-87360000D03*
X149240000Y-89900000D03*
X149240000Y-92440000D03*
X149240000Y-94980000D03*
X149240000Y-97520000D03*
%TD*%
D17*
%TO.C,J2*%
X164480000Y-61960000D03*
D18*
X164480000Y-64500000D03*
X164480000Y-67040000D03*
X164480000Y-69580000D03*
X164480000Y-72120000D03*
X164480000Y-74660000D03*
X164480000Y-77200000D03*
X164480000Y-79740000D03*
X164480000Y-82280000D03*
X164480000Y-84820000D03*
X164480000Y-87360000D03*
X164480000Y-89900000D03*
X164480000Y-92440000D03*
X164480000Y-94980000D03*
X164480000Y-97520000D03*
%TD*%
M02*
