%TF.GenerationSoftware,KiCad,Pcbnew,8.0.8*%
%TF.CreationDate,2025-03-12T21:32:49-06:00*%
%TF.ProjectId,Final_Project_New_Design,46696e61-6c5f-4507-926f-6a6563745f4e,rev?*%
%TF.SameCoordinates,Original*%
%TF.FileFunction,Copper,L1,Top*%
%TF.FilePolarity,Positive*%
%FSLAX46Y46*%
G04 Gerber Fmt 4.6, Leading zero omitted, Abs format (unit mm)*
G04 Created by KiCad (PCBNEW 8.0.8) date 2025-03-12 21:32:49*
%MOMM*%
%LPD*%
G01*
G04 APERTURE LIST*
G04 Aperture macros list*
%AMRoundRect*
0 Rectangle with rounded corners*
0 $1 Rounding radius*
0 $2 $3 $4 $5 $6 $7 $8 $9 X,Y pos of 4 corners*
0 Add a 4 corners polygon primitive as box body*
4,1,4,$2,$3,$4,$5,$6,$7,$8,$9,$2,$3,0*
0 Add four circle primitives for the rounded corners*
1,1,$1+$1,$2,$3*
1,1,$1+$1,$4,$5*
1,1,$1+$1,$6,$7*
1,1,$1+$1,$8,$9*
0 Add four rect primitives between the rounded corners*
20,1,$1+$1,$2,$3,$4,$5,0*
20,1,$1+$1,$4,$5,$6,$7,0*
20,1,$1+$1,$6,$7,$8,$9,0*
20,1,$1+$1,$8,$9,$2,$3,0*%
G04 Aperture macros list end*
%TA.AperFunction,ComponentPad*%
%ADD10C,1.308000*%
%TD*%
%TA.AperFunction,ComponentPad*%
%ADD11R,1.800000X1.800000*%
%TD*%
%TA.AperFunction,ComponentPad*%
%ADD12C,1.800000*%
%TD*%
%TA.AperFunction,ComponentPad*%
%ADD13RoundRect,0.250000X0.350000X0.625000X-0.350000X0.625000X-0.350000X-0.625000X0.350000X-0.625000X0*%
%TD*%
%TA.AperFunction,ComponentPad*%
%ADD14O,1.200000X1.750000*%
%TD*%
%TA.AperFunction,ComponentPad*%
%ADD15C,1.600000*%
%TD*%
%TA.AperFunction,ComponentPad*%
%ADD16O,1.600000X1.600000*%
%TD*%
%TA.AperFunction,ComponentPad*%
%ADD17R,1.700000X1.700000*%
%TD*%
%TA.AperFunction,ComponentPad*%
%ADD18O,1.700000X1.700000*%
%TD*%
%TA.AperFunction,ComponentPad*%
%ADD19RoundRect,0.250000X-0.620000X-0.845000X0.620000X-0.845000X0.620000X0.845000X-0.620000X0.845000X0*%
%TD*%
%TA.AperFunction,ComponentPad*%
%ADD20O,1.740000X2.190000*%
%TD*%
%TA.AperFunction,ComponentPad*%
%ADD21RoundRect,0.250000X-0.625000X0.350000X-0.625000X-0.350000X0.625000X-0.350000X0.625000X0.350000X0*%
%TD*%
%TA.AperFunction,ComponentPad*%
%ADD22O,1.750000X1.200000*%
%TD*%
%TA.AperFunction,ViaPad*%
%ADD23C,0.600000*%
%TD*%
%TA.AperFunction,Conductor*%
%ADD24C,0.600000*%
%TD*%
G04 APERTURE END LIST*
D10*
%TO.P,SW1,1,A*%
%TO.N,Net-(J10-Pin_2)*%
X137450000Y-99500000D03*
%TO.P,SW1,2,B*%
%TO.N,/VIN*%
X145070000Y-99500000D03*
%TD*%
D11*
%TO.P,D3,1,K*%
%TO.N,Net-(D3-K)*%
X178280000Y-98200000D03*
D12*
%TO.P,D3,2,A*%
%TO.N,/HUMIDITY_LED*%
X175740000Y-98200000D03*
%TD*%
D13*
%TO.P,J9,1,Pin_1*%
%TO.N,GND*%
X124950000Y-99860000D03*
D14*
%TO.P,J9,2,Pin_2*%
%TO.N,/EXTERNAL_TEMP*%
X122950000Y-99860000D03*
%TO.P,J9,3,Pin_3*%
%TO.N,+5V*%
X120950000Y-99860000D03*
%TD*%
D15*
%TO.P,R5,1*%
%TO.N,Net-(J3-Pin_1)*%
X205600000Y-99490000D03*
D16*
%TO.P,R5,2*%
%TO.N,GND*%
X197980000Y-99490000D03*
%TD*%
D15*
%TO.P,R4,1*%
%TO.N,Net-(D4-K)*%
X170120000Y-90930000D03*
D16*
%TO.P,R4,2*%
%TO.N,GND*%
X170120000Y-83310000D03*
%TD*%
D17*
%TO.P,J6,1,Pin_1*%
%TO.N,+5V*%
X128620000Y-69340000D03*
D18*
%TO.P,J6,2,Pin_2*%
%TO.N,GND*%
X131160000Y-69340000D03*
%TO.P,J6,3,Pin_3*%
%TO.N,/SCL*%
X133700000Y-69340000D03*
%TO.P,J6,4,Pin_4*%
%TO.N,/SDA*%
X136240000Y-69340000D03*
%TD*%
D19*
%TO.P,J10,1,Pin_1*%
%TO.N,GND*%
X131360000Y-98690000D03*
D20*
%TO.P,J10,2,Pin_2*%
%TO.N,Net-(J10-Pin_2)*%
X133900000Y-98690000D03*
%TD*%
D17*
%TO.P,J5,1,Pin_1*%
%TO.N,unconnected-(J5-Pin_1-Pad1)*%
X171745000Y-60010000D03*
D18*
%TO.P,J5,2,Pin_2*%
%TO.N,/CS0*%
X174285000Y-60010000D03*
%TO.P,J5,3,Pin_3*%
%TO.N,/MOSI*%
X176825000Y-60010000D03*
%TO.P,J5,4,Pin_4*%
%TO.N,/MISO*%
X179365000Y-60010000D03*
%TO.P,J5,5,Pin_5*%
%TO.N,/SCK*%
X181905000Y-60010000D03*
%TO.P,J5,6,Pin_6*%
%TO.N,GND*%
X184445000Y-60010000D03*
%TO.P,J5,7,Pin_7*%
%TO.N,unconnected-(J5-Pin_7-Pad7)*%
X186985000Y-60010000D03*
%TO.P,J5,8,Pin_8*%
%TO.N,+3V3*%
X189525000Y-60010000D03*
%TD*%
D11*
%TO.P,D1,1,K*%
%TO.N,Net-(D1-K)*%
X191580000Y-98200000D03*
D12*
%TO.P,D1,2,A*%
%TO.N,/IMU_LED*%
X189040000Y-98200000D03*
%TD*%
D17*
%TO.P,J8,1,Pin_1*%
%TO.N,unconnected-(J8-Pin_1-Pad1)*%
X122695000Y-79230000D03*
D18*
%TO.P,J8,2,Pin_2*%
%TO.N,unconnected-(J8-Pin_2-Pad2)*%
X125235000Y-79230000D03*
%TO.P,J8,3,Pin_3*%
%TO.N,unconnected-(J8-Pin_3-Pad3)*%
X127775000Y-79230000D03*
%TO.P,J8,4,Pin_4*%
%TO.N,unconnected-(J8-Pin_4-Pad4)*%
X130315000Y-79230000D03*
%TO.P,J8,5,Pin_5*%
%TO.N,/SDA*%
X132855000Y-79230000D03*
%TO.P,J8,6,Pin_6*%
%TO.N,/SCL*%
X135395000Y-79230000D03*
%TO.P,J8,7,Pin_7*%
%TO.N,GND*%
X137935000Y-79230000D03*
%TO.P,J8,8,Pin_8*%
%TO.N,+5V*%
X140475000Y-79230000D03*
%TD*%
D15*
%TO.P,R2,1*%
%TO.N,Net-(D2-K)*%
X183580000Y-91010000D03*
D16*
%TO.P,R2,2*%
%TO.N,GND*%
X183580000Y-83390000D03*
%TD*%
D21*
%TO.P,J4,1,Pin_1*%
%TO.N,Net-(J4-Pin_1)*%
X212680000Y-92130000D03*
D22*
%TO.P,J4,2,Pin_2*%
%TO.N,/INTERNAL_TEMP_LED*%
X212680000Y-94130000D03*
%TD*%
D15*
%TO.P,R6,1*%
%TO.N,Net-(J4-Pin_1)*%
X205600000Y-92090000D03*
D16*
%TO.P,R6,2*%
%TO.N,GND*%
X197980000Y-92090000D03*
%TD*%
D15*
%TO.P,R1,1*%
%TO.N,Net-(D1-K)*%
X190460000Y-91010000D03*
D16*
%TO.P,R1,2*%
%TO.N,GND*%
X190460000Y-83390000D03*
%TD*%
D11*
%TO.P,D2,1,K*%
%TO.N,Net-(D2-K)*%
X184980000Y-98200000D03*
D12*
%TO.P,D2,2,A*%
%TO.N,/PRESSURE_LED*%
X182440000Y-98200000D03*
%TD*%
D21*
%TO.P,J3,1,Pin_1*%
%TO.N,Net-(J3-Pin_1)*%
X212700000Y-99490000D03*
D22*
%TO.P,J3,2,Pin_2*%
%TO.N,/POWER_LED*%
X212700000Y-101490000D03*
%TD*%
D17*
%TO.P,J7,1,Pin_1*%
%TO.N,unconnected-(J7-Pin_1-Pad1)*%
X196400000Y-57610000D03*
D18*
%TO.P,J7,2,Pin_2*%
%TO.N,/CS1*%
X198940000Y-57610000D03*
%TO.P,J7,3,Pin_3*%
%TO.N,/MOSI*%
X201480000Y-57610000D03*
%TO.P,J7,4,Pin_4*%
%TO.N,/MISO*%
X204020000Y-57610000D03*
%TO.P,J7,5,Pin_5*%
%TO.N,/SCK*%
X206560000Y-57610000D03*
%TO.P,J7,6,Pin_6*%
%TO.N,GND*%
X209100000Y-57610000D03*
%TO.P,J7,7,Pin_7*%
%TO.N,unconnected-(J7-Pin_7-Pad7)*%
X211640000Y-57610000D03*
%TO.P,J7,8,Pin_8*%
%TO.N,+5V*%
X214180000Y-57610000D03*
%TD*%
D15*
%TO.P,R3,1*%
%TO.N,Net-(D3-K)*%
X176930000Y-91010000D03*
D16*
%TO.P,R3,2*%
%TO.N,GND*%
X176930000Y-83390000D03*
%TD*%
D11*
%TO.P,D4,1,K*%
%TO.N,Net-(D4-K)*%
X171480000Y-98200000D03*
D12*
%TO.P,D4,2,A*%
%TO.N,/EXTERNAL_TEMP_LED*%
X168940000Y-98200000D03*
%TD*%
D17*
%TO.P,J1,1,Pin_1*%
%TO.N,/SCK*%
X149240000Y-61960000D03*
D18*
%TO.P,J1,2,Pin_2*%
%TO.N,+3V3*%
X149240000Y-64500000D03*
%TO.P,J1,3,Pin_3*%
%TO.N,unconnected-(J1-Pin_3-Pad3)*%
X149240000Y-67040000D03*
%TO.P,J1,4,Pin_4*%
%TO.N,unconnected-(J1-Pin_4-Pad4)*%
X149240000Y-69580000D03*
%TO.P,J1,5,Pin_5*%
%TO.N,unconnected-(J1-Pin_5-Pad5)*%
X149240000Y-72120000D03*
%TO.P,J1,6,Pin_6*%
%TO.N,unconnected-(J1-Pin_6-Pad6)*%
X149240000Y-74660000D03*
%TO.P,J1,7,Pin_7*%
%TO.N,unconnected-(J1-Pin_7-Pad7)*%
X149240000Y-77200000D03*
%TO.P,J1,8,Pin_8*%
%TO.N,/SDA*%
X149240000Y-79740000D03*
%TO.P,J1,9,Pin_9*%
%TO.N,/SCL*%
X149240000Y-82280000D03*
%TO.P,J1,10,Pin_10*%
%TO.N,unconnected-(J1-Pin_10-Pad10)*%
X149240000Y-84820000D03*
%TO.P,J1,11,Pin_11*%
%TO.N,/EXTERNAL_TEMP*%
X149240000Y-87360000D03*
%TO.P,J1,12,Pin_12*%
%TO.N,+5V*%
X149240000Y-89900000D03*
%TO.P,J1,13,Pin_13*%
%TO.N,unconnected-(J1-Pin_13-Pad13)*%
X149240000Y-92440000D03*
%TO.P,J1,14,Pin_14*%
%TO.N,GND*%
X149240000Y-94980000D03*
%TO.P,J1,15,Pin_15*%
%TO.N,/VIN*%
X149240000Y-97520000D03*
%TD*%
D17*
%TO.P,J2,1,Pin_1*%
%TO.N,/MISO*%
X164480000Y-61960000D03*
D18*
%TO.P,J2,2,Pin_2*%
%TO.N,/MOSI*%
X164480000Y-64500000D03*
%TO.P,J2,3,Pin_3*%
%TO.N,/CS0*%
X164480000Y-67040000D03*
%TO.P,J2,4,Pin_4*%
%TO.N,/CS1*%
X164480000Y-69580000D03*
%TO.P,J2,5,Pin_5*%
%TO.N,/IMU_LED*%
X164480000Y-72120000D03*
%TO.P,J2,6,Pin_6*%
%TO.N,/PRESSURE_LED*%
X164480000Y-74660000D03*
%TO.P,J2,7,Pin_7*%
%TO.N,/HUMIDITY_LED*%
X164480000Y-77200000D03*
%TO.P,J2,8,Pin_8*%
%TO.N,/EXTERNAL_TEMP_LED*%
X164480000Y-79740000D03*
%TO.P,J2,9,Pin_9*%
%TO.N,/POWER_LED*%
X164480000Y-82280000D03*
%TO.P,J2,10,Pin_10*%
%TO.N,/INTERNAL_TEMP_LED*%
X164480000Y-84820000D03*
%TO.P,J2,11,Pin_11*%
%TO.N,unconnected-(J2-Pin_11-Pad11)*%
X164480000Y-87360000D03*
%TO.P,J2,12,Pin_12*%
%TO.N,GND*%
X164480000Y-89900000D03*
%TO.P,J2,13,Pin_13*%
%TO.N,unconnected-(J2-Pin_13-Pad13)*%
X164480000Y-92440000D03*
%TO.P,J2,14,Pin_14*%
%TO.N,unconnected-(J2-Pin_14-Pad14)*%
X164480000Y-94980000D03*
%TO.P,J2,15,Pin_15*%
%TO.N,unconnected-(J2-Pin_15-Pad15)*%
X164480000Y-97520000D03*
%TD*%
D23*
%TO.N,+5V*%
X143900000Y-78770000D03*
X143970000Y-72490000D03*
%TO.N,/MOSI*%
X190860000Y-65200000D03*
X194020000Y-65220000D03*
%TD*%
D24*
%TO.N,/VIN*%
X145070000Y-99500000D02*
X147260000Y-99500000D01*
X147260000Y-99500000D02*
X149240000Y-97520000D01*
%TO.N,/IMU_LED*%
X186640000Y-81860000D02*
X176900000Y-72120000D01*
X176900000Y-72120000D02*
X164480000Y-72120000D01*
X186640000Y-91620000D02*
X186640000Y-81860000D01*
X189040000Y-94020000D02*
X186640000Y-91620000D01*
X189040000Y-98200000D02*
X189040000Y-94020000D01*
%TO.N,Net-(D1-K)*%
X190460000Y-91010000D02*
X190460000Y-97080000D01*
X190460000Y-97080000D02*
X191580000Y-98200000D01*
%TO.N,/PRESSURE_LED*%
X182280000Y-98040000D02*
X182280000Y-93220000D01*
X172890000Y-74660000D02*
X164480000Y-74660000D01*
X182280000Y-93220000D02*
X179560000Y-90500000D01*
X179560000Y-90500000D02*
X179560000Y-81330000D01*
X179560000Y-81330000D02*
X172890000Y-74660000D01*
%TO.N,Net-(D2-K)*%
X183580000Y-91010000D02*
X183580000Y-96800000D01*
X183580000Y-96800000D02*
X184980000Y-98200000D01*
%TO.N,Net-(D3-K)*%
X176930000Y-96850000D02*
X178280000Y-98200000D01*
X176930000Y-91010000D02*
X176930000Y-96850000D01*
%TO.N,/HUMIDITY_LED*%
X175740000Y-98200000D02*
X174840000Y-97300000D01*
X165970000Y-77200000D02*
X164480000Y-77200000D01*
X174840000Y-86070000D02*
X165970000Y-77200000D01*
X174840000Y-97300000D02*
X174840000Y-86070000D01*
%TO.N,/EXTERNAL_TEMP_LED*%
X168940000Y-98200000D02*
X168040000Y-97300000D01*
X168040000Y-97300000D02*
X168040000Y-83300000D01*
X168040000Y-83300000D02*
X164480000Y-79740000D01*
%TO.N,Net-(D4-K)*%
X170120000Y-90930000D02*
X170120000Y-96840000D01*
X170120000Y-96840000D02*
X171480000Y-98200000D01*
%TO.N,+5V*%
X214180000Y-57610000D02*
X208910000Y-52340000D01*
X136615000Y-84195000D02*
X143535000Y-84195000D01*
X143900000Y-78770000D02*
X143900000Y-84560000D01*
X143900000Y-54550000D02*
X143900000Y-72420000D01*
X143900000Y-72420000D02*
X143970000Y-72490000D01*
X136040000Y-76760000D02*
X138005000Y-76760000D01*
X143900000Y-84560000D02*
X144305000Y-84965000D01*
X208910000Y-52340000D02*
X146110000Y-52340000D01*
X138005000Y-76760000D02*
X140475000Y-79230000D01*
X128620000Y-69340000D02*
X136040000Y-76760000D01*
X140475000Y-81135000D02*
X143535000Y-84195000D01*
X143535000Y-84195000D02*
X144305000Y-84965000D01*
X120950000Y-99860000D02*
X136615000Y-84195000D01*
X140475000Y-79230000D02*
X140475000Y-81135000D01*
X144305000Y-84965000D02*
X149240000Y-89900000D01*
X146110000Y-52340000D02*
X143900000Y-54550000D01*
%TO.N,/SCK*%
X177315000Y-55420000D02*
X155780000Y-55420000D01*
X191040000Y-62930000D02*
X184825000Y-62930000D01*
X155780000Y-55420000D02*
X149240000Y-61960000D01*
X202930000Y-53980000D02*
X195000000Y-53980000D01*
X195000000Y-53980000D02*
X192890000Y-56090000D01*
X192890000Y-56090000D02*
X192890000Y-61180000D01*
X192890000Y-61180000D02*
X192790000Y-61180000D01*
X184825000Y-62930000D02*
X181905000Y-60010000D01*
X206560000Y-57610000D02*
X202930000Y-53980000D01*
X192790000Y-61180000D02*
X191040000Y-62930000D01*
X181905000Y-60010000D02*
X177315000Y-55420000D01*
%TO.N,/EXTERNAL_TEMP*%
X152300000Y-100570000D02*
X150190000Y-102680000D01*
X150190000Y-102680000D02*
X124845000Y-102680000D01*
X152300000Y-90420000D02*
X152300000Y-100570000D01*
X149240000Y-87360000D02*
X152300000Y-90420000D01*
X124845000Y-102680000D02*
X122950000Y-100785000D01*
X122950000Y-100785000D02*
X122950000Y-99860000D01*
%TO.N,/SDA*%
X127370000Y-64740000D02*
X131640000Y-64740000D01*
X136240000Y-69340000D02*
X138840000Y-69340000D01*
X131640000Y-64740000D02*
X136240000Y-69340000D01*
X124360000Y-67750000D02*
X127370000Y-64740000D01*
X132855000Y-79230000D02*
X130515000Y-76890000D01*
X138840000Y-69340000D02*
X149240000Y-79740000D01*
X128280000Y-76890000D02*
X124360000Y-72970000D01*
X130515000Y-76890000D02*
X128280000Y-76890000D01*
X124360000Y-72970000D02*
X124360000Y-67750000D01*
%TO.N,/SCL*%
X126050000Y-72170000D02*
X126050000Y-68750000D01*
X137980000Y-75570000D02*
X133700000Y-71290000D01*
X133700000Y-69340000D02*
X130970000Y-66610000D01*
X129450000Y-75570000D02*
X126050000Y-72170000D01*
X126050000Y-68750000D02*
X128190000Y-66610000D01*
X149240000Y-82280000D02*
X142530000Y-75570000D01*
X142530000Y-75570000D02*
X137980000Y-75570000D01*
X131735000Y-75570000D02*
X129450000Y-75570000D01*
X130970000Y-66610000D02*
X128190000Y-66610000D01*
X133700000Y-71290000D02*
X133700000Y-69340000D01*
X135395000Y-79230000D02*
X131735000Y-75570000D01*
%TO.N,+3V3*%
X150520000Y-53930000D02*
X146330000Y-58120000D01*
X189525000Y-60010000D02*
X183445000Y-53930000D01*
X146330000Y-61590000D02*
X149240000Y-64500000D01*
X146330000Y-58120000D02*
X146330000Y-61590000D01*
X183445000Y-53930000D02*
X150520000Y-53930000D01*
%TO.N,/INTERNAL_TEMP_LED*%
X205178478Y-94130000D02*
X197328478Y-101980000D01*
X166780000Y-87120000D02*
X164480000Y-84820000D01*
X166780000Y-99640000D02*
X166780000Y-87120000D01*
X197328478Y-101980000D02*
X169120000Y-101980000D01*
X169120000Y-101980000D02*
X166780000Y-99640000D01*
X212680000Y-94130000D02*
X205178478Y-94130000D01*
%TO.N,/CS0*%
X167255000Y-67040000D02*
X164480000Y-67040000D01*
X174285000Y-60010000D02*
X167255000Y-67040000D01*
%TO.N,/CS1*%
X164480000Y-69580000D02*
X178870000Y-69580000D01*
X178870000Y-69580000D02*
X181910000Y-66540000D01*
X198940000Y-58812081D02*
X198940000Y-57610000D01*
X181910000Y-66540000D02*
X191212081Y-66540000D01*
X191212081Y-66540000D02*
X198940000Y-58812081D01*
%TO.N,/POWER_LED*%
X164200000Y-103550000D02*
X159860000Y-99210000D01*
X159860000Y-86900000D02*
X164480000Y-82280000D01*
X210640000Y-103550000D02*
X164200000Y-103550000D01*
X159860000Y-99210000D02*
X159860000Y-86900000D01*
X212700000Y-101490000D02*
X210640000Y-103550000D01*
%TO.N,/MOSI*%
X195510000Y-65220000D02*
X201480000Y-59250000D01*
X175475000Y-58660000D02*
X170320000Y-58660000D01*
X182005000Y-65190000D02*
X190850000Y-65190000D01*
X201480000Y-59250000D02*
X201480000Y-57610000D01*
X194020000Y-65220000D02*
X195510000Y-65220000D01*
X176825000Y-60010000D02*
X182005000Y-65190000D01*
X170320000Y-58660000D02*
X164480000Y-64500000D01*
X176825000Y-60010000D02*
X175475000Y-58660000D01*
X190850000Y-65190000D02*
X190860000Y-65200000D01*
%TO.N,/MISO*%
X194180000Y-56910000D02*
X194180000Y-61460000D01*
X176295000Y-56940000D02*
X169500000Y-56940000D01*
X191670000Y-63970000D02*
X183325000Y-63970000D01*
X194180000Y-61460000D02*
X191670000Y-63970000D01*
X204020000Y-57610000D02*
X201780000Y-55370000D01*
X201780000Y-55370000D02*
X195720000Y-55370000D01*
X195720000Y-55370000D02*
X194180000Y-56910000D01*
X183325000Y-63970000D02*
X179365000Y-60010000D01*
X169500000Y-56940000D02*
X164480000Y-61960000D01*
X179365000Y-60010000D02*
X176295000Y-56940000D01*
%TO.N,Net-(J3-Pin_1)*%
X205600000Y-99490000D02*
X212700000Y-99490000D01*
%TO.N,Net-(J4-Pin_1)*%
X205600000Y-92090000D02*
X212640000Y-92090000D01*
%TO.N,Net-(J10-Pin_2)*%
X136640000Y-98690000D02*
X137450000Y-99500000D01*
X133900000Y-98690000D02*
X136640000Y-98690000D01*
%TD*%
M02*
