%TF.GenerationSoftware,KiCad,Pcbnew,8.0.8*%
%TF.CreationDate,2025-03-12T21:32:49-06:00*%
%TF.ProjectId,Final_Project_New_Design,46696e61-6c5f-4507-926f-6a6563745f4e,rev?*%
%TF.SameCoordinates,Original*%
%TF.FileFunction,Legend,Bot*%
%TF.FilePolarity,Positive*%
%FSLAX46Y46*%
G04 Gerber Fmt 4.6, Leading zero omitted, Abs format (unit mm)*
G04 Created by KiCad (PCBNEW 8.0.8) date 2025-03-12 21:32:49*
%MOMM*%
%LPD*%
G01*
G04 APERTURE LIST*
%ADD10C,0.150000*%
%ADD11C,0.120000*%
G04 APERTURE END LIST*
D10*
X151234819Y-61626666D02*
X151949104Y-61626666D01*
X151949104Y-61626666D02*
X152091961Y-61579047D01*
X152091961Y-61579047D02*
X152187200Y-61483809D01*
X152187200Y-61483809D02*
X152234819Y-61340952D01*
X152234819Y-61340952D02*
X152234819Y-61245714D01*
X152234819Y-62626666D02*
X152234819Y-62055238D01*
X152234819Y-62340952D02*
X151234819Y-62340952D01*
X151234819Y-62340952D02*
X151377676Y-62245714D01*
X151377676Y-62245714D02*
X151472914Y-62150476D01*
X151472914Y-62150476D02*
X151520533Y-62055238D01*
X161394819Y-61626666D02*
X162109104Y-61626666D01*
X162109104Y-61626666D02*
X162251961Y-61579047D01*
X162251961Y-61579047D02*
X162347200Y-61483809D01*
X162347200Y-61483809D02*
X162394819Y-61340952D01*
X162394819Y-61340952D02*
X162394819Y-61245714D01*
X161490057Y-62055238D02*
X161442438Y-62102857D01*
X161442438Y-62102857D02*
X161394819Y-62198095D01*
X161394819Y-62198095D02*
X161394819Y-62436190D01*
X161394819Y-62436190D02*
X161442438Y-62531428D01*
X161442438Y-62531428D02*
X161490057Y-62579047D01*
X161490057Y-62579047D02*
X161585295Y-62626666D01*
X161585295Y-62626666D02*
X161680533Y-62626666D01*
X161680533Y-62626666D02*
X161823390Y-62579047D01*
X161823390Y-62579047D02*
X162394819Y-62007619D01*
X162394819Y-62007619D02*
X162394819Y-62626666D01*
D11*
%TO.C,J1*%
X147910000Y-63230000D02*
X147910000Y-98850000D01*
X150570000Y-60630000D02*
X149240000Y-60630000D01*
X150570000Y-61960000D02*
X150570000Y-60630000D01*
X150570000Y-63230000D02*
X147910000Y-63230000D01*
X150570000Y-63230000D02*
X150570000Y-98850000D01*
X150570000Y-98850000D02*
X147910000Y-98850000D01*
%TO.C,J2*%
X163150000Y-63230000D02*
X163150000Y-98850000D01*
X165810000Y-60630000D02*
X164480000Y-60630000D01*
X165810000Y-61960000D02*
X165810000Y-60630000D01*
X165810000Y-63230000D02*
X163150000Y-63230000D01*
X165810000Y-63230000D02*
X165810000Y-98850000D01*
X165810000Y-98850000D02*
X163150000Y-98850000D01*
%TD*%
M02*
